<?xml version="1.0" standalone="no"?>
<!DOCTYPE svg PUBLIC "-//W3C//DTD SVG 1.1//EN" "http://www.w3.org/Graphics/SVG/1.1/DTD/svg11.dtd" >
<svg xmlns="http://www.w3.org/2000/svg">
<metadata></metadata>
<defs>
<font id="watchmenregular" horiz-adv-x="1705" >
<font-face units-per-em="2048" ascent="1638" descent="-410" />
<missing-glyph horiz-adv-x="1024" />
<glyph horiz-adv-x="0" />
<glyph horiz-adv-x="682" />
<glyph unicode=" "  horiz-adv-x="1024" />
<glyph unicode="&#x09;" horiz-adv-x="1024" />
<glyph unicode="&#xa0;" horiz-adv-x="1024" />
<glyph unicode="!" horiz-adv-x="573" d="M256 344l-164 29v69l14 4q6 2 25 5.5t40.5 6.5t39.5 5t25 2q4 2 10 3t10 3l-164 25v88l361 -70v-78l-207 -30l207 -31v-82l-361 -57v79q0 2 10.5 3t14.5 4q8 0 27.5 3t42 6t42 6t27.5 3v4zM92 709l361 61v-82q0 -4 -7.5 -5t-16.5 -2t-16 -3t-7 -8v-41l47 -8v-86l-361 71 v103zM215 657q23 -14 53.5 -15t59.5 -1v29q-27 0 -58.5 -5.5t-54.5 -7.5zM176 930v-49l6 -9h271v-88h-277v-47h-84v193h84zM84 1042q0 6 2 30t6 24h86q-4 -8 -5 -16.5t-1 -14.5q0 -18 10.5 -29.5t25.5 -16.5t32.5 -7t31.5 -2t30.5 2t31 7t25 16.5t10.5 29.5q0 10 -2 18.5 t-2 18.5h15t15 -4q6 0 15.5 -1t17.5 -1h21l4 -15v-71q-2 -2 -2 -4t-2 -2q-29 -49 -75 -64.5t-100 -15.5q-27 0 -59.5 5t-62 18.5t-49 36.5t-19.5 58zM217 1202q0 4 1 14.5t-1 14.5l-2 4v4h-123v86h361v-86h-131q-2 -2 -3 -4v-4v-29h134v-86h-361v86h125zM92 1464l172 27 q-8 2 -29.5 4t-46 5t-47 6t-30.5 5q-2 0 -4.5 1t-6.5 1t-8 3v106l14 4q2 0 34 2t77 4t91 5t77 3q10 2 34.5 2h33.5v-77l-197 -9l4 -2l193 -28v-70l-201 -33l201 -10v-76q-4 0 -18.5 1t-18.5 1q-18 0 -64.5 2t-97.5 5.5t-97 6.5t-65 5v106zM176 1812v-63h49v55h92v-55h54v63 h82v-153h-361v153h84zM92 1964v84h361v-88l-142 -43l-4 -4h15h24.5t40 -1t39.5 -1h27v-84h-361v90q0 6 19.5 11t46 11.5t52.5 12.5t36 12h-154zM162 -242q-23 14 -42.5 31.5t-33.5 42.5v2q-31 55 -31 115q0 66 36 123t99 82q4 2 17.5 6t19.5 6q-6 0 9.5 1t37 1t43 -2 t29.5 -8q51 -14 88 -53t51 -87q10 -27 12.5 -57.5t-3.5 -58.5q-20 -78 -78 -126t-140 -48q-69 -1 -114 30zM160 -137q4 -2 16 -19q29 -25 64 -37l4 -2h4h57q20 0 48 21.5t40 36.5q2 2 4 2h2v-2h15v4l-11 10q-14 10 -28 10q0 -4 5 -7t5 -7h2q-12 -29 -48 -40t-63 -11 q-4 0 -13 1t-11 1q-47 2 -80 37q0 2 -3 4t-3 6q0 2 6 2q0 2 2 5t2 5l-2 -2l2 4v2q-8 0 -22.5 -7t-14.5 -17q4 0 7.5 2t7.5 2h2l-6 -4h2h8zM397 -133q0 -2 -1 -2t-1 2h2zM164 -127q2 0 2 -1t-2 -1t-2 1t2 1zM266 -86q2 -2 4 -2q6 0 6 2v6q0 14 -14 14v7l-39 39l-2 4q0 8 1 15 t1 17v10.5t-2 17.5t-4 16.5t-8 7.5q-8 0 -8 -7q-2 -10 -5 -22t-3 -23h-3v2q-4 4 -8 9.5t-10 11.5q-2 2 -6 10l-4 8q4 -2 7 -4t7 -4q4 0 4 2v4q-6 8 -13 10.5t-13 6.5q-2 4 -10.5 10t-10.5 8t-8 2q-10 0 -10 -10q0 -2 3 -7t3 -7l2 2q-2 -10 0 -18.5t2 -18.5q4 -4 8 -4t5 4 t1 6q4 -8 8.5 -24.5t14.5 -16.5h2q0 2 2 4q-2 12 -9 21.5t-7 19.5q2 0 8 -6t13 -14.5t13 -15.5t9 -9q6 -6 5 -21.5t11 -15.5q4 0 5 2t5 6q4 -4 7 -9t7 -9q4 -6 15.5 -18.5t11.5 -16.5q12 0 12 6v-2q0 -6 -6 -6zM250 -61q2 0 5 -4.5t3 -8.5q-4 0 -6 4.5t-2 8.5zM260 -70 q2 0 2 -3t-2 -3t-2 3t2 3zM238 -45q2 0 2 -2t-2 -2q-4 0 -4 2t4 2zM344 68q-10 0 -12 -9.5t-2 -15.5v-59q0 -4 4 -13.5t10 -9.5q4 0 5 4t5 8q0 4 1 12.5t1 12.5v18v17q0 4 -1 12t-1 12q-4 4 -5 7.5t-5 3.5zM152 18v-6q0 4 -1 4t-1 2h2zM127 37q-2 0 -2 1t2 1v-2zM135 47 q4 0 4 -2t-4 -2v4zM156 47h-2h2zM133 51q2 -2 0 -4v4zM131 68v2v-2zM121 76v4v-4z" />
<glyph unicode="&#x22;" horiz-adv-x="1286" d="M662 1163q-23 -2 -81.5 -5t-123 -7t-121.5 -7t-82 -3q-4 0 -22.5 -1t-24.5 -1l-19 98l254 10l-262 43l-16 90l237 35l7 4l-254 13l-19 96h42t46 -2q37 0 97.5 -3t118 -6.5t99.5 -5.5t44 -2l18 -6l25 -137q-4 0 -9 -2q-8 -4 -14 -4q-10 -2 -37.5 -5t-58.5 -7.5t-57.5 -7.5 t-36.5 -5l225 -35zM555 1749l35 -197h-459l-35 197h105l14 -84h70l-13 72h117l12 -72h64l-14 84h104zM324 1942q16 -10 50 -18.5t67.5 -15.5t60 -13.5t28.5 -14.5l21 -115h-459l-18 105q8 0 31.5 1t50 1t50 1t34.5 1h16l-4 6l-191 55l-20 113h459l18 -106h-194zM1229 1163 q-23 -2 -81 -5t-122.5 -7t-122 -7t-82.5 -3q-4 0 -22.5 -1t-24.5 -1l-18 98l254 10l-262 43l-17 90l238 35l6 4l-254 13l-19 96h42t47 -2q37 0 97 -3t117.5 -6.5t99.5 -5.5t44 -2l18 -6l25 -137q-4 0 -8 -2q-8 -4 -15 -4q-10 -2 -37.5 -5t-58.5 -7.5t-57.5 -7.5t-36.5 -5 l225 -35zM1122 1749l35 -197h-459l-34 197h104l14 -84h70l-12 72h116l13 -72h63l-14 84h104zM891 1942q16 -10 50 -18.5t67.5 -15.5t60.5 -13.5t29 -14.5l20 -115h-459l-18 105q8 0 31.5 1t50.5 1t50.5 1t33.5 1h16l-4 6l-190 55l-21 113h459l18 -106h-194z" />
<glyph unicode="#" horiz-adv-x="1064" d="M209 403q-31 4 -46.5 20.5t-15.5 39.5q0 18 11.5 34.5t36.5 26.5q29 4 57.5 6t56.5 7l6 36q10 72 16.5 142.5t12.5 142.5q-76 -2 -149 -12q-31 4 -46.5 20.5t-15.5 38.5q0 18 11.5 34.5t35.5 27.5q43 4 87 8t87 6q10 104 26.5 204.5t45.5 203.5q10 18 25.5 27t31.5 9 q25 0 43.5 -18t16.5 -53q-27 -92 -42.5 -184.5t-25.5 -186.5h86t86 -2q6 41 13.5 80t15.5 80q10 53 19.5 118.5t35.5 112.5q20 37 55 37q29 0 49.5 -25.5t6.5 -66.5q-8 -8 -18.5 -52t-20.5 -97.5t-17.5 -101.5t-9.5 -65q-2 -6 -2 -12t-2 -10q27 -2 53.5 -2h53.5 q27 -8 40 -25.5t13 -38.5q0 -20 -14.5 -36.5t-43.5 -22.5h-62.5t-61.5 2q-16 -76 -29.5 -150.5t-28.5 -150.5q39 2 78 2h78q27 -8 40 -25.5t13 -37.5t-14.5 -37t-42.5 -23h-86t-86 -2q-6 -45 -6 -90t-9 -92q-6 -53 -20 -106.5t-25 -106.5q-18 -47 -59 -47q-16 0 -33.5 10 t-27.5 33v2q-2 6 -1 13t1 13q2 0 2 2q0 4 2 9h-2q0 2 1 2t1 2q2 14 6 34.5t8 40t7 34t3 16.5q16 55 20.5 112.5t10.5 114.5q-35 -2 -70 -3t-69 -3q-2 -14 -4 -27.5t-5 -27.5q-8 -41 -13 -87.5t-12 -94.5t-19.5 -93t-32.5 -84q-49 -59 -105 -4q0 4 -4 4q-12 23 -9 44.5 t17 33.5q4 10 6 22.5t7 22.5q10 72 24 141.5t27 139.5q-20 -2 -40 -4.5t-40 -4.5zM461 862q-8 -80 -14.5 -158.5t-16.5 -158.5q35 4 71 5t70 3q4 18 8.5 37.5t8.5 38.5v2q10 57 19 113.5t20 115.5q-41 0 -83 1t-83 1zM494 72q0 -6 -2 -11v2q0 5 2 9z" />
<glyph unicode="$" horiz-adv-x="1064" d="M489 1587q10 18 25.5 27.5t32.5 9.5q25 0 43 -18.5t16 -53.5q-10 -41 -12 -80.5t2 -80.5h23.5t21.5 -2q35 -4 58.5 -10.5t44 -16.5t41 -23.5t46.5 -31.5q31 -23 31 -56q0 -31 -26.5 -50t-67.5 -1q-25 16 -38 27.5t-27.5 18.5t-31 11.5t-46.5 8.5h-19q2 -10 2 -31 q2 -57 2 -112.5v-110.5v-111.5t-2 -112.5q51 -25 99.5 -54t88.5 -67t66.5 -89.5t36.5 -118.5q6 -41 6 -78q0 -84 -26.5 -151.5t-72.5 -114.5t-109.5 -74t-137.5 -29q-4 -39 -2 -77.5t12 -81.5q-2 -33 -20.5 -49.5t-40.5 -16.5q-39 0 -59 41q-14 55 -15 117q0 20 1 39.5 t3 38.5q-16 4 -29.5 8t-29.5 8q-76 25 -127 63.5t-86 108.5q-4 37 14.5 57.5t42.5 20.5q33 0 58 -33q23 -45 55.5 -64.5t79.5 -35.5q10 -4 18 -6.5t19 -4.5q0 16 2 25q10 133 17 265t11 265v21q-51 23 -100 47.5t-92 55t-76 70.5t-49 95q-8 25 -8 60q0 16 1 30.5t1 30.5 q0 53 27.5 96t71.5 77t99.5 56.5t110.5 34.5q-7 111 20 213zM776 442q-10 78 -57 129.5t-115 87.5q-4 -127 -11 -251.5t-18 -251.5q-2 -8 -2 -23q104 10 161.5 88t41.5 221zM285 1024q20 -66 76.5 -105.5t127.5 -74.5q2 51 3.5 102t1.5 105q0 53 -2.5 103t-6.5 101 q-45 -10 -87 -29.5t-72.5 -48t-42.5 -66.5t2 -87z" />
<glyph unicode="%" horiz-adv-x="2283" d="M872 -133l-198 37l18 90l17 6q8 2 32.5 5t52 7t51 7.5t32.5 3.5q4 2 13 3t13 5l-198 30l18 111l442 -86l-18 -100l-273 -39l259 -39l-19 -105l-471 -73l19 102q0 2 11 3t19 5q10 0 36 3t54.5 7.5t54 7.5t35.5 5v4zM754 334l471 78l-19 -103q-2 -6 -11 -8t-20.5 -2 t-20.5 -2t-11 -10l-10 -56l57 -10l-21 -110l-440 94zM895 268q27 -16 65.5 -18t73.5 -2l8 37q-35 0 -76.5 -6.5t-70.5 -10.5zM907 616l-10 -61l6 -10h346l-20 -113h-355l-12 -63h-102l43 247h104zM817 762q0 2 3 13t7 23.5t7.5 21.5t7.5 9h108q-8 -10 -10 -19t-4 -19 q-4 -25 6 -38.5t28.5 -20.5t40 -9t40.5 -2q18 0 39.5 2t42 9t36 20.5t19.5 38.5q2 12 0 23t2 24h20.5t20.5 -4q8 0 19.5 -1.5t21.5 -1.5q10 -2 22 -2l4 -18l-18 -90q-2 -2 -2 -4q-6 -6 -4 -6q-49 -61 -111.5 -82t-130.5 -21q-35 0 -74.5 7.5t-73.5 24.5t-54.5 47t-12.5 75z M1024 965q2 4 6 18t4 18q-2 0 -2 3v4q-2 2 -2 4h-156l21 110h459l-21 -110h-168q-2 -2 -2 -4q-2 -2 -2 -4v-3q-2 -4 -3 -18t-3 -18h170l-20 -111h-459l20 111h158zM928 1300l225 35q-10 2 -38 5t-58.5 7.5t-57 7.5t-36.5 5q-6 0 -15 4q-4 2 -8 2l25 137l18 6q2 0 44 2 t99.5 5.5t118 6.5t96.5 3q14 2 46 2h43l-19 -96l-254 -13l6 -4l238 -35l-17 -90l-262 -43l254 -10l-18 -98q-6 0 -24.5 1t-22.5 1q-25 0 -82.5 3t-122 7t-122.5 7t-81 5zM1114 1749l-14 -84h63l13 72h116l-12 -72h70l14 84h104l-34 -197h-459l35 197h104zM1047 1942l18 106 h459l-21 -113l-190 -55l-4 -6h16q10 0 33.5 -1t50.5 -1t49.5 -1t32.5 -1l-18 -105h-459l20 115q2 8 29 14.5t60.5 13.5t67.5 15t50 19h-194zM227 1274q-37 27 -73.5 58.5t-59.5 74.5l-2 2q-55 98 -55 205q0 59 16.5 115.5t48 105.5t76.5 87t101 60q6 4 31.5 11.5t35.5 11.5 q-12 0 14.5 2t65.5 3t79 -2t54 -15q90 -27 157.5 -96.5t94.5 -157.5q16 -45 19.5 -101.5t-7.5 -105.5q-35 -141 -139 -227t-252 -86q-53 0 -105.5 12t-99.5 43zM225 1462q8 -6 14.5 -14t16.5 -18q47 -43 115 -66q0 -2 2 -2h4q2 -2 4 -2h104q18 0 42 11t45.5 27.5t41 34 t31.5 29.5l4 2q2 0 4 2h4v-4h23v8l-6 7q-8 8 -10 12q-25 18 -54 18q0 -10 8.5 -14t8.5 -14h6q-10 -25 -34 -42.5t-52.5 -28.5t-59 -15t-55.5 -4h-43q-78 12 -141 65q-2 6 -7 10t-5 11q0 2 4 3t6 3q2 4 6 9t6 7l-6 -4q0 6 4 10v4q-16 0 -44 -13t-28 -32q10 0 17.5 4t13.5 4h2 l-14 -10h2h2q2 0 7 1t7 1h2h2zM651 1470q0 -8 -4 0h4zM233 1481q4 0 4.5 -2t-4.5 -2q-4 0 -4 2t4 2zM416 1554q4 -4 10 -4t6 4q2 2 2 11q0 10 -6 19t-16 9q0 2 -2 4t0 5l-68 67q0 4 -6 10q0 14 2 27.5t2 30.5q0 6 -1 21.5t-4 31.5t-8 28.5t-16 12.5q-10 0 -14 -14 q-4 -18 -8 -40t-4 -42h-2h-2q0 2 -1 2t-1 2q-8 10 -14.5 19t-16.5 20q-4 4 -6 9t-6 9l-9 12v2q8 -6 29 -14q6 -4 6 6l-2 2q-10 14 -23.5 19.5t-25.5 15.5q-4 4 -17.5 16.5t-17.5 16.5t-7 3t-7 -1q-18 0 -19 -16v-3l6.5 -13t2.5 -13l6 4q-2 -16 1 -31.5t5 -32.5q4 -10 14 -10 q6 0 8 7.5t2 11.5q2 -6 5.5 -18.5t8.5 -26t11 -22.5t16 -9q2 0 4 2q0 2 2.5 4t2.5 4q-4 20 -18.5 36.5t-14.5 37.5q6 0 17 -11.5t24.5 -24.5t24 -26.5t14.5 -19.5t5 -17.5t2 -21.5t5 -18.5t16 -8.5q8 0 10.5 5.5t6.5 9.5q8 -6 15 -16.5t13 -18.5h2q2 -4 9.5 -13.5 t15.5 -19.5t14.5 -17t6.5 -9q6 0 14 1t10 9v-4q0 -7 -14 -11zM385 1597q6 0 10 -7t4 -11l-2 -2q-4 0 -8 8t-4 12zM406 1581q4 0 4 -3t-4 -3t-4 3t4 3zM362 1626q4 0 4.5 -3t-4.5 -3q-2 0 -2 3t2 3zM553 1831q-12 0 -17.5 -16.5t-5.5 -26.5v-107q0 -10 6.5 -26.5t16.5 -16.5 t13 8.5t5 16.5q2 6 4.5 20.5t2.5 18.5v33v34q0 2 -2.5 17.5t-4.5 21.5t-5 14.5t-13 8.5zM209 1739v-6q-2 2 -2 6h2zM166 1778q2 0 2 -1t-2 -1q-2 -2 -2 0t2 2zM182 1790q2 0 2 -1t-2 -1t-2 1t2 1zM217 1790h-2v4zM178 1798q2 0 2 -2t-2 -2v4zM172 1835v-6l-2 6h2zM156 1853 v-12q-4 4 -4 12h4zM1610 -211q-37 27 -74 58.5t-59 74.5l-2 2q-55 98 -56 205q0 59 16.5 115.5t48.5 105.5t77 87t100 61q6 4 31.5 11t36.5 11q-12 0 14 2t65 3t79 -2t55 -15q90 -27 157.5 -96.5t93.5 -157.5q16 -45 19.5 -101.5t-6.5 -105.5q-35 -141 -139.5 -227 t-251.5 -86q-53 0 -105.5 12t-99.5 43zM1608 -23q8 -6 14 -14t16 -18q47 -43 115 -66q0 -2 2 -2h4q2 -2 4 -2h105q18 0 41.5 11.5t45 27.5t41 33.5t32.5 29.5l4 3q2 0 4 2h4v-5h22v9l-6 6q-8 8 -10 12q-25 18 -53 19q0 -10 8 -14.5t8 -14.5h6q-10 -25 -33.5 -42.5t-52 -28.5 t-59.5 -15t-55 -4h-43q-78 12 -142 65q-2 6 -7 10.5t-5 10.5q0 2 4 3t6 3q2 4 6 9t6 7l-6 -4q0 6 4 10v5q-16 0 -43.5 -13.5t-27.5 -32.5q10 0 17 4.5t13 4.5h2l-14 -11h2h2q2 0 7.5 1t7.5 1h2h2zM2034 -14q0 -8 -4 0h4zM1616 -4q4 0 4 -2t-4 -2t-4 2t4 2zM1798 70 q4 -4 10 -4t7 4q2 2 2 10q0 10 -6.5 19.5t-16.5 9.5q0 2 -2 4t0 4l-68 67q0 4 -6 11q0 14 2 27.5t2 29.5q0 6 -1 21.5t-4 32t-8 28.5t-15 12t-15 -14q-4 -18 -8 -40t-4 -42h-2h-2q0 2 -1 2t-1 2q-8 10 -14.5 19.5t-16.5 19.5q-4 4 -6 9t-6 9l-8 13v2q8 -6 28 -15q6 -4 7 6 l-3 2q-10 14 -23 19.5t-26 15.5q-4 4 -17 16.5t-17 16.5q-2 2 -15 2q-18 0 -18 -16v-2q2 -4 6 -13.5t2 -13.5l6 4q-2 -16 1 -31.5t5 -31.5q4 -10 15 -11q6 0 8 7.5t2 11.5q2 -6 5 -18.5t8 -25.5t11.5 -22.5t16.5 -9.5q2 0 4 2q0 2 2 4t2 4q-4 20 -18.5 37t-14.5 37 q6 0 17.5 -11t24.5 -24.5t23.5 -27t14.5 -19.5t5 -17.5t2 -21.5t5 -18t17 -8q8 0 10 5t6 9q8 -6 15.5 -16.5t13.5 -18.5h2q2 -4 9 -13t15.5 -19.5t14.5 -17.5t6 -9q6 0 14 1t10 9v-4q0 -6 -14 -10zM1767 113q6 0 10.5 -7.5t4.5 -11.5l-2 -2q-4 0 -8.5 8.5t-4.5 12.5z M1788 96q4 0 4 -3t-4 -3t-4 3t4 3zM1745 141q4 0 4 -3t-4 -3q-2 0 -2 3t2 3zM1935 346q-12 0 -17 -16.5t-5 -26.5v-106q0 -10 6 -26.5t16 -16.5t13.5 8t5.5 16q2 6 4 20.5t2 18.5v33v35q0 2 -2 17t-4 22q-2 6 -5.5 14t-13.5 8zM1591 254v-6q-2 2 -2 6h2zM1548 293q2 0 2 -1 t-2 -1q-2 -2 -2 0t2 2zM1565 305q2 0 2 -1t-2 -1t-2 1t2 1zM1599 305h-2v4zM1561 313q2 0 2 -2t-2 -2v4zM1554 350v-6l-2 6h2zM1538 369v-13q-4 4 -4 13h4z" />
<glyph unicode="&#x26;" horiz-adv-x="1214" d="M1063 643q29 -4 44 -21.5t15 -37.5q0 -31 -24 -52l-4 -4q-14 -16 -17.5 -22t-13.5 -23q-18 -31 -35.5 -62.5t-38.5 -64.5l-8 -12l-8 -12q43 -59 70.5 -111.5t46.5 -122.5q12 -41 22 -80q4 -8 8 -24q0 -2 2 -4q0 -2 2 -2h-2q10 -12 11 -35q0 -23 -16.5 -41t-45.5 -18 q-8 0 -24 4q-29 14 -43.5 46.5t-23.5 72.5t-17.5 79t-24.5 64q-12 18 -23.5 37.5t-23.5 38.5q-94 -90 -211 -148q-63 -33 -114.5 -49t-121.5 -33q-31 -6 -59 -6q-63 0 -121.5 22.5t-104.5 62.5t-74 95.5t-28 118.5v16q8 135 76 253t184 190q25 16 51.5 29.5t55.5 27.5 q-20 33 -39.5 66.5t-36.5 70.5q-18 39 -27.5 83t-9.5 91q0 59 13.5 119t40 113t64.5 97t85 73q82 49 148 49q61 0 106 -35t74.5 -91t44 -127t14.5 -140q0 -106 -31 -187q-35 -94 -108.5 -146t-161.5 -93q68 -86 145.5 -164t147.5 -160q14 27 31.5 61.5t37 65.5t45 54.5 t56.5 27.5zM203 215q41 -47 92 -66.5t106 -19.5t112.5 17.5t112 45t103.5 64.5t88 78q-43 53 -83 96t-93 102q-41 45 -77 88.5t-70 90.5q-78 -35 -145.5 -80t-108.5 -119q-8 -16 -19.5 -39.5t-21 -52.5t-16.5 -60.5t-7 -60.5q0 -25 6.5 -46.5t20.5 -37.5zM463 999 q12 -37 28.5 -70.5t36.5 -66.5q70 33 131.5 76t102.5 115q12 23 18 56.5t6 74.5q0 39 -6 79t-18 74.5t-30.5 62t-43.5 40.5q-29 12 -51 12q-47 0 -84 -39t-62.5 -92t-39 -107.5t-13.5 -85.5q2 -33 8.5 -64.5t16.5 -64.5z" />
<glyph unicode="'" horiz-adv-x="704" d="M662 1163q-23 -2 -81.5 -5t-123 -7t-121.5 -7t-82 -3q-4 0 -22.5 -1t-24.5 -1l-19 98l254 10l-262 43l-16 90l237 35l7 4l-254 13l-19 96h42t46 -2q37 0 97.5 -3t118 -6.5t99.5 -5.5t44 -2l18 -6l25 -137q-4 0 -9 -2q-8 -4 -14 -4q-10 -2 -37.5 -5t-58.5 -7.5t-57.5 -7.5 t-36.5 -5l225 -35zM555 1749l35 -197h-459l-35 197h105l14 -84h70l-13 72h117l12 -72h64l-14 84h104zM324 1942q16 -10 50 -18.5t67.5 -15.5t60 -13.5t28.5 -14.5l21 -115h-459l-18 105q8 0 31.5 1t50 1t50 1t34.5 1h16l-4 6l-191 55l-20 113h459l18 -106h-194z" />
<glyph unicode="(" horiz-adv-x="462" d="M315 1454q25 27 54 27q23 0 40 -16.5t17 -43.5q0 -20 -12 -41q-18 -29 -40 -54.5t-38 -55.5q-41 -78 -67.5 -175.5t-43 -204t-23.5 -219t-7 -222.5q0 -117 6 -224.5t16 -199.5q4 -43 18.5 -84t31 -82t29.5 -82t17 -86q-8 -29 -25.5 -42.5t-37.5 -13.5q-18 0 -35.5 12.5 t-24.5 41.5q-2 41 -15 79.5t-29.5 76.5t-31 77t-18.5 80q-8 72 -13 174.5t-5 220.5q0 129 7 265.5t25.5 263.5t48 233.5t72.5 173.5q23 31 43.5 60.5t40.5 60.5z" />
<glyph unicode=")" horiz-adv-x="604" d="M117 1403q-14 20 -15 43q0 25 17.5 41t42.5 16q29 0 51 -22q27 -27 54.5 -51.5t47.5 -53.5q49 -70 84 -156.5t56.5 -185t31 -202t9.5 -207.5q0 -143 -15.5 -277.5t-38.5 -243.5q-12 -53 -32.5 -101t-43 -96t-41 -97.5t-24.5 -102.5q-8 -29 -25.5 -42t-37.5 -13 q-23 0 -40.5 16.5t-17.5 48.5v9q6 55 24.5 104t40 96t43 95.5t34.5 101.5q23 102 38 231t15 269q0 94 -8.5 189t-26.5 184t-49 167t-76 140q-20 29 -46.5 52t-51.5 48z" />
<glyph unicode="*" horiz-adv-x="1044" d="M244 1395q-2 6 -3 11t-1 11q0 29 18 45.5t43 16.5q29 0 51 -23q43 -78 87 -151.5t89 -149.5q31 61 62 120.5t63 108.5q25 27 54 27q23 0 40 -16.5t17 -42.5q0 -20 -12 -41q-35 -53 -65 -111.5t-60 -120.5q80 -2 159.5 -2h161.5q31 -4 46.5 -21.5t15.5 -39.5 q0 -23 -17.5 -42.5t-52.5 -19.5h-150.5t-150.5 2q41 -74 76 -148.5t67 -150.5v-12q0 -29 -18.5 -46t-40.5 -17q-33 0 -57 32q-31 72 -64 142.5t-70 140.5q-43 -76 -92 -142.5t-110 -115.5q-23 -16 -47 -16q-25 0 -41.5 16t-16.5 39q0 27 21 49q53 43 97 102.5t85 131.5 q-78 0 -155.5 1t-155.5 1q-31 2 -47.5 19t-16.5 40q0 20 14.5 38.5t43.5 24.5q80 0 159.5 -1t157.5 -1q-47 78 -93 155t-91 157z" />
<glyph unicode="+" horiz-adv-x="1191" d="M57 485q-27 10 -38 26.5t-11 35.5q0 20 14.5 37.5t43.5 23.5q121 -2 239.5 -4t241.5 -6q-4 123 -6 245t-2 244q4 33 22.5 49.5t40.5 16.5q23 0 39 -15.5t21 -47.5q0 -125 2 -248t6 -246q211 -6 422 -6q14 6 30 6q25 0 41.5 -16.5t16.5 -40.5q0 -20 -13 -41 q-20 -20 -53 -26.5t-67 -6.5q-35 0 -66 3t-53 3q-66 0 -128.5 1t-125.5 3q4 -135 6 -267t4 -267q-8 -29 -25.5 -42.5t-37.5 -13.5q-18 0 -36 12.5t-24 41.5q-2 135 -4 269t-6 269q-125 4 -248 5t-246 3z" />
<glyph unicode="," horiz-adv-x="749" d="M45 -88l225 35q-10 2 -37.5 5t-58.5 7t-57.5 7t-36.5 5q-6 0 -14 4q-4 2 -9 2l25 138l18 6q2 0 44 2t99.5 5t118 6t97.5 3q14 2 46 2h42l-19 -96l-254 -12l7 -4l237 -35l-16 -90l-262 -43l254 -11l-19 -98q-6 0 -24.5 1t-22.5 1q-25 0 -82 3t-121.5 7.5t-123 7.5t-81.5 5 zM231 360l-14 -84h64l12 72h117l-13 -72h70l14 84h105l-35 -196h-459l35 196h104zM164 553l18 106h459l-20 -112l-191 -55l-4 -7h16q10 0 34 -1t50.5 -1t49 -1t32.5 -1l-18 -104h-459l21 115q2 8 28.5 14t60 13t67.5 15.5t50 18.5h-194z" />
<glyph unicode="-" horiz-adv-x="1034" d="M1071 2017v-2017h-1130l2 2019z" />
<glyph unicode="." horiz-adv-x="749" d="M205 41q-31 23 -60.5 48.5t-48.5 60.5l-2 2q-45 78 -45 165q0 96 53.5 181.5t143.5 119.5q4 2 24.5 8.5t30.5 8.5q-10 0 11.5 2t54 3t64.5 -2t44 -11q72 -23 127 -79t78 -128q14 -37 16 -82t-8 -86q-27 -117 -113 -186.5t-204 -69.5q-43 0 -86 10t-80 35zM203 195 q6 -4 11 -11.5t13 -15.5q41 -39 95 -53l8 -4h84q16 0 34.5 9t37 22.5t34 27.5t25.5 25l2 2h4h4v-2h18v6l-14 14q-20 16 -43 16q0 -8 6 -12t6 -12h7q-8 -20 -28 -34.5t-43.5 -23t-48 -11.5t-44.5 -3h-35q-63 8 -115 53q-2 4 -6 7.5t-4 9.5q0 2 3 2t5 2q4 8 10 14l-6 -4 q0 4 4 8v4q-12 0 -34.5 -10t-22.5 -26q6 0 13 3t12 3h2l-13 -8h2h2h5q2 0 3 1t3 1h2h2zM549 201q0 -4 -1 -4t-1 4h2zM209 209q4 0 4 -1t-4 -1t-4 1t4 1zM358 268q2 -2 9 -2h2l2 2t2 11q0 8 -5.5 15t-13.5 7q0 2 -2 3t0 3l-55 55q0 4 -4 9q0 10 1 22.5t1 24.5v16t-2 25.5 t-7 24t-14 10.5q-8 0 -12 -11q-4 -16 -7 -33.5t-3 -33.5h-2q0 2 -1 2t-1 2q-6 8 -11.5 15t-13.5 16q-4 4 -5 7t-5 7t-6 10v2q6 -4 22 -12q6 0 6 6l-2 2q-8 10 -19 14.5t-22 14.5q-2 2 -13 12t-15 14h-10q-6 0 -11.5 -1t-5.5 -11v-2l5 -10t3 -10l4 2q-2 -14 1.5 -26.5 t3.5 -25.5q4 -8 12 -8q4 0 6 6.5t2 8.5q2 -4 5 -14.5t6 -20.5t8.5 -18.5t13.5 -8.5q2 0 4 2q0 2 2 3t2 3q-4 16 -15.5 29.5t-11.5 30.5q4 0 13.5 -8.5t19.5 -19.5t19.5 -22.5t11.5 -15.5q4 -6 5 -14t2 -17.5t4 -15.5t13 -6q6 0 7.5 4t5.5 8q12 -12 24 -28h2q4 -8 19.5 -27 t15.5 -23q6 0 12.5 1t8.5 8v-2q-1 -7 -11 -11zM332 305q6 0 9 -6t3 -10l-2 -2q-4 0 -7 7t-3 11zM348 291q4 0 4 -2t-4 -2q-2 0 -2 2t2 2zM313 328q4 0 4 -3t-4 -3v6zM469 494q-10 0 -14 -13.5t-4 -21.5v-86q0 -8 5 -21.5t13 -13.5t11 7t3 13q2 4 4 15.5t2 15.5v27v28 q0 2 -2 14.5t-4 16.5q0 6 -3 12.5t-11 6.5zM188 414v6v-6zM154 451q2 0 2 -1t-2 -1t-2 1t2 1zM168 461q2 0 2 -1t-2 -1t-2 1t2 1zM197 461h-2v4zM164 467q2 0 2 -1t-2 -1v2zM160 498v-4l-2 4h2zM145 512v-10q-2 4 -2 10h2z" />
<glyph unicode="/" horiz-adv-x="909" d="M242 -133l-199 37l18 90l17 6q8 2 32.5 5t52 7t51.5 7.5t32 3.5q4 2 13 3t13 5l-198 30l18 111l443 -86l-19 -100l-272 -39l258 -39l-19 -105l-471 -73l19 102q0 2 11 3t19 5q10 0 36 3t54.5 7.5t54 7.5t36.5 5v4zM123 334l471 78l-19 -103q-2 -6 -11 -8t-20.5 -2 t-20.5 -2t-11 -10l-10 -56l57 -10l-20 -110l-441 94zM264 268q27 -16 66 -18t73 -2l9 37q-35 0 -77 -6.5t-71 -10.5zM276 616l-10 -61l6 -10h346l-20 -113h-354l-13 -63h-102l43 247h104zM186 762q0 2 3.5 13t7.5 23.5t7 21.5t7 9h108q-8 -10 -10 -19t-4 -19 q-4 -25 6.5 -38.5t28.5 -20.5t39.5 -9t40.5 -2q18 0 39.5 2t42 9t36 20.5t19.5 38.5q2 12 0 23t2 24h20.5t20.5 -4q8 0 19.5 -1.5t21.5 -1.5q10 -2 23 -2l4 -18l-19 -90q-2 -2 -2 -4q-6 -6 -4 -6q-49 -61 -111.5 -82t-130.5 -21q-35 0 -74.5 7.5t-73.5 24.5t-54.5 47 t-12.5 75zM393 965q2 4 6 18t4 18q-2 0 -2 3v4q-2 2 -2 4h-155l20 110h459l-21 -110h-167q-2 -2 -3 -4q-2 -2 -2 -4v-3q-2 -4 -3 -18t-3 -18h170l-20 -111h-459l21 111h157zM297 1300l225 35q-10 2 -37.5 5t-58.5 7.5t-57.5 7.5t-36.5 5q-6 0 -15 4q-4 2 -8 2l25 137l18 6 q2 0 44 2t99.5 5.5t118 6.5t97.5 3q14 2 45.5 2h42.5l-19 -96l-254 -13l6 -4l238 -35l-16 -90l-262 -43l253 -10l-18 -98q-6 0 -24.5 1t-22.5 1q-25 0 -82 3t-121.5 7t-123 7t-81.5 5zM483 1749l-14 -84h63l13 72h117l-13 -72h70l14 84h105l-35 -197h-459l35 197h104z M416 1942l18 106h459l-21 -113l-190 -55l-4 -6h16q10 0 34 -1t50.5 -1t49 -1t32.5 -1l-18 -105h-459l20 115q2 8 29 14.5t60.5 13.5t67.5 15t50 19h-194z" />
<glyph unicode="0" />
<glyph unicode="1" />
<glyph unicode="2" />
<glyph unicode="3" />
<glyph unicode="4" />
<glyph unicode="5" />
<glyph unicode="6" />
<glyph unicode="7" />
<glyph unicode="8" />
<glyph unicode="9" />
<glyph unicode=":" horiz-adv-x="749" d="M209 737q-31 23 -60.5 48.5t-48.5 60.5l-2 2q-45 78 -45 166q0 96 53.5 181t143.5 120q4 2 24.5 8t30.5 8q-10 0 11.5 2t54 3t64.5 -2t44 -11q72 -23 127.5 -79t77.5 -128q14 -37 16 -82t-8 -86q-27 -117 -112.5 -186.5t-204.5 -69.5q-43 0 -86 10t-80 35zM207 891 q6 -4 11 -11.5t13 -15.5q41 -39 95 -53l8 -4h84q16 0 34.5 9t37 22.5t34 28t25.5 24.5l2 2h4h4v-2h19v6l-15 14q-20 16 -43 17q0 -8 6 -12.5t6 -12.5h7q-8 -20 -27.5 -34.5t-43.5 -22.5t-48.5 -11.5t-44.5 -3.5h-35q-63 8 -115 54q-2 4 -6 7t-4 9q0 2 3 2t5 2q4 8 10 15 l-6 -5q0 4 4 9v4q-12 0 -34.5 -10.5t-22.5 -26.5q6 0 13.5 3t11.5 3h2l-13 -8h2h3h4q2 0 3 1t3 1h2h2zM553 897q0 -4 -1 -4t-1 4h2zM213 905q4 0 4 -1t-4 -1t-4 1t4 1zM362 965q2 -2 9 -2h2l2 2t2 10t-5 15t-14 7q0 2 -2 3t0 4l-55 55q0 4 -4 8q0 10 1 22.5t1 24.5v16.5 t-2 25.5t-7 23.5t-14 10.5q-8 0 -12 -10q-4 -16 -7 -34t-3 -34h-2q0 2 -1 2t-1 2q-6 8 -11.5 15.5t-13.5 15.5q-4 4 -5 7t-5 7t-6 10v3q6 -4 22 -13q6 0 7 6l-2 2q-8 10 -19.5 14.5t-21.5 14.5q-2 2 -13.5 12.5t-15.5 14.5h-10q-6 0 -11.5 -1t-5.5 -12v-2l5 -10t3 -10l5 2 q-2 -14 1 -26.5t3 -24.5q4 -8 12 -8q4 0 6 6t2 8q2 -4 5 -14.5t6 -20.5t8.5 -18.5t13.5 -8.5q2 0 4 2q0 2 2 3.5t2 3.5q-4 16 -15.5 29.5t-11.5 29.5q4 0 13.5 -8t19.5 -19.5t19.5 -22.5t11.5 -16q4 -6 5 -14t2 -17t4 -15.5t14 -6.5q6 0 7 4t5 9q12 -12 24 -29h2 q4 -8 19.5 -26.5t15.5 -22.5q6 0 12.5 1t8.5 7v-2q-1 -6 -11 -10zM336 1001q6 0 9 -6t3 -10l-2 -2q-4 0 -7 7t-3 11zM352 987q4 0 4 -2t-4 -2q-2 0 -2 2t2 2zM317 1024q4 0 4.5 -3t-4.5 -3v6zM473 1190q-10 0 -14 -13.5t-4 -21.5v-86q0 -8 5 -21.5t13 -13.5t11 7.5t3 13.5 q2 4 4.5 15t2.5 15v27v29q0 2 -2.5 14t-4.5 16q0 6 -3 12.5t-11 6.5zM193 1110v6v-6zM158 1147q2 0 2 -1t-2 -1t-2 1t2 1zM172 1157q2 0 2 -1t-2 -1t-2 1t2 1zM201 1157h-2v4zM168 1163q2 0 2 -1t-2 -1v2zM164 1194v-4l-2 4h2zM150 1208v-10q-2 4 -3 10h3zM219 45 q-31 23 -60.5 48.5t-47.5 60.5l-2 2q-45 78 -46 166q0 96 53.5 181t143.5 120q4 2 24.5 8t30.5 8q-10 0 11.5 2t54.5 3t64.5 -2t43.5 -11q72 -23 127.5 -79t77.5 -128q14 -37 16.5 -82t-8.5 -86q-27 -117 -112.5 -186.5t-204.5 -69.5q-43 0 -86 10t-80 35zM217 199 q6 -4 11 -11.5t14 -15.5q41 -39 94 -53l8 -4h84q16 0 34.5 9t37 22.5t34 27.5t25.5 25l2 2h4h4v-2h19v6l-15 14q-20 16 -43 17q0 -8 6.5 -12.5t6.5 -12.5h6q-8 -20 -27.5 -34.5t-43 -23t-48 -11.5t-45.5 -3h-35q-63 8 -114 54q-2 4 -6.5 7t-4.5 9q0 2 3 2t5 2q4 8 11 14 l-6 -4q0 4 4 8v5q-12 0 -35 -10.5t-23 -26.5q6 0 13.5 3t11.5 3h2l-12 -8h2h2h4q2 0 3 1t3 1h2h2zM563 205q0 -4 -1 -4t-1 4h2zM223 213q4 0 4 -1t-4 -1t-4 1t4 1zM373 272q2 -2 8 -2h2l2 2t2 11q0 8 -5 15t-13 7q0 2 -2 3t0 3l-56 56q0 4 -4 8q0 10 1 22.5t1 24.5v16.5 t-2 25.5t-7 23.5t-13 10.5t-13 -11q-4 -16 -7 -33.5t-3 -33.5h-2q0 2 -1 2t-1 2q-6 8 -11 15t-13 16q-4 4 -5.5 7t-5.5 7t-6 10v2q6 -4 23 -12q6 0 6 6l-2 2q-8 10 -19.5 14.5t-21.5 14.5q-2 2 -13.5 12t-15.5 14h-10q-6 0 -11 -1t-5 -11v-2l5 -10t3 -10l4 2q-2 -14 1 -26.5 t3 -24.5q4 -8 12 -9q4 0 6 6.5t2 8.5q2 -4 5.5 -14.5t6.5 -20.5t8 -18.5t13 -8.5q2 0 4 2q0 2 2 3t2 3q-4 16 -15 29.5t-11 30.5q4 0 13 -8.5t19.5 -19.5t19.5 -22.5t11 -15.5q4 -6 5 -14t2 -17.5t4.5 -15.5t13.5 -6q6 0 7 4t5 8q12 -12 25 -28h2q4 -8 19 -26.5t15 -23.5 q6 0 12.5 1.5t8.5 7.5v-2q0 -7 -10 -11zM346 309q6 0 9 -6t3 -10l-2 -2q-4 0 -7 7t-3 11zM362 295q4 0 4.5 -2t-4.5 -2q-2 0 -2 2t2 2zM328 332q4 0 4 -3t-4 -3v6zM483 498q-10 0 -14 -13.5t-4 -21.5v-86q0 -8 5 -21.5t13 -13.5t11.5 7t3.5 13q2 4 4 15.5t2 15.5v27v29 q0 2 -2 14t-4 16q0 6 -3.5 12.5t-11.5 6.5zM203 418v6v-6zM168 455q2 0 2 -1t-2 -1t-2 1t2 1zM182 465q2 0 2 -1t-2 -1t-2 1t2 1zM211 465h-2v4zM178 471q2 0 2 -1t-2 -1v2zM174 502v-4l-2 4h2zM160 516v-10q-2 4 -2 10h2z" />
<glyph unicode=";" horiz-adv-x="749" d="M209 737q-31 23 -60.5 48.5t-48.5 60.5l-2 2q-45 78 -45 166q0 96 53.5 181t143.5 120q4 2 24.5 8t30.5 8q-10 0 11.5 2t54 3t64.5 -2t44 -11q72 -23 127.5 -79t77.5 -128q14 -37 16 -82t-8 -86q-27 -117 -112.5 -186.5t-204.5 -69.5q-43 0 -86 10t-80 35zM207 891 q6 -4 11 -11.5t13 -15.5q41 -39 95 -53l8 -4h84q16 0 34.5 9t37 22.5t34 28t25.5 24.5l2 2h4h4v-2h19v6l-15 14q-20 16 -43 17q0 -8 6 -12.5t6 -12.5h7q-8 -20 -27.5 -34.5t-43.5 -22.5t-48.5 -11.5t-44.5 -3.5h-35q-63 8 -115 54q-2 4 -6 7t-4 9q0 2 3 2t5 2q4 8 10 15 l-6 -5q0 4 4 9v4q-12 0 -34.5 -10.5t-22.5 -26.5q6 0 13.5 3t11.5 3h2l-13 -8h2h3h4q2 0 3 1t3 1h2h2zM553 897q0 -4 -1 -4t-1 4h2zM213 905q4 0 4 -1t-4 -1t-4 1t4 1zM362 965q2 -2 9 -2h2l2 2t2 10t-5 15t-14 7q0 2 -2 3t0 4l-55 55q0 4 -4 8q0 10 1 22.5t1 24.5v16.5 t-2 25.5t-7 23.5t-14 10.5q-8 0 -12 -10q-4 -16 -7 -34t-3 -34h-2q0 2 -1 2t-1 2q-6 8 -11.5 15.5t-13.5 15.5q-4 4 -5 7t-5 7t-6 10v3q6 -4 22 -13q6 0 7 6l-2 2q-8 10 -19.5 14.5t-21.5 14.5q-2 2 -13.5 12.5t-15.5 14.5h-10q-6 0 -11.5 -1t-5.5 -12v-2l5 -10t3 -10l5 2 q-2 -14 1 -26.5t3 -24.5q4 -8 12 -8q4 0 6 6t2 8q2 -4 5 -14.5t6 -20.5t8.5 -18.5t13.5 -8.5q2 0 4 2q0 2 2 3.5t2 3.5q-4 16 -15.5 29.5t-11.5 29.5q4 0 13.5 -8t19.5 -19.5t19.5 -22.5t11.5 -16q4 -6 5 -14t2 -17t4 -15.5t14 -6.5q6 0 7 4t5 9q12 -12 24 -29h2 q4 -8 19.5 -26.5t15.5 -22.5q6 0 12.5 1t8.5 7v-2q-1 -6 -11 -10zM336 1001q6 0 9 -6t3 -10l-2 -2q-4 0 -7 7t-3 11zM352 987q4 0 4 -2t-4 -2q-2 0 -2 2t2 2zM317 1024q4 0 4.5 -3t-4.5 -3v6zM473 1190q-10 0 -14 -13.5t-4 -21.5v-86q0 -8 5 -21.5t13 -13.5t11 7.5t3 13.5 q2 4 4.5 15t2.5 15v27v29q0 2 -2.5 14t-4.5 16q0 6 -3 12.5t-11 6.5zM193 1110v6v-6zM158 1147q2 0 2 -1t-2 -1t-2 1t2 1zM172 1157q2 0 2 -1t-2 -1t-2 1t2 1zM201 1157h-2v4zM168 1163q2 0 2 -1t-2 -1v2zM164 1194v-4l-2 4h2zM150 1208v-10q-2 4 -3 10h3zM45 -88l225 35 q-10 2 -37.5 5t-58.5 7t-57.5 7t-36.5 5q-6 0 -14 4q-4 2 -9 2l25 138l18 6q2 0 44 2t99.5 5t118 6t97.5 3q14 2 46 2h42l-19 -96l-254 -12l7 -4l237 -35l-16 -90l-262 -43l254 -11l-19 -98q-6 0 -24.5 1t-22.5 1q-25 0 -82 3t-121.5 7.5t-123 7.5t-81.5 5zM231 360l-14 -84 h64l12 72h117l-13 -72h70l14 84h105l-35 -196h-459l35 196h104zM164 553l18 106h459l-20 -112l-191 -55l-4 -7h16q10 0 34 -1t50.5 -1t49 -1t32.5 -1l-18 -104h-459l21 115q2 8 28.5 14t60 13t67.5 15.5t50 18.5h-194z" />
<glyph unicode="&#x3c;" horiz-adv-x="1220" d="M987 1090q6 2 19 2q29 0 45 -17.5t16 -40.5q0 -33 -31 -55q-63 -29 -115.5 -74t-100.5 -94t-98 -97t-112 -83q-43 -25 -88 -47.5t-88 -48.5q-4 -2 -8 -4.5t-12 -6.5q51 -43 138 -87t179 -90t176 -93t129 -98q8 -18 8 -33q0 -16 -4 -27q-4 -12 -8 -18q-20 -35 -55 -35 q-23 0 -39 15.5t-20 41.5q-53 49 -119 81t-129 65q-49 27 -99.5 50t-99.5 50q-16 10 -49 30.5t-49 31.5q-63 41 -90 71.5t-27 55.5q0 33 39 58t100 60q74 41 143.5 79t129.5 97q39 37 74.5 74t73.5 72t80 63.5t91 51.5z" />
<glyph unicode="=" horiz-adv-x="2433" d="M174 555l37 207h90l6 -17q2 -10 5 -33.5t7.5 -50t7.5 -50t3 -31.5q2 -4 3 -13.5t5 -11.5l31 207h110l-86 -459h-100l-39 264l-39 -264l-104 2l-74 459l102 -2q2 0 3 -11.5t5 -17.5q0 -10 3.5 -35.5t7.5 -53.5t7 -53.5t5 -35.5h4zM641 762l78 -459h-103q-6 0 -8 9.5 t-2 20.5t-2 20t-10 9h-55l-11 -59h-110l94 459h129zM575 606q-16 -29 -18 -68.5t-2 -74.5h37q0 35 -6.5 74.5t-10.5 68.5zM924 655h-62l-10 -8v-346l-113 2v354h-63v105l248 -2v-105zM1069 772q2 0 13.5 -1t23.5 -2t21.5 -4t9.5 -5v-109q-10 6 -19.5 7t-19.5 1 q-25 0 -38 -13t-20.5 -33.5t-9.5 -42t-2 -40.5q0 -18 2 -39.5t9.5 -40t20.5 -30.5t38 -12q12 0 23.5 3t23.5 3v-20.5t-4 -20.5q0 -10 -1 -20.5t-1 -20.5q-2 -12 -2 -25l-19 -6h-90q-2 0 -4 2q-6 0 -6 4q-61 37 -82 95.5t-21 125.5q0 33 7.5 76t25 80t47 62.5t74.5 25.5z M1272 602q4 0 18.5 -2t18.5 0h2q2 0 4 2q2 0 4 2v156h111v-459h-111v168q-2 0 -4 2h-4q-2 0 -2 2q-4 0 -18.5 -1t-18.5 -1v-170h-111v459h111v-158zM1608 758l34 -219q2 10 5.5 38.5t7.5 59.5t7 59.5t5 38.5q0 6 4 15q2 4 2 8h137l7 -17q0 -2 2 -44t5 -98t6 -116.5t3 -97.5 q0 -6 1 -18.5t1 -25.5v-25.5v-16.5h-96l-13 252l-4 -6l-34 -246h-91l-43 256l-10 -254h-98q0 6 1 24.5t1 22.5q0 25 3 83t7 124t7 124t5 81zM2056 653h-84v-63h72v-117h-72v-70h84v-104h-196v459h196v-105zM2249 758l106 -2v-459l-112 2l-56 180l-6 4v-16q0 -10 -1 -33.5 t-1 -50.5t-1 -51.5t-1 -32.5h-104v459h114q8 0 14.5 -25.5t13.5 -58.5t15 -64.5t19 -46.5v195zM190 1346l37 206h90l7 -16q2 -10 5 -33.5t7 -50.5t7 -50.5t3 -31.5q2 -4 3 -13t5 -11l31 206h111l-86 -458h-101l-39 264l-39 -264l-104 2l-74 458l103 -2q2 0 3 -11t5 -17 q0 -10 3 -36t7 -53.5t7 -53t5 -35.5h4zM657 1552l78 -458h-102q-6 0 -8 9t-2 20.5t-2.5 20.5t-10.5 9h-55l-10 -59h-111l94 458h129zM592 1397q-16 -29 -18.5 -69t-2.5 -75h37q0 35 -6 75t-10 69zM940 1446h-61l-11 -8v-346l-112 2v354h-64v104l248 -2v-104zM1085 1563 q2 0 13.5 -1t24 -2t21.5 -4.5t9 -5.5v-108q-10 6 -19.5 7t-19.5 1q-25 0 -38 -13.5t-20 -34t-9.5 -42t-2.5 -39.5t2.5 -39.5t9.5 -40t20.5 -31t37.5 -12.5q12 0 23.5 3t23.5 3v-20.5t-4 -20.5q0 -10 -1 -20t-1 -21q-2 -12 -2 -24l-18 -6h-91q-2 0 -4 2q-6 0 -6 4 q-61 37 -81.5 95t-20.5 126q0 33 7 76t24.5 79.5t47 62.5t74.5 26zM1288 1393q4 0 18.5 -2t18.5 0h2q2 0 4 2q2 0 4 2v155h111v-458h-111v168q-2 0 -4 2h-4q-2 0 -2 2q-4 0 -18.5 -1t-18.5 -1v-170h-110v458h110v-157zM1624 1548l35 -219q2 10 5 39t7 59.5t7 59.5t5 39 q0 6 5 14q2 4 2 8h137l6 -16q0 -2 2 -44t5 -98.5t6 -117t3 -96.5q0 -6 1 -18.5t1 -26v-25.5v-16h-96l-12 251l-4 -6l-35 -245h-90l-43 256l-10 -254h-99q0 6 1 24.5t1 22.5q0 25 3 83t7.5 123.5t7.5 124t5 80.5zM2073 1444h-84v-64h71v-116h-71v-70h84v-104h-197v458h197 v-104zM2265 1548l107 -2v-459l-113 3l-55 180l-6 4v-17q0 -10 -1.5 -33.5t-1.5 -50t-1 -51t-1 -32.5h-104v458h115q8 0 14 -25.5t13 -58t15.5 -64.5t18.5 -46v194z" />
<glyph unicode="&#x3e;" horiz-adv-x="1220" d="M57 952q-31 25 -30 56q0 23 16 41t43 18q16 0 37 -10q104 -68 207.5 -137.5t211 -128t222.5 -100.5t242 -52q23 -2 38 -16q29 0 44.5 -17.5t15.5 -40.5q0 -18 -11.5 -35.5t-35.5 -27.5q-29 -12 -53.5 -30.5t-49 -39t-48 -42t-50.5 -38.5q-170 -111 -344 -210t-358 -187 q-16 -6 -29 -6q-27 0 -43 18.5t-16 40.5q0 16 9 31.5t29 26.5q180 86 349.5 182t334.5 205q27 16 50.5 36.5t48.5 42.5q-117 23 -223.5 67t-208 101.5t-200 121.5t-198.5 130z" />
<glyph unicode="?" horiz-adv-x="831" d="M528 1294q-16 8 -41 9q-29 0 -63.5 -11.5t-68 -28t-63.5 -38t-50 -41.5q2 -6 3 -11.5t1 -11.5q0 -23 -17.5 -41t-50.5 -18q-37 10 -53 28.5t-16 43.5q0 47 41 88q27 29 66.5 58.5t83.5 53t92 37.5t95 14q45 0 85 -16t73 -53q31 -35 52.5 -87t23.5 -98v-18 q0 -84 -29.5 -144.5t-71.5 -113.5t-86.5 -108.5t-70.5 -129.5q-6 -16 -6 -36q0 -27 7 -58t15 -61.5t16.5 -60t10.5 -54.5q-8 -29 -25.5 -42t-38.5 -13q-18 0 -35.5 12t-23.5 41q-4 41 -10 74t-14.5 61.5t-13.5 55t-5 55.5q0 35 10 72.5t39 89.5q20 39 57 77.5t71 78.5 t59.5 84t25.5 93q0 8 -1 16.5t-3 18.5q-2 12 -7 31.5t-13.5 40t-21 38t-28.5 23.5zM379 113q6 23 21.5 34t33.5 13q16 8 39 8q35 0 62.5 -18.5t27.5 -53.5q0 -4 -1 -7t-1 -7q-6 -29 -24.5 -52.5t-47.5 -35.5q-14 -8 -27 -10t-24 -2q-35 0 -52 25.5t-17 58.5q0 22 10 47z" />
<glyph unicode="@" horiz-adv-x="1994" d="M518 287q-76 55 -149.5 119.5t-120.5 152.5l-2 2q-2 0 -4 2q-53 100 -82 202.5t-29 215.5q0 121 34 236.5t98.5 215t154.5 177.5t205 123q6 2 24.5 8t40 13t42 13.5t30.5 8.5q-16 0 5 3t63 5t97.5 3t108.5 -1t97.5 -10.5t64.5 -24.5q90 -27 172 -77t147.5 -117.5 t114.5 -149.5t76 -172q35 -92 41 -207t-16 -213q-35 -141 -107 -259t-175 -203t-233.5 -131t-279.5 -46q-111 0 -216.5 26t-201.5 85zM514 674q16 -14 29.5 -32.5t31.5 -35.5q102 -94 234 -135l12 -4q4 -2 10 -2h211q39 0 86.5 23.5t92.5 56.5t83.5 68.5t63.5 60.5q2 2 9 4 t9 4l7 -2v-6h49v14q0 2 -14.5 15.5t-22.5 21.5q-49 39 -107 39q0 -20 16.5 -30.5t16.5 -26.5h12q-20 -53 -68 -88t-106.5 -57.5t-121 -32t-111.5 -9.5h-16.5t-25.5 1t-25.5 1h-18.5q-84 12 -154.5 46t-134.5 87q-4 12 -14 21.5t-10 19.5q0 4 8 7.5t12 7.5q2 4 10 16t13 16 l-13 -8q2 4 4 10.5t4 8.5v10q-16 0 -39.5 -7t-47 -19.5t-40 -30t-16.5 -35.5q18 0 32.5 8t31.5 8h4l-31 -20h4h4q2 2 14.5 4t14.5 2h4h4zM1380 688q0 -4 -2 -4t-4 4q0 2 3 2t3 -2zM530 711q6 0 6.5 -5.5t-6.5 -5.5q-4 0 -4 5.5t4 5.5zM901 858q8 -6 21 -6q14 0 14 6 q2 4 2 11.5v11.5q0 23 -12.5 40t-32.5 17q0 4 -4 9t0 9l-137 138q0 2 -4.5 8t-6.5 10v2q0 29 3.5 57.5t3.5 57.5q0 12 -1.5 43t-7.5 64.5t-17 59t-32 25.5q-25 0 -28 -26q-10 -41 -17.5 -84t-7.5 -84h-4h-4q0 2 -6 8q-16 20 -30.5 39.5t-31.5 40.5q-4 6 -12 16t-14 21 q-8 10 -17 24v6q12 -10 27.5 -17t29.5 -13q12 -4 13 12q0 2 -1 3t-1 3q-18 29 -46 38t-53 30q-4 4 -14 13t-21.5 20.5t-22.5 20.5t-15 13q-4 6 -11.5 6h-15.5q-16 0 -28.5 -6t-12.5 -28v-2q4 -8 13.5 -26.5t5.5 -29.5l12 6q-4 -33 3 -64.5t11 -64.5q4 -6 11.5 -12t15.5 -6 q12 0 16 15.5t4 21.5q6 -12 12.5 -39t15.5 -52.5t22.5 -45t33.5 -19.5l2 2l4 2q2 0 2 2q2 4 5.5 8.5t3.5 6.5q-4 20 -14.5 39.5t-23 38t-21.5 36t-9 37.5q12 0 36.5 -21.5t51.5 -50t49.5 -56t28.5 -38.5q8 -12 9 -34.5t4 -44t12.5 -38t31.5 -16.5q16 0 19.5 10.5t13.5 18.5 q16 -12 30.5 -33.5t26.5 -38.5h4q4 -10 19.5 -29.5t32 -39t30 -35t13.5 -17.5q12 0 28.5 2t20.5 21v-10q0 -10 -10.5 -14.5t-20.5 -8.5zM842 946q10 0 18 -14t10 -23q-2 0 -4 -2q-10 0 -17 16.5t-9 22.5h2zM883 915q4 0 4 -7t-4 -7q-6 0 -6 7t6 7zM795 1008q6 0 6 -6.5 t-6 -6.5q-4 0 -4 6.5t4 6.5zM1182 1421q-12 0 -21.5 -10t-14.5 -23.5t-8 -29t-3 -25.5v-215q0 -10 4 -24.5t10 -27.5t14 -23.5t19 -10.5q20 0 27.5 16.5t11.5 32.5q2 6 4 17.5t4 25t3 23.5t1 14v66v69q0 2 -1 12.5t-3 24t-4 25.5t-4 18q-4 14 -12.5 29.5t-26.5 15.5z M481 1235v-12q-6 2 -6 12h6zM395 1315q4 0 4 -3t-4 -3q-4 -2 -4 2t4 4zM426 1339q4 0 4 -3t-4 -3q-2 0 -2 3t2 3zM500 1339h-4v7zM420 1358q4 -2 4 -6t-4 -6q-2 -2 -2 6t2 6zM408 1432v-13l-7 13h7zM373 1468v-24q-6 4 -7 11t-1 13h8z" />
<glyph unicode="A" horiz-adv-x="1603" d="M1169 2011l428 -2011h-555q-2 0 -9 13.5t-7 23.5q-4 10 -9 38.5t-11.5 60.5t-10.5 59.5t-6 40.5h-362q-2 0 -8.5 -21.5t-10.5 -34.5q-2 -10 -7 -35.5t-11 -54.5t-11.5 -54.5t-7.5 -35.5h-561l484 2011h675zM717 688h207l-99 799q-4 -10 -10 -37t-8 -37 q-8 -51 -19.5 -123.5t-23.5 -151.5t-24.5 -156t-21.5 -138.5t-14 -99.5l-6 -37z" />
<glyph unicode="B" horiz-adv-x="1566" d="M903 2017q119 0 215 -51t163 -134t102.5 -187.5t35.5 -208.5q0 -154 -83 -251.5t-222 -160.5q178 -47 256 -160.5t78 -292.5q0 -92 -27.5 -192t-85 -185t-142.5 -139.5t-200 -54.5h-903v2017h813zM690 817q-14 0 -35.5 -4t-21.5 -31v-358q45 0 93 12.5t87 38t64.5 64.5 t25.5 94q0 43 -18.5 76.5t-49 58.5t-68.5 37t-77 12zM633 1266q0 -8 11 -19.5t18 -11.5q39 0 77.5 12.5t69.5 35t50.5 56t19.5 76.5q0 51 -22.5 85t-57.5 54.5t-79 29.5t-87 9v-327z" />
<glyph unicode="C" horiz-adv-x="1318" d="M61 985q0 199 49.5 383t154 325.5t265 226.5t383.5 85q12 0 54.5 -3t87.5 -11.5t80.5 -19.5t35.5 -25v-535q-10 0 -32.5 16.5t-55 37t-72.5 37t-83 16.5q-102 0 -167 -51.5t-102.5 -129t-52 -169t-14.5 -173.5q0 -80 15.5 -166t52 -156.5t99 -116.5t159.5 -46 q82 0 140 24.5t124 77.5h12v-12q-2 -31 -6 -105.5t-10.5 -159.5t-11.5 -160l-7 -105q0 -2 -4 -6.5t-6 -6.5q-147 -57 -299 -57q-211 0 -360.5 85t-244.5 223t-139.5 315.5t-44.5 361.5z" />
<glyph unicode="D" horiz-adv-x="1566" d="M90 2017q16 0 57 1t86.5 1t86 1t57.5 1q254 0 457.5 -53t346 -173t218.5 -313.5t76 -471.5q0 -98 -16.5 -211t-52.5 -225.5t-91 -216t-132 -183.5t-176.5 -127t-224.5 -47h-692v2017zM633 481q61 2 105 28t75 66.5t49.5 93t28.5 107.5t13 107.5t3 95.5q0 55 -7 144 t-31.5 175t-74 148.5t-132.5 62.5q-4 0 -15.5 -2t-13.5 -2v-1024z" />
<glyph unicode="E" horiz-adv-x="1177" d="M1087 2011v-461h-454v-290h399v-472h-399v-307h454v-481h-997v2011h997z" />
<glyph unicode="F" horiz-adv-x="1144" d="M1055 2017v-467h-393v-301h362v-450h-377v-799h-557v2017h965z" />
<glyph unicode="G" horiz-adv-x="1568" d="M47 983q0 119 15.5 243t50 239.5t91 217t139.5 176t193.5 118.5t254.5 44q119 0 222 -34.5t189 -98t152.5 -152.5t111.5 -196l-491 -182h-6q-10 0 -20.5 28.5t-29 63.5t-48 63.5t-76.5 28.5q-55 0 -93 -33.5t-62 -87t-35 -120t-15 -131t-4 -121v-91.5q0 -49 1 -133 t18.5 -163.5t57 -138t117.5 -58.5q55 0 91 27.5t55.5 69.5t27 91t7.5 92h-181v408h725q0 -127 -6 -262t-29.5 -264t-69.5 -244t-125 -201t-195.5 -136t-282.5 -50q-211 0 -354.5 85t-231.5 224t-126 316.5t-38 361.5z" />
<glyph unicode="H" horiz-adv-x="1540" d="M625 2011v-688h272v688h535v-2011h-535v797h-272v-797h-535v2011h535z" />
<glyph unicode="I" horiz-adv-x="722" d="M602 2017v-2017h-512v2017h512z" />
<glyph unicode="J" horiz-adv-x="1083" d="M59 569q29 0 53.5 -10t49 -22.5t50.5 -22.5t56 -10q18 0 46 9t53.5 26.5t44 39t18.5 46.5v1392h518v-1661q0 -94 -54 -161.5t-133 -110.5t-169 -63.5t-160 -20.5q-57 0 -95 -1t-69.5 1t-65.5 9t-83 24q-12 4 -36 14t-24 12v510v0z" />
<glyph unicode="K" horiz-adv-x="1687" d="M616 2017v-813q10 27 33 83t51.5 128t59.5 151t59.5 150.5t51 128t32.5 82.5q10 25 21 45q10 16 19 30.5t20 14.5h542v-28q-12 -31 -40.5 -94.5t-64.5 -143.5t-75 -168t-75 -169t-64.5 -144.5t-40.5 -93.5q-10 -25 -17.5 -41.5t-10.5 -32t-4 -31.5t-1 -39q0 -6 1 -20.5 t1 -18.5l453 -993h-574l-8 14q-8 13 -17.5 32.5t-18.5 39.5t-15 35q-12 29 -38 87t-56.5 132t-65.5 156t-66.5 156.5t-56 133t-35.5 86.5v-872h-526v2017h526z" />
<glyph unicode="L" horiz-adv-x="1114" d="M647 2017v-1550h377v-467h-934v2017h557z" />
<glyph unicode="M" horiz-adv-x="2320" d="M326 2011h686l159 -1026l187 1026h680l196 -2011h-567l-55 1178h-17l-219 -1178h-446l-187 1196l-73 -1196h-582z" />
<glyph unicode="N" horiz-adv-x="1613" d="M598 2011q4 0 9 -9t20.5 -45t43 -108.5t75 -198.5t117 -316.5t169.5 -463.5q0 139 -6 279.5t-14 282t-16.5 286t-10.5 293.5h518v-2011h-512l-411 1124v-28q0 -274 12 -545.5t12 -550.5h-514v2011h508z" />
<glyph unicode="O" horiz-adv-x="1636" d="M88 1012q0 115 17.5 234.5t55.5 232t96 211t141 172t191.5 116.5t246.5 43q205 0 348 -93t231 -240.5t128 -329.5t40 -361q0 -172 -42 -349t-131 -320.5t-230.5 -234.5t-339.5 -91q-207 0 -350.5 91t-232.5 235.5t-129 325t-40 358.5zM643 1012v-80t3 -106.5t13.5 -116 t32 -105.5t56 -76.5t88.5 -29.5q76 0 115.5 62.5t56 147.5t18.5 171t2 133v82t-3 108.5t-13.5 115.5t-32 104t-56 76t-87.5 30q-51 0 -85 -30t-55.5 -77t-33 -105.5t-15.5 -115.5t-4 -107v-81z" />
<glyph unicode="P" horiz-adv-x="1488" d="M92 2034q18 0 68.5 1t106 1t105.5 1t68 1q123 0 245 -10.5t231.5 -39t203.5 -77.5t164 -127t109 -188.5t39 -258.5q0 -188 -66 -314t-176.5 -206t-257 -121t-309.5 -59v-637h-531v2034zM639 1124q55 -2 96 14.5t68.5 46t41 70.5t13.5 88q0 45 -8 87.5t-27.5 76t-53.5 54 t-85 20.5q-4 0 -22.5 -1t-22.5 -1v-455z" />
<glyph unicode="Q" horiz-adv-x="1617" d="M924 2q-43 0 -82 -5t-82 -5q-137 0 -243.5 44t-187.5 117.5t-136.5 174t-90 213t-50 231.5t-15.5 234q0 174 38 353t126 324.5t229 237.5t348 92q137 0 244.5 -43t189.5 -117.5t138.5 -175t92.5 -212t52 -230.5t16 -231q0 -106 -10 -204t-34.5 -190t-64.5 -181t-97 -177 q18 -35 57 -80t79 -86t68.5 -70.5t22.5 -33.5l-12 -13l-398 -217q-8 -4 -30.5 29t-52 77t-59.5 86t-54 58h-2zM584 825q2 -37 11 -95t30.5 -112.5t56.5 -94.5t86 -40q55 0 90 36t56.5 86t31.5 104.5t15 91.5q0 92 1 185t-1 192q0 43 -10.5 100t-32 109.5t-57.5 88t-89 35.5 q-55 0 -91 -39.5t-57.5 -96t-29.5 -117t-10 -101.5v-332z" />
<glyph unicode="R" horiz-adv-x="1574" d="M92 2013q20 0 71.5 1t109 1t108.5 1t72 1q123 0 242.5 -6t227 -28.5t197.5 -65.5t156.5 -118t103.5 -185.5t37 -265.5q0 -170 -63.5 -288t-210.5 -218v-60l362 -782h-571q-2 0 -14.5 22.5t-16.5 36.5q-10 27 -32.5 83.5t-50 128t-59.5 149.5t-59.5 149.5t-50 128 t-33.5 84.5v-782h-526v2013zM633 1112q0 -6 11 -18.5t20 -12.5q49 0 89 24.5t67.5 61.5t42 82t14.5 88q0 111 -67 169.5t-177 58.5v-453z" />
<glyph unicode="S" horiz-adv-x="1144" d="M92 645q45 -41 77 -69.5t64.5 -46t70.5 -25.5t93 -8q6 0 20.5 1t32 1t32 1t18.5 1q39 20 50 35.5t11 48.5q0 29 -6 47t-27 41q-72 68 -135 126t-117.5 118.5t-100.5 128t-83 153.5q0 10 -1 34.5t-1 52.5t-1 52.5t-1 34.5q0 137 39 255t113.5 205t183 136t250.5 49 q8 0 36.5 -2t67.5 -5t82 -10t80 -16.5t60.5 -23.5t23.5 -33v-555q-37 35 -67.5 62.5t-62.5 47t-67.5 30t-85.5 10.5q-57 0 -93 -22.5t-36 -86.5q0 -10 1 -23.5t5 -17.5l377 -377q33 -33 51.5 -77t27.5 -91t11 -95t2 -87q0 -141 -45 -260t-126.5 -205t-199.5 -133t-261 -47 q-2 0 -30 1t-69 4t-87 8t-85 12.5t-65.5 15.5t-26.5 20v584v0z" />
<glyph unicode="T" horiz-adv-x="1232" d="M309 1550h-272v461h1159v-461h-289l-26 -28v-1522h-545v1522z" />
<glyph unicode="U" horiz-adv-x="1507" d="M641 2025v-1423q0 -25 15.5 -43t37 -28.5t44 -15.5t38.5 -5q14 0 36 1t43.5 7t36.5 18.5t15 36.5v1452h520v-1630q0 -4 -7 -20.5t-16 -34.5t-19.5 -36.5t-16.5 -27.5q-61 -78 -122.5 -130t-128 -82.5t-142.5 -44t-170 -13.5q-162 0 -293 45t-224 132t-144.5 215 t-51.5 292v1335h549z" />
<glyph unicode="V" horiz-adv-x="1656" d="M623 2023l186 -1255l10 14q16 139 40 305t52.5 333t60.5 324t64 279h588l-551 -2023h-557l-465 2023h572z" />
<glyph unicode="W" horiz-adv-x="2308" d="M-8 2011h538l168 -1159l19 -18l180 1177h473l213 -1243l166 1243h535l-408 -2011h-524l-201 1159l-16 55q-6 -43 -17.5 -130t-26 -197.5t-31 -233.5t-30.5 -233.5t-25.5 -198.5t-15.5 -131q-2 -10 -4 -25.5t-5 -30t-6 -24.5l-3 -10h-531z" />
<glyph unicode="X" horiz-adv-x="1683" d="M526 1034q-6 49 -33.5 127t-68.5 170t-88 191.5t-93 192.5t-83 172t-58 130h572q53 -119 92 -222t88 -198q12 33 31.5 92.5t41 124t42 121t37.5 82.5h587l-444 -977l485 -1040h-598q-18 29 -42.5 94.5t-51.5 140t-50.5 143t-37.5 103.5l-192 -481h-590q113 250 190.5 423 t127.5 286.5t78 178t41 96.5t15 40t2 10z" />
<glyph unicode="Y" horiz-adv-x="1624" d="M49 2021h555q14 -25 31.5 -69.5t36 -101t38 -117t38 -116.5t36 -101.5t31.5 -67.5l191 573h565q-23 -53 -59.5 -145t-82 -204.5t-93.5 -233.5t-93 -231.5t-82 -198.5t-59 -134v-874h-543v844z" />
<glyph unicode="Z" horiz-adv-x="1572" d="M721 1546h-539v465h1331l-698 -1560h598v-451h-1352z" />
<glyph unicode="[" horiz-adv-x="581" d="M127 244q6 268 15.5 532t15.5 533q-8 16 -8 26q0 37 40 58q47 14 96.5 23t98.5 9t97 -11t93 -36q23 -23 23 -49q0 -25 -17.5 -42t-45.5 -17q-8 0 -25 4q-55 29 -125 29q-27 0 -53.5 -4.5t-52.5 -10.5q-6 -262 -14.5 -521t-14.5 -521q-2 -61 -3 -129t-1 -135v-80t4 -76 q29 -4 58.5 -6t58.5 -2t58.5 1t57.5 1q31 -4 46.5 -21.5t15.5 -40.5t-17.5 -42t-52.5 -19q-29 0 -58.5 -1t-58.5 -1q-49 0 -98 5t-94 26q-16 12 -22.5 21t-10.5 28q-6 55 -8 111.5t-2 111.5q0 61 1 124t3 122z" />
<glyph unicode="\" horiz-adv-x="997" d="M719 -133l-215 37l-23 90l17 6q8 2 30.5 5t49 7t49 7.5t30.5 3.5q4 2 13.5 3t9.5 5l-213 30l-27 111l480 -86l22 -100l-254 -39l273 -39l24 -105l-442 -73l-23 102q-2 2 9.5 3t17.5 5q10 0 34.5 3t52.5 7.5t51.5 7.5t33.5 5v4zM403 334l441 78l24 -103q2 -6 -7 -8 t-20.5 -2t-20.5 -2t-7 -10l14 -56l62 -10l24 -110l-479 94zM573 268q35 -16 75 -18t75 -2l-8 37q-35 0 -74 -6.5t-68 -10.5zM442 616l15 -61l10 -10h346l27 -113h-355l15 -63h-105l-57 247h104zM293 762q0 2 -2 13t-4 23.5t-2 21.5t4 9h108q-6 -16 2 -38q6 -25 22.5 -38.5 t37 -20.5t43 -9t41.5 -2q18 0 38.5 2t38 9t27.5 20.5t4 38.5q-4 12 -9 23t-9 24h21.5t21.5 -4q8 0 19.5 -1.5t21.5 -1.5q12 -2 24 -2l11 -18l20 -90v-4q0 -2 -1 -2t-1 -2v-2q-23 -61 -77 -82t-122 -21q-35 0 -77.5 7.5t-84.5 24.5t-74 47t-42 75zM416 965q-2 4 -3 18t-3 18 q-2 0 -2 3q0 2 -1 2t-1 2q-2 2 -3 4h-155l-27 110h459l27 -110h-168q-2 -2 -2 -4v-7q0 -4 4 -18t6 -18h170l24 -111h-458l-25 111h158zM182 1300l209 35q-10 2 -38.5 5t-61.5 7.5t-61.5 7.5t-39.5 5q-6 0 -14 4q-4 2 -8 2l-33 137l17 6q2 0 43 2t96 5.5t114.5 6.5t96.5 3 q6 0 17 1t24.5 1h26h16.5l22 -96l-248 -13l7 -4l254 -35l20 -90l-246 -43l258 -10l23 -98q-6 0 -24.5 1t-22.5 1q-25 0 -84.5 3t-125 7t-123.5 7t-81 5zM182 1749l21 -84h61l-16 72h117l16 -72h70l-21 84h105l47 -197h-457l-47 197h104zM35 1942l-25 106h457l25 -113 l-166 -55l-4 -6h16q10 0 34.5 -1t51.5 -1t50.5 -1t33.5 -1l24 -105h-456l-27 115q-2 8 21.5 14.5t54.5 13.5t61.5 15t40.5 19h-192z" />
<glyph unicode="]" horiz-adv-x="581" d="M78 1298q-27 10 -38 26.5t-11 35.5q0 20 14 37.5t43 23.5q63 -2 125.5 -13t126.5 -15q8 20 24.5 30.5t32.5 10.5q23 0 39.5 -16.5t20.5 -47.5q-2 -365 -8.5 -726t-8.5 -726q-2 -2 -2 -6q29 -16 29 -51q0 -18 -11.5 -36t-35.5 -28q-68 -23 -150 -20.5t-153 -1.5 q-35 0 -52.5 18.5t-17.5 40.5q0 20 14.5 38.5t42.5 25.5h39h82h49.5t46.5 4q-4 8 -4 14q2 340 7.5 677t9.5 677q-63 6 -125.5 16t-128.5 12z" />
<glyph unicode="^" horiz-adv-x="1220" d="M258 436q-20 -35 -53 -35q-25 0 -43.5 17.5t-18.5 46.5q0 12 7 29q49 123 108 237.5t113 233.5q29 59 54.5 119.5t53.5 119.5q20 41 52 75t73 34q29 0 64 -25q39 -29 72.5 -82t64.5 -114.5t57.5 -123t50.5 -106.5q27 -47 54.5 -95t51 -97t41 -101.5t23.5 -107.5v-8 q0 -33 -18 -49.5t-41 -16.5q-18 0 -35.5 12.5t-25.5 38.5q-8 66 -32 126.5t-54.5 118.5t-65.5 114.5t-63 113.5q-33 66 -66 137.5t-80 127.5q-35 -63 -62.5 -132t-60.5 -137q-53 -117 -112.5 -232.5t-108.5 -238.5z" />
<glyph unicode="_" horiz-adv-x="1024" d="M-20 -256q-35 0 -52.5 18.5t-17.5 40.5q0 20 14.5 39t42.5 25h1047q31 -4 46 -21.5t15 -40.5t-17.5 -42t-51.5 -19h-1026z" />
<glyph unicode="`" />
<glyph unicode="a" horiz-adv-x="1720" d="M1229 2011l428 -2011h-555q-2 0 -9.5 13.5t-7.5 23.5q-4 10 -9 38.5t-11 60.5t-10 59.5t-6 40.5h-363q-2 0 -8 -21.5t-10 -34.5q-2 -10 -7.5 -35.5t-11.5 -54.5t-11 -54.5t-7 -35.5h-783v2011h1381zM776 688h207l-98 799q-4 -10 -10.5 -37t-8.5 -37q-8 -51 -19 -123.5 t-23.5 -151.5t-25 -156t-21.5 -138.5t-14 -99.5l-5 -37z" />
<glyph unicode="b" horiz-adv-x="1566" d="M903 2017q119 0 215 -51t163 -134t102.5 -187.5t35.5 -208.5q0 -154 -83 -251.5t-222 -160.5q178 -47 256 -160.5t78 -292.5q0 -92 -27.5 -192t-85 -185t-142.5 -139.5t-200 -54.5h-1149l9 2017h1050zM690 817q-14 0 -35.5 -4t-21.5 -31v-358q45 0 93 12.5t87 38 t64.5 64.5t25.5 94q0 43 -18.5 76.5t-49 58.5t-68.5 37t-77 12zM633 1266q0 -8 11 -19.5t18 -11.5q39 0 77.5 12.5t69.5 35t50.5 56t19.5 76.5q0 51 -22.5 85t-57.5 54.5t-79 29.5t-87 9v-327z" />
<glyph unicode="c" horiz-adv-x="1257" d="M1036 2011q10 0 42 -5t66 -13t60.5 -18.5t26.5 -20.5v-539q-10 0 -33.5 17.5t-56.5 37t-73 37t-83 17.5q-102 0 -166.5 -51.5t-102.5 -129t-52.5 -170t-14.5 -174.5q0 -80 14.5 -165.5t51.5 -158.5t99.5 -119t158.5 -46q84 0 143.5 25.5t124.5 78.5h12v-12 q-2 -31 -6 -106.5t-10 -160.5t-11 -161t-7 -106q0 -2 -5.5 -5.5t-7.5 -5.5q-12 -6 -39.5 -15t-59.5 -18.5t-60.5 -16.5t-42.5 -7h-1182v2011h1214z" />
<glyph unicode="d" horiz-adv-x="1566" d="M90 2017q16 0 57 1t86.5 1t86 1t57.5 1q254 0 457.5 -53t346 -173t218.5 -313.5t76 -471.5q0 -98 -16.5 -211t-52.5 -225.5t-91 -216t-132 -183.5t-176.5 -127t-224.5 -47h-985l6 2017h287zM633 481q61 2 105 28t75 66.5t49.5 93t28.5 107.5t13 107.5t3 95.5q0 55 -7 144 t-31.5 175t-74 148.5t-132.5 62.5q-4 0 -15.5 -2t-13.5 -2v-1024z" />
<glyph unicode="e" horiz-adv-x="1177" d="M1087 2011v-461h-454v-290h399v-472h-399v-307h454v-481h-1351l10 2011h1341z" />
<glyph unicode="f" horiz-adv-x="1144" d="M1055 2017v-467h-393v-301h362v-450h-377v-799h-860l-2 2017h1270z" />
<glyph unicode="g" horiz-adv-x="1540" d="M811 2013q109 0 205 -39t176 -105.5t141.5 -153.5t102.5 -181l-490 -182h-4q-12 0 -22.5 28.5t-28 62.5t-46 62.5t-75.5 28.5q-55 0 -92 -34t-60.5 -87t-36 -118.5t-17.5 -131t-5 -122v-89.5v-84t4 -103t16.5 -107.5t35 -96.5t59.5 -69.5t92 -26.5q51 0 84 28.5 t51.5 71.5t24.5 91.5t6 86.5h-178v404h729q0 -156 -9.5 -319.5t-53.5 -314.5t-134 -273.5t-250 -196.5q-31 -16 -78 -30.5t-81 -14.5h-1035v2015h969z" />
<glyph unicode="h" horiz-adv-x="1540" d="M625 2011v-688h272v688h535v-2011h-535v797h-272v-797h-822l-2 2011h824z" />
<glyph unicode="i" horiz-adv-x="722" d="M602 2017v-2017h-780l-31 2017h811z" />
<glyph unicode="j" horiz-adv-x="1083" d="M59 569q29 0 53.5 -10t49 -22.5t50.5 -22.5t56 -10q18 0 46 9t53.5 26.5t44 39t18.5 46.5v1392h858l8 -2009l-864 -8q-57 0 -95 -1t-69.5 1t-65.5 9t-83 24q-12 4 -36 14t-24 12v510v0z" />
<glyph unicode="k" horiz-adv-x="1687" d="M616 2017v-813q10 27 33 83t51.5 128t59.5 151t59.5 150.5t51 128t32.5 82.5q10 25 21 45q10 16 19 30.5t20 14.5h542v-28q-12 -31 -40.5 -94.5t-64.5 -143.5t-75 -168t-75 -169t-64.5 -144.5t-40.5 -93.5q-10 -25 -17.5 -41.5t-10.5 -32t-4 -31.5t-1 -39q0 -6 1 -20.5 t1 -18.5l453 -993h-574l-8 14q-8 13 -17.5 32.5t-18.5 39.5t-15 35q-12 29 -38 87t-56.5 132t-65.5 156t-66.5 156.5t-56 133t-35.5 86.5v-872h-806l-21 2017h827z" />
<glyph unicode="l" horiz-adv-x="1114" d="M647 2017v-1550h377v-467h-1241l2 2017h862z" />
<glyph unicode="m" horiz-adv-x="2320" d="M-199 2011h1211l159 -1026l187 1026h680l196 -2011h-567l-55 1178h-17l-219 -1178h-446l-187 1196l-73 -1196h-881z" />
<glyph unicode="n" horiz-adv-x="1640" d="M598 2011q4 0 9 -9t20.5 -45t43 -108.5t75 -198.5t117 -316.5t169.5 -463.5q0 139 -6 279.5t-14 282t-16.5 286t-10.5 293.5h879v-2011h-873l-411 1124v-28q0 -274 12 -545.5t12 -550.5h-514v2011h508z" />
<glyph unicode="o" horiz-adv-x="1456" d="M811 2023q57 0 119.5 -32.5t119 -78.5t101.5 -96.5t72 -84.5q57 -74 92 -167.5t54.5 -193.5t26.5 -200.5t7 -188.5q0 -76 -15.5 -179.5t-46 -212t-79 -214t-114 -189.5t-150.5 -135t-187 -51h-1026v2023h1026zM459 1026v-85t5 -111.5t17.5 -119t36 -107.5t60 -77.5 t92.5 -29.5q43 0 73.5 32.5t50 84t30 112.5t14.5 120.5t5 107.5t1 73q0 37 1 89t-2 108.5t-13.5 111t-32 97.5t-57 69.5t-91.5 26.5q-70 0 -108.5 -62.5t-57 -146.5t-21.5 -167t-3 -126z" />
<glyph unicode="p" horiz-adv-x="1488" d="M-207 2017q266 0 435 -2t208 -2q121 0 242 -10t229.5 -38t201.5 -77t160.5 -125.5t106.5 -185.5t39 -256q0 -186 -64.5 -311t-174 -204t-254 -119t-306.5 -58v-629h-823v2017zM633 1110q53 -2 94 14.5t67.5 46t40 69.5t13.5 87q0 43 -7 86t-26.5 76t-52.5 53.5t-84 20.5 q-4 0 -22.5 -1t-22.5 -1v-451z" />
<glyph unicode="q" horiz-adv-x="1325" d="M801 20q-6 0 -27.5 -4t-28.5 -8h-942v2007h920q74 0 152.5 -30.5t142.5 -71.5q113 -76 186.5 -178.5t114.5 -221t57.5 -246.5t16.5 -253q0 -106 -10.5 -202.5t-35 -188t-63.5 -178.5t-96 -175q18 -37 57 -82t78 -85t67.5 -69.5t22.5 -33.5l-10 -10l-395 -217 q-8 -4 -31 27.5t-50.5 75.5t-57 86t-54.5 58h-6h-8zM473 848q0 -35 10.5 -94.5t32 -115.5t56 -97t87.5 -41q51 0 86 35.5t55.5 86t32 103.5t17.5 90v373q-2 43 -12.5 99t-32 108.5t-57 88.5t-89.5 36q-55 0 -91 -42t-56 -100.5t-28.5 -120t-10.5 -102.5v-307z" />
<glyph unicode="r" horiz-adv-x="1574" d="M-211 2013q268 0 445.5 2t218.5 2q123 0 242.5 -6t227 -28.5t197.5 -65.5t156.5 -118t103.5 -185.5t37 -265.5q0 -170 -63.5 -288t-210.5 -218v-60l362 -782h-571q-2 0 -14.5 22.5t-16.5 36.5q-10 27 -32.5 83.5t-50 128t-59.5 149.5t-59.5 149.5t-50 128t-33.5 84.5 v-782l-837 -6zM633 1112q0 -6 11 -18.5t20 -12.5q49 0 89 24.5t67.5 61.5t42 82t14.5 88q0 111 -67 169.5t-177 58.5v-453z" />
<glyph unicode="s" horiz-adv-x="1144" d="M-184 2l-13 2017l871 -2q8 0 36.5 -2t67.5 -5t82 -10t80 -16.5t60.5 -23.5t23.5 -33v-555q-37 35 -67.5 62.5t-62.5 47t-67.5 30t-85.5 10.5q-57 0 -93 -22.5t-36 -86.5q0 -10 1 -23.5t5 -17.5l377 -377q33 -33 51.5 -77t27.5 -91t11 -95t2 -87q0 -141 -45 -260 t-126.5 -205t-199.5 -133t-261 -47z" />
<glyph unicode="t" horiz-adv-x="1323" d="M-182 2011h1413v-461h-289l-27 -28v-1522h-1097v2011z" />
<glyph unicode="u" horiz-adv-x="1507" d="M641 2025v-1423q0 -25 15.5 -43t37 -28.5t44 -15.5t38.5 -5q14 0 36 1t43.5 7t36.5 18.5t15 36.5v1452h520v-1630q0 -4 -7 -20.5t-16 -34.5t-19.5 -36.5t-16.5 -27.5q-61 -78 -122.5 -130t-128 -82.5t-142.5 -44t-170 -13.5q-86 -4 -146.5 -5t-116 -1t-113.5 1t-140 2 t-195.5 0t-277.5 -3l-13 2025h838z" />
<glyph unicode="v" horiz-adv-x="1656" d="M623 2025l186 -1255l10 14q4 29 14.5 105t21.5 161t22.5 160.5t15.5 106.5q6 41 17.5 105.5t24.5 136t27.5 145.5t26.5 134t21.5 101t13.5 50l12 36h588l-551 -2023h-1276l-4 2023h830z" />
<glyph unicode="w" horiz-adv-x="2256" d="M-170 2017h709l168 -1163l18 -18l182 1181h473l215 -1247l166 1247h537l-410 -2017h-526l-201 1163l-16 56q-6 -41 -17.5 -130.5t-26 -200t-30.5 -233.5t-30.5 -234.5t-25.5 -199.5t-16 -131q-2 -10 -4 -25.5t-5 -30t-6 -24.5l-3 -10h-1149z" />
<glyph unicode="x" horiz-adv-x="1683" d="M-188 2017h862q53 -119 92 -222t88 -198q12 33 31.5 92.5t41 124t42 121t37.5 82.5h587l-444 -977l485 -1040h-598q-18 29 -42.5 94.5t-51.5 140t-50.5 143t-37.5 103.5l-192 -481h-871z" />
<glyph unicode="y" horiz-adv-x="1624" d="M-203 2021h807q14 -25 31.5 -69.5t36 -101t38 -117t38 -116.5t36 -101.5t31.5 -67.5l191 573h565q-23 -53 -59.5 -145t-82 -204.5t-93.5 -233.5t-93 -231.5t-82 -198.5t-59 -134v-874h-1288z" />
<glyph unicode="z" horiz-adv-x="1572" d="M-209 2011h1722l-698 -1560h598v-451h-1628z" />
<glyph unicode="{" horiz-adv-x="581" d="M449 1444q6 2 18 2q29 0 44 -17.5t15 -39.5q0 -18 -11 -36t-36 -28q-18 -4 -37.5 -5t-35.5 -11q-43 -23 -55.5 -75t-12.5 -112q0 -35 2 -66.5t2 -54.5q2 -31 2 -62.5v-64.5q0 -86 -15.5 -162.5t-72.5 -136.5q8 -4 15.5 -7t15.5 -7q45 -29 60 -80t15 -112q0 -76 -12 -159 t-12 -155q0 -57 14 -98q14 -39 40 -57.5t55.5 -30.5t61.5 -23.5t58 -35.5q23 -23 23 -50q0 -25 -17.5 -42t-44.5 -17q-20 0 -43 16q-16 16 -37.5 23.5t-44.5 15.5q-66 23 -101.5 56.5t-63.5 95.5q-16 35 -21.5 72.5t-5.5 78.5q0 53 7 106.5t11 100.5q0 -4 -2 -18.5t-2 -24.5 q4 31 9.5 71t5.5 79q0 53 -17 84l-25 2q-24 2 -56.5 8t-65.5 18.5t-49 30.5q-14 20 -15 43q0 37 39 55q8 2 30.5 6.5t41.5 8.5q4 4 15.5 13t23.5 20.5t22.5 22.5t16.5 22q16 29 21 59.5t5 60.5q0 16 -1 30.5t-1 31.5q-2 53 -6 106.5t-4 106.5q0 88 22.5 167t96.5 144 q23 20 54.5 22.5t60.5 8.5z" />
<glyph unicode="|" horiz-adv-x="563" d="M264 -133l-207 37v90l17 6q8 2 32.5 5t51 7t50 7.5t32.5 3.5q4 2 13 3t11 5l-207 30v111l459 -86v-100l-264 -39l264 -39v-105l-459 -73v102q0 2 11.5 3t17.5 5q10 0 35.5 3t53.5 7.5t53.5 7.5t35.5 5v4zM57 334l459 78v-103q0 -6 -9 -8t-20.5 -2t-20.5 -2t-9 -10v-56 l59 -10v-110l-459 94v129zM213 268q29 -16 69 -18t74 -2v37q-35 0 -74.5 -6.5t-68.5 -10.5zM162 616v-61l8 -10h346v-113h-354v-63h-105v247h105zM45 762q0 2 1 13t2 23.5t3 21.5t6 9h109q-6 -10 -7 -19t-1 -19q0 -25 13 -38.5t33.5 -20.5t42 -9t40.5 -2q18 0 39.5 2t40 9 t31 20.5t12.5 38.5q0 12 -3.5 23t-3.5 24h20.5t20.5 -4q8 0 19.5 -1.5t21.5 -1.5q12 -2 25 -2l6 -18v-90q-2 -2 -2 -4q-6 -6 -4 -6q-37 -61 -95.5 -82t-125.5 -21q-35 0 -77 7.5t-79 24.5t-62.5 47t-25.5 75zM215 965q0 4 2 18t0 18q-2 0 -2 3v4q-2 2 -2 4h-156v110h459 v-110h-168q-2 -2 -2 -4q-2 -2 -2 -4v-3q0 -4 1 -18t1 -18h170v-111h-459v111h158zM57 1300l219 35q-10 2 -38.5 5t-59.5 7.5t-59.5 7.5t-38.5 5q-6 0 -14 4q-4 2 -9 2v137l17 6q2 0 44 2t98 5.5t116.5 6.5t97.5 3q6 0 18.5 1t25.5 1h25.5h16.5v-96l-252 -13l6 -4l246 -35 v-90l-256 -43l256 -10v-98q-6 0 -24.5 1t-22.5 1q-25 0 -83 3t-123.5 7t-124 7t-81.5 5v137zM162 1749v-84h63v72h117v-72h70v84h104v-197h-459v197h105zM57 1942v106h459v-113l-180 -55l-4 -6h16q10 0 34 -1t50.5 -1t50 -1t33.5 -1v-105h-459v115q0 8 26 14.5t58.5 13.5 t64.5 15t46 19h-195z" />
<glyph unicode="}" horiz-adv-x="581" d="M33 1329q-33 0 -51.5 18.5t-18.5 43.5q0 16 8.5 31.5t30.5 25.5q10 4 22.5 6t22.5 2q23 0 44.5 -7t43.5 -17q63 -27 102 -56.5t60.5 -62.5t29 -68t7.5 -71q0 -43 -5 -89.5t-5 -95.5q0 -39 6 -80t22 -84q14 -39 41 -63.5t55.5 -39.5t56 -23.5t44.5 -14.5q39 -20 39 -57 q0 -18 -12.5 -35t-34.5 -27q-55 -2 -88 -22.5t-51.5 -54t-24.5 -77.5t-6 -92q0 -47 3 -93t3 -87q0 -49 -6 -113.5t-26.5 -124t-59.5 -104.5t-105 -57q-31 -6 -61.5 -10t-61.5 -11q-35 0 -52 18.5t-17 41.5q0 20 14 38.5t43 24.5q27 4 48.5 5t39 6.5t33.5 14.5t35 30 q39 41 49 107.5t10 144.5q0 41 -1 81.5t-1 81.5q0 96 16.5 182.5t81.5 137.5q-55 43 -98 106.5t-49 126.5q-2 8 -2 16.5v18.5q0 41 4 95.5t4 107.5q0 59 -10 109.5t-41 70.5q-29 18 -55.5 27.5t-55.5 21.5h-6q-4 0 -6 -1t-8 -3z" />
<glyph unicode="~" horiz-adv-x="1220" d="M170 449q-8 -29 -25.5 -42.5t-38.5 -13.5q-23 0 -40 16.5t-17 49.5v8q12 53 53 109.5t97.5 102.5t121 75.5t125.5 29.5q59 0 107 -32q27 -20 59.5 -61.5t65.5 -82.5t64.5 -73.5t56.5 -34.5h8q47 0 86 27.5t72.5 67.5t62.5 82t57 73q25 10 39 10q27 0 42.5 -15.5 t15.5 -39.5q0 -23 -13 -43q-33 -35 -69.5 -84.5t-79.5 -95.5t-92 -77.5t-107 -31.5q-10 0 -19 1t-20 3q-68 14 -113.5 60t-82.5 95.5t-74 88t-88 38.5q-35 0 -77 -21.5t-97 -72.5q-29 -27 -49.5 -52t-30.5 -64z" />
<glyph unicode="&#xa1;" horiz-adv-x="471" d="M256 344l-164 29v69l14 4q6 2 25 5.5t40.5 6.5t39.5 5t25 2q4 2 10 3t10 3l-164 25v88l361 -70v-78l-207 -30l207 -31v-82l-361 -57v79q0 2 10.5 3t14.5 4q8 0 27.5 3t42 6t42 6t27.5 3v4zM92 709l361 61v-82q0 -4 -7.5 -5t-16.5 -2t-16 -3t-7 -8v-41l47 -8v-86l-361 71 v103zM215 657q23 -14 53.5 -15t59.5 -1v29q-27 0 -58.5 -5.5t-54.5 -7.5zM176 930v-49l6 -9h271v-88h-277v-47h-84v193h84zM84 1042q0 6 2 30t6 24h86q-4 -8 -5 -16.5t-1 -14.5q0 -18 10.5 -29.5t25.5 -16.5t32.5 -7t31.5 -2t30.5 2t31 7t25 16.5t10.5 29.5q0 10 -2 18.5 t-2 18.5h15t15 -4q6 0 15.5 -1t17.5 -1h21l4 -15v-71q-2 -2 -2 -4t-2 -2q-29 -49 -75 -64.5t-100 -15.5q-27 0 -59.5 5t-62 18.5t-49 36.5t-19.5 58zM217 1202q0 4 1 14.5t-1 14.5l-2 4v4h-123v86h361v-86h-131q-2 -2 -3 -4v-4v-29h134v-86h-361v86h125zM92 1464l172 27 q-8 2 -29.5 4t-46 5t-47 6t-30.5 5q-2 0 -4.5 1t-6.5 1t-8 3v106l14 4q2 0 34 2t77 4t91 5t77 3q10 2 34.5 2h33.5v-77l-197 -9l4 -2l193 -28v-70l-201 -33l201 -10v-76q-4 0 -18.5 1t-18.5 1q-18 0 -64.5 2t-97.5 5.5t-97 6.5t-65 5v106zM176 1812v-63h49v55h92v-55h54v63 h82v-153h-361v153h84zM92 1964v84h361v-88l-142 -43l-4 -4h15h24.5t40 -1t39.5 -1h27v-84h-361v90q0 6 19.5 11t46 11.5t52.5 12.5t36 12h-154zM162 -242q-23 14 -42.5 31.5t-33.5 42.5v2q-31 55 -31 115q0 66 36 123t99 82q4 2 17.5 6t19.5 6q-6 0 9.5 1t37 1t43 -2 t29.5 -8q51 -14 88 -53t51 -87q10 -27 12.5 -57.5t-3.5 -58.5q-20 -78 -78 -126t-140 -48q-69 -1 -114 30zM160 -137q4 -2 16 -19q29 -25 64 -37l4 -2h4h57q20 0 48 21.5t40 36.5q2 2 4 2h2v-2h15v4l-11 10q-14 10 -28 10q0 -4 5 -7t5 -7h2q-12 -29 -48 -40t-63 -11 q-4 0 -13 1t-11 1q-47 2 -80 37q0 2 -3 4t-3 6q0 2 6 2q0 2 2 5t2 5l-2 -2l2 4v2q-8 0 -22.5 -7t-14.5 -17q4 0 7.5 2t7.5 2h2l-6 -4h2h8zM397 -133q0 -2 -1 -2t-1 2h2zM164 -127q2 0 2 -1t-2 -1t-2 1t2 1zM266 -86q2 -2 4 -2q6 0 6 2v6q0 14 -14 14v7l-39 39l-2 4q0 8 1 15 t1 17v10.5t-2 17.5t-4 16.5t-8 7.5q-8 0 -8 -7q-2 -10 -5 -22t-3 -23h-3v2q-4 4 -8 9.5t-10 11.5q-2 2 -6 10l-4 8q4 -2 7 -4t7 -4q4 0 4 2v4q-6 8 -13 10.5t-13 6.5q-2 4 -10.5 10t-10.5 8t-8 2q-10 0 -10 -10q0 -2 3 -7t3 -7l2 2q-2 -10 0 -18.5t2 -18.5q4 -4 8 -4t5 4 t1 6q4 -8 8.5 -24.5t14.5 -16.5h2q0 2 2 4q-2 12 -9 21.5t-7 19.5q2 0 8 -6t13 -14.5t13 -15.5t9 -9q6 -6 5 -21.5t11 -15.5q4 0 5 2t5 6q4 -4 7 -9t7 -9q4 -6 15.5 -18.5t11.5 -16.5q12 0 12 6v-2q0 -6 -6 -6zM250 -61q2 0 5 -4.5t3 -8.5q-4 0 -6 4.5t-2 8.5zM260 -70 q2 0 2 -3t-2 -3t-2 3t2 3zM238 -45q2 0 2 -2t-2 -2q-4 0 -4 2t4 2zM344 68q-10 0 -12 -9.5t-2 -15.5v-59q0 -4 4 -13.5t10 -9.5q4 0 5 4t5 8q0 4 1 12.5t1 12.5v18v17q0 4 -1 12t-1 12q-4 4 -5 7.5t-5 3.5zM152 18v-6q0 4 -1 4t-1 2h2zM127 37q-2 0 -2 1t2 1v-2zM135 47 q4 0 4 -2t-4 -2v4zM156 47h-2h2zM133 51q2 -2 0 -4v4zM131 68v2v-2zM121 76v4v-4z" />
<glyph unicode="&#xa2;" horiz-adv-x="1892" d="M342 147q-2 8 -5 27t-7 40.5t-7.5 39.5t-3.5 27q-2 4 -2 10v18q0 27 1 46.5t6 47.5l-103 342q-10 29 -12 71t-2 65q0 35 9 68.5t9 68.5q0 23 -2 47.5t-2 48.5q0 53 2 104.5t6 104.5q2 16 9.5 36.5t7.5 37.5q0 14 -3 19t-14 24q-2 6 -13 27.5t-23.5 46t-23.5 46t-13 27.5 q-20 49 -32.5 94t-29.5 93q-4 6 -12 26.5t-18.5 45t-18.5 46t-10 27.5q-8 16 -10 27.5t-2 27.5q16 0 34.5 -2t24.5 -18q6 0 22.5 -5t35 -11.5t33.5 -11.5t22 -7q12 -4 44.5 -17.5t69.5 -27.5t71 -27.5t46 -19.5q123 59 249 103t265 44q72 0 144.5 -16t138.5 -43 q6 -4 32.5 -14.5t57 -22.5t58.5 -23.5t34 -13.5q16 -6 20.5 -8t14.5 -2q39 0 80 8t81.5 20.5t80.5 25.5t75 24q27 10 48.5 28.5t49.5 18.5q14 0 16.5 -10.5t2.5 -22.5q0 -43 -25 -82q-6 -10 -24.5 -34.5t-40 -53.5t-40 -53.5t-26.5 -34.5q-4 -2 -13 -12.5t-19.5 -21.5 t-20.5 -21.5t-12 -12.5t-9.5 -12t-9.5 -14q-6 -8 -20.5 -27.5t-29.5 -42t-28.5 -42t-19.5 -27.5q-4 -6 -4 -12.5v-10.5q0 -68 3 -135.5t3 -134.5v-41t-1 -48.5t-1 -41v-19.5q0 -31 -3 -85t-6 -108.5t-6 -97.5t-3 -51l-78 -465q-10 -43 -43 -70.5t-62 -56.5l-352 -219 q-20 -12 -45 -17t-49 -5q-2 0 -8.5 2t-10.5 2q-6 2 -24.5 7t-38 12t-37.5 13.5t-25 10.5q-8 0 -12 4l-381 268q-4 4 -6 7t-4 7zM827 -131q0 -2 6.5 -7t8.5 -5q2 -4 10 -2t10 2q6 -6 13.5 -18.5t15.5 -12.5q37 0 75 18.5t66 34.5q4 4 4 8v9q0 -12 -14 -17q4 10 15.5 13.5 t23.5 6.5t22.5 8t10.5 19h16l225 144q27 31 46.5 48t31.5 34.5t17.5 42t5.5 67.5v29l-9 -10v14h-8q0 4 -4 15.5t-6 15.5l-4 4v18v21q6 47 21.5 97t25.5 97q6 20 10 25.5t4 19.5h11q0 10 3 29.5t13 26.5v-20.5t4 -18.5q6 14 4 28.5t6 28.5l-10 -4v2v2l5 5t5 3q6 12 6 33.5 v32.5v35l-20 -11v-35l6 -4v19l2 -39q0 2 -2 2t-2 -2t-4 -7t-4 -7v14q-2 -8 -7 -30.5t-7 -26.5q-6 -16 -18.5 -11.5t-16.5 -9.5q8 0 8 -6v-2v-2q-2 -4 -2 -6t-2 -6l-4 -9h-8q0 10 -2.5 15.5t-2.5 13.5v2q2 2 3.5 7t5.5 5q-8 6 -13.5 7.5t-13.5 1.5q-10 0 -19.5 -6.5 t-19.5 -10.5v2q0 18 19.5 23.5t23.5 9.5q4 2 5 7t1 9q6 4 22.5 6.5t22.5 2.5q0 2 -1 10t-5 8l-10 -4l-4 2q0 10 5 15t11 9.5t11.5 9.5t5.5 17q-14 0 -15 10q0 12 13 13q0 10 -13 18q2 4 2 23.5t-2 23.5q0 2 -2 12.5t-3 21.5t-3 20.5t-2 11.5q0 10 -1 22.5t-4 22.5t-11.5 17 t-24.5 7q-31 0 -68.5 -10t-76.5 -25.5t-75 -33t-61 -31.5q-6 -4 -23 -13.5t-35.5 -20.5t-35 -20t-22.5 -14q-4 -2 -11.5 -9t-9.5 -11v-10q0 -12 2 -24.5t2 -24.5v-9q-4 10 -14 34t-14 40h-4h-2q0 -2 -8.5 -3t-10.5 -3h-2h-2q0 10 14 14l-4 6q8 -4 20.5 2.5t12.5 16.5v6 q-2 2 -2 4q-2 2 -2 4q2 4 7 8t7 2l4 -4l25 9v14h31v12h14v8h20q-6 6 -6 17v4q4 -4 11 -4q0 -2 2 -2q0 18 17 27.5t34 9.5q10 0 12 -4.5t6 -4.5q6 0 16.5 8.5t18.5 8.5q14 0 14 -10q23 0 43.5 7t40.5 13q4 0 16.5 3t27 6t25.5 6t15 3q2 2 5.5 3.5t3.5 3.5t1 8t1 8 q0 12 -5.5 19.5t-5.5 17.5q0 33 15.5 67.5t31.5 59.5q4 4 9.5 13t7.5 11q0 2 6 22.5t8 31.5q0 2 2 12t2 12q4 16 12.5 28.5t12.5 29.5q6 -8 6 -23v-8q-2 0 -4 2h-4q-2 0 -2 2q-2 0 -2 -2t-2 -2l4 -8v-33q2 6 6 12l8 12q14 -10 16 -24v123l5 12q2 4 2 9t2 9q0 2 2 5q0 2 1 2 t1 2l123 174q6 8 25.5 28.5t25.5 26.5q2 4 4 11t8 3q4 4 13.5 15.5t13.5 15.5l4 4l4 4q4 6 13 20.5t20.5 30t21.5 29.5l15 21q18 12 33.5 44.5t15.5 55.5q0 10 -1 17.5t-12 7.5q-23 0 -46 -18.5t-46 -24.5q-70 -23 -153.5 -50.5t-161.5 -27.5h-19q-2 0 -19 5t-24 7 q-6 2 -30.5 13.5t-52 22.5t-52 21.5t-30.5 12.5q-70 27 -144 43t-151 16q-86 0 -168 -21.5t-164 -52.5q-14 -4 -38 -16t-47.5 -24.5t-45 -21.5t-33.5 -9q-25 0 -47.5 12t-42.5 20q-12 6 -39 17.5t-31 11.5q-8 2 -27.5 10t-41 15.5t-40 14.5t-26.5 11q-2 0 -10 2t-17.5 4 t-17.5 4.5t-10 2.5q-14 6 -20.5 13t-22.5 7v-6q8 -20 11 -31.5t13 -36.5q6 -18 19.5 -43.5t26 -53.5t22.5 -53.5t10 -43.5q0 -4 -3 -6t-3 -9l2 -2q6 -8 12.5 -20t6.5 -27h4q6 -6 13 -24.5t15.5 -38t15.5 -34.5t17 -15q0 -4 -2 -11.5t0 -11.5q0 -4 7 -16.5t18 -28.5l24 -41 q-2 -2 -3 -11t-1 -11q0 -4 2 -11.5t2 -11.5v-2v-2q0 -4 -2 -19.5t-3 -34t-3 -35t-2 -20.5v-14q0 -16 5 -29.5t13 -29.5l27 49l-4 6q6 4 4 9t-2 9h6q2 -10 6 -18t6 -16.5t4 -12.5q0 -2 -1 -7t-1 -7q-6 0 -16 -3t-10 -13q10 0 20 10q-4 -12 3.5 -22.5t4.5 -26.5q0 10 4.5 16 l10.5 14q0 -12 8 -12v25q4 0 4 -5.5v-9.5q0 -10 -6 -13t-6 -13v-2l4 -4v-5h-8q0 -16 10 -33.5t6 -35.5q10 14 11 30.5t1 32.5q0 4 -3 6t-3 7v2q2 2 3 6t3 4q10 -6 13.5 -18.5t9.5 -20.5q6 -10 23.5 -20.5t38 -18.5t41 -14t32.5 -6t12 14q0 8 -4 10l2 2l2 2q0 2 -2 5t-2 8 q-2 0 -2 2v4q-8 0 -16 3t-8 13q0 4 6 9t6 14l-2 6q0 -8 -10 -8l-2 2q0 4 1 9t1 9v4q0 2 -2 9.5t-2 9.5q-2 6 -11.5 18t-9.5 14l2 2q2 0 2 2l2 2q-8 6 -10 13.5t-2 14.5t-2 13.5t-10 12.5q2 2 6 8t4 8q2 2 -2 9t-6 10v-19q-8 0 -10.5 6t-1.5 14.5t2.5 16.5t-1.5 12 q-2 2 -8 7.5t-8 5.5v14q0 10 3 18t3 19q0 16 -11 29.5t-24 23.5q4 18 -1 15t-5 8q0 8 11.5 19t13.5 21q-6 -6 -7 -5t-12 1v11q-2 0 -5 -3.5t-5 -3.5h-2h-4q-2 0 -4 3l-4 4q20 0 20 22q0 4 -3 8t-3 11q0 4 7.5 19t15.5 15q0 10 -13 15q0 4 -1 12t-1 12q0 23 2 36t7 40v-31 q0 4 8 4q2 0 7 -1t7 -3q2 0 3 -2t3 -2h2h2l11 8l2 5q4 0 16 -16.5t29 -16.5q12 0 16 16q10 -16 31 -16q10 0 13 3t9 3q10 0 22.5 -19.5t16.5 -31.5h8q-2 -4 -2 -11q0 -12 4 -12l-6 -4q10 0 17 -6v-6q-2 0 -3 -2t-3 -2v-2v-2q2 -2 3 -6.5t3 -4.5l2 2q0 -10 -2 -12t-2 -12 q14 0 13 9t7 13l6 -8q4 0 4 8v2q0 33 -10 70t-12 72q-4 2 -17.5 14t-13.5 16v3q6 4 16.5 10t20.5 6q8 0 13 -8t9.5 -18.5t7.5 -20.5t3 -15l26 17v-2v-2q0 -2 -1 -8.5t-3 -8.5v-2v-2q12 6 29.5 11.5t30.5 5.5q8 0 23.5 -17.5t29.5 -39t24.5 -44t10.5 -30.5q0 -6 -2 -12.5 t-9 -10.5q-4 6 -10 6q0 -4 9.5 -22.5t15.5 -12.5q-4 -4 -10.5 -11t-6.5 -13h17q0 -8 -3 -12.5t-5 -14.5v-2v-2q2 -2 4 -2t4 -2v-2q0 -10 -4 -19.5t-4 -17.5l4 -4q2 0 9 -3t11 -3v-4v-4q-2 -2 -3 -8.5t-1 -8.5q-2 4 -5 8.5t-7 4.5v-35q4 -2 5 -6.5t1 -8.5q0 -10 -2 -8t-8 -8 q-10 -12 -10.5 -25.5t-8.5 -23.5l4 -2q10 0 11 12q0 -2 2 -7t2 -9v-4h-15q0 -16 9.5 -35t5.5 -33q0 -2 -5.5 -5t-5.5 -5q-2 -2 -2 -7v-8h11q0 -2 -1 -3t-1 -3v-4q0 -2 2 -2l2 -2q0 -6 -4 -10l-7 4v-4q0 -25 9.5 -49.5t9.5 -48.5v-5q-10 16 -15.5 37t-11.5 41.5t-14 38 t-25 29.5q-2 0 -2 -2v-4q0 -12 4.5 -23.5t6.5 -23.5t3 -35t1 -25l-9 -4q4 -6 5 -18h18q0 -6 1 -9.5t-5 -7.5q2 -8 9 -5t11 3v-26l-39 24h-10v-12q-4 0 -11 1t-9 1l-8 -4l-5 4h-14h-12q0 -2 -10.5 -13.5t-12.5 -11.5h-2q0 2 -2 3.5t-2 3.5h-2h-4q0 -2 -2 -3.5t-2 -3.5h-2h-2 q-2 2 -6 5.5t-4 5.5l-7 -17q25 -4 41.5 -15t29.5 -23.5t26.5 -22.5t31.5 -17q27 -23 49.5 -53.5t51.5 -52.5h6h2q8 33 9 65.5t-1 67.5q2 0 4 2q2 0 3 1t3 1q4 2 17.5 12.5t17.5 12.5q86 55 180 102l3 2l4 -2q-4 -4 -12.5 -17.5t-12.5 -13.5l-2 2l-2 3q-2 0 -2 2l-10 -21 l-4 10q-8 -20 -17.5 -26t-25.5 -23l4 -8q-6 -2 -11.5 -6t-9.5 -8l4 -6q-12 -2 -15 -11.5t-3 -19.5v-2q10 16 31.5 32.5t42.5 16.5h4q-6 -4 -17.5 -10t-15.5 -13q-6 -4 -18.5 -14t-24.5 -20.5t-23.5 -20.5t-13.5 -12l-78 -78q2 0 6 -2t4 -4v-2v-2q-4 -10 -17 -7t-17 3 q-2 0 -8.5 -26t-10.5 -32q-8 -6 -25.5 -20.5t-25.5 -18.5q0 -4 -2 -5t-2 -3h2q2 0 11 5t20.5 12.5t19.5 13.5t10 8h50q-18 0 -39 -8v-51v-54q0 -2 1 -9t1 -16t1 -17.5t1 -10.5t-2 -12t-2 -12q0 -8 -2 -33t-2 -29v-182q-2 -4 -11 -4h-4q-2 0 -10 2t-10 2h-2q-20 0 -49 -9.5 t-46 -19.5q-8 4 -8 10q0 8 6.5 13.5t6.5 15.5q-10 0 -32 9.5t-28 4.5q-8 -2 -11 -8t-13 -6h-7q4 10 12.5 29.5t18.5 30.5q4 4 10.5 4t10.5 10q2 8 -15.5 20.5t-39 22.5t-42 18.5t-26.5 10.5q-4 2 -18.5 9t-32 15t-31.5 15.5t-17 9.5q-4 2 -24.5 10t-24.5 10q-2 0 -5 2t-5 2 l6 11q-2 0 -5 -2.5t-5 -2.5h-4h-2l-39 29v-6q0 -35 17.5 -62.5t17.5 -60.5q0 -29 -8 -61l4 -4v-3q0 -10 -2 -16t-2 -16q0 -25 12 -40.5t27.5 -26.5t27.5 -22.5t12 -25.5l2 2l3 4q0 2 2 4q6 -4 12 -7t14 -5l-6 -6q14 -4 35.5 -37t43 -71t39 -68.5t21.5 -30.5h2q4 4 4 12 q0 -2 3 -2h4h4v-34t32 -9h5q29 4 57.5 8.5t58.5 12.5q12 4 21.5 8t23.5 4q0 -10 -9 -15t-21.5 -9.5t-25.5 -9.5t-19 -13h30q0 -8 5.5 -10t13.5 -3t14 -2t6 -6q0 -2 -11 -13t-13 -15l24 -6h-16l12 -13h-33v-2q0 -4 2 -4q2 -2 4 -2q2 -2 7 -2zM870 -164q-4 0 -4 -5t4 -5t4 5 t-4 5zM866 -160q-4 0 -4 -5t4 -5t4 5t-4 5zM944 -160q-4 0 -4 -5t4 -5t4 5t-4 5zM823 -152q-4 0 -4 -4t4 -4t4 4t-4 4zM846 -152q-4 0 -4 -4t4 -4t4 4t-4 4zM889 -152q6 0 6 -4t-6 -4q-4 0 -4 4t4 4zM958 -152q-4 0 -4 -4t4 -4t4 4t-4 4zM819 -143q-6 0 -6 -6.5t6 -6.5 q4 0 4 6.5t-4 6.5zM831 -143q-4 0 -4 -6.5t4 -6.5t4 6.5t-4 6.5zM811 -139q-4 0 -4 -6.5t4 -6.5q6 0 6 6.5t-6 6.5zM954 -139q4 0 4 -6.5t-4 -6.5t-4 6.5t4 6.5zM997 -135l-8 -4l4 4h2h2zM866 -121q0 4 3 10.5t10 6.5h2q0 -2 -2 -8.5t-2 -8.5l4 -4l8 8h2l4 2l2 -2q0 -2 2 -4 q0 -2 2 -4l8 4q-2 -10 -9 -10h-13h-14.5t-6.5 10zM924 -117h-4l4 4v-4zM909 -104q8 -4 0 -9q-2 0 -2 4.5t2 4.5zM772 -100q-2 0 -2 -3t2 -1q8 0 0 4zM823 -100q0 -4 4 -4v2v2l-4 4l-2 -2zM1022 -100q4 0 4 -6.5t-4 -6.5t-4 6.5t4 6.5zM870 -47q6 -2 7 -12v-7q-6 4 -7 15v4z M745 -57q-6 0 -6 -4.5t6 -4.5q4 0 4 4.5t-4 4.5zM797 -61q0 2 -2 2t-2 -2q0 -4 2 -4t2 4zM733 -51q-4 0 -4 -5t4 -5t4 5t-4 5zM862 -51q4 0 4 -5t-4 -5t-4 5t4 5zM778 -51h6v4zM672 -47q0 2 -4 2t-2 -2q0 -6 6 0zM725 -43q-4 2 -4 -1t4 -3q4 4 0 4zM655 -39q-4 0 -4 -4t4 -4 t4 4t-4 4zM633 -27q-4 0 -4 -6t4 -6t4 6t-4 6zM1137 -23q4 0 4 -5t-4 -5t-4 5t4 5zM1159 -12q6 -10 -4 -6q-4 2 0 5t4 1zM582 -8q-4 0 -4 -5t4 -5t4 5t-4 5zM592 -4q-4 0 -4 -4t4 -4t4 4t-4 4zM655 -4q-4 0 -4 -4t4 -4t4 4t-4 4zM567 0q-4 0 -4 -4t4 -4t4 4t-4 4zM1384 315 q6 -18 17.5 -38.5t11.5 -40.5q0 -10 -6 -15.5t-6 -15.5v-2q6 -6 12 -6q-4 -27 -20.5 -50.5t-40 -44t-49 -38t-46.5 -29.5q-16 -8 -43.5 -23.5t-29.5 -15.5h-8q14 16 32.5 29.5t34.5 29.5q25 25 52.5 54.5t49 62.5t33.5 69.5t6 73.5zM539 31q-4 0 -4 -5.5t4 -5.5t4 5.5 t-4 5.5zM508 51q-4 0 -4 -6t4 -6t4 6t-4 6zM440 94q-4 0 -4 -4t4 -4t4 4t-4 4zM446 125q-4 0 -4 -6t4 -6t4 6t-4 6zM373 139q-4 0 -4 -5t4 -5t4 5t-4 5zM436 139q-4 0 -4 -5t4 -5t4 5t-4 5zM430 139l2 2l-2 2q0 2 -4 5.5t-6 3.5l-2 4l-2 -4zM352 162q0 -4 4 -11.5t9 -7.5h2 q-2 2 -5.5 9.5t-3.5 11.5q-4 0 0 4q-2 0 -3 -2t-3 -2v-2zM352 178q-4 0 -4 -5t4 -5t4 5t-4 5zM711 225q20 4 32.5 5t28.5 1h16q-8 -6 -10 -14t-4 -14t-5 -11.5t-13 -5.5t-16.5 6.5t-10.5 13.5t-8 13t-10 6zM373 221q-4 0 -4 -4t4 -4t4 4t-4 4zM846 242l12 -13h-39 q-4 -8 -10 -10t-12 -2q4 2 5 10.5t5 10.5q2 0 14.5 1t20.5 3h2h2zM367 231q-4 0 -4.5 -5t4.5 -5q4 0 4 5t-4 5zM494 260q4 0 4 -4t-4 -4t-4 4t4 4zM328 313v-19t6 -18q8 37 20.5 77t12.5 77q0 25 -4.5 52.5t-13.5 55t-22.5 53t-31.5 42.5v-29l8 4v-49h4q-4 -6 -4 -13v-14 v-12l31 -117v-2q0 -23 -3 -44t-3 -44zM1452 348q-6 -10 -7 -21.5t-1 -21.5v-14q2 4 4 25.5t4 27.5v2v2zM958 305q4 0 4.5 -5t-4.5 -5q-4 0 -4 5t4 5zM993 326q4 0 4 -5.5t-4 -5.5t-4 5.5t4 5.5zM1374 393l35 137v-20q0 -31 -9 -52.5t-16 -49.5q-4 -16 -4 -44v-45 q-6 10 -6 24.5v25.5v24zM1010 334q4 0 4 -4t-4 -4q-6 0 -6 4t6 4zM1395 334q4 0 4 -4t-4 -4t-4 4t4 4zM793 334h4l-4 4v-4zM788 348q-4 0 -4 -5t4 -5t4 5t-4 5zM1032 348l-10 -4l2 2q2 0 4 2l2 2zM1049 360q-2 -8 -9 0q0 2 4.5 2t4.5 -2zM1448 369q-2 0 -2 -3.5t2 -0.5 q2 0 2 2t-2 2zM711 373q-4 0 -4 -4t4 -4t4 4t-4 4zM1063 369q0 -2 -3 -2t-3 2t3 2t3 -2zM1130 403q-8 -14 -26.5 -17t-32.5 -13q8 10 26.5 20t30.5 10h2zM1063 399q4 0 4 -6t-4 -6t-4 6t4 6zM1018 408q2 -2 2 -5.5t-2 -3.5q-4 -2 -4 4.5t4 4.5zM1090 446q0 -10 8 -16t8 -16 t-10 -15q6 16 -3.5 23.5t-11.5 23.5h9zM1149 408l-8 -5v5h8zM1018 449q0 -10 -1 -25.5t-18 -15.5q0 10 3.5 25.5t15.5 15.5zM1028 430v8t4 8q4 -2 6 -12t2 -14v-2q-2 -2 -2 -4t-2 -2h-2q-6 0 -6 7v11zM1075 418q4 0 4 -5t-4 -5t-4 5t4 5zM1296 485l-8 -8l-123 -65h-6l25 20z M1448 412q0 2 -2 2t-2 -2t2 -2t2 2zM385 438q-4 0 -4 -6t4 -6t4 6t-4 6zM1063 438q4 0 4 -6t-4 -6t-4 6t4 6zM377 451q-4 0 -4 -4.5t4 -4.5t4 4.5t-4 4.5zM997 451q4 0 4 -4.5t-4 -4.5t-4 4.5t4 4.5zM1106 451q4 0 4 -4.5t-4 -4.5t-4 4.5t4 4.5zM1053 461q12 0 9 10t7 10 q6 0 7 -10t1 -14h-13t-11 4zM1014 477q0 2 6 11.5t8 11.5v2q0 6 -7 7t-15.5 3t-15.5 7t-7 16q0 8 6 16l-26 22v17q2 -4 9 -11.5t11 -9.5l8 2q0 8 3 12.5t3 12.5v8t-4 4q6 4 5 5t-1 5q-8 0 -8 11h4v8h-4q-2 0 -3 -1t-3 -1q-2 -2 -4 -2v4q-4 6 -10 6q6 2 6 10t-6 7t-6 10v8 l6 4q0 8 -11.5 18.5t-21.5 10.5l-8 -9q4 4 3 11.5t-7 11.5h10q20 0 37.5 -18.5t34 -44l33 -51t32.5 -38.5v-26q0 -4 2 -9.5t2 -7.5l-4 -6q0 -2 -1 -2t-1 -2q-2 -2 -2 -4v10q0 12 -4 13q6 -8 -7.5 -14.5t-19.5 -8.5q14 -2 19.5 -5t5.5 -6v-7t6 -6q-10 -4 -16.5 -13.5 t-14.5 -9.5q-4 0 -16 12v-20q-6 6 -6 12l-2 2zM1096 485q4 -2 4 -5t-4 -3q-2 -2 -2 4t2 4zM1321 496q-4 -4 -8 -7.5t-8 -3.5h-5zM1018 500q0 -8 -8 -8v8h8zM1053 502q-12 0 -17 -10h4q10 0 17 8zM1092 496q2 0 2 -2t-2 -2q-4 0 -4 2t4 2zM1475 506q-4 0 -4.5 -5t4.5 -5 q4 0 4 5t-4 5zM1081 516q2 0 3 -2t3 -2v-2v-4l-6 6v2v2zM307 530q4 0 4 -5t-4 -5t-4 5t4 5zM1022 535q-2 0 -7 -1.5t-5 -3.5q-2 0 -2 -2v-2q0 -2 2 -2q4 4 6 5.5t6 5.5zM1081 530q4 0 4 -5t-4 -5t-4 5t4 5zM1370 530q4 0 4 -5t-4 -5t-4 5t4 5zM1040 535q-4 0 -4 -5.5t4 -5.5 q6 0 6 5.5t-6 5.5zM1380 535q4 0 4 -5.5t-4 -5.5t-4 5.5t4 5.5zM1475 535q-4 0 -4.5 -5.5t4.5 -5.5q4 0 4 5.5t-4 5.5zM1483 555q-2 0 -2 -6t2 -2q2 0 2 3t-2 5zM1413 567v-4l-12 -12v2v2q2 2 6 7t6 7v-2zM1419 555q4 0 4 -2t-4 -2q-2 -2 -2 1t2 3zM295 569q-4 2 -4 -7t4 -7 q2 2 2 7t-2 7zM377 569q-4 0 -4 -5t4 -5t4 5t-4 5zM1032 569q-4 0 -4 -5t4 -5t4 5t-4 5zM1487 569q-4 0 -4 -5t4 -5t4 5t-4 5zM324 573q4 0 4 -5t-4 -5t-4 5t4 5zM373 573q-4 0 -4 -5t4 -5t4 5t-4 5zM1001 569h9l-9 9v-9zM385 578q-4 0 -4 -4.5t4 -4.5t4 4.5t-4 4.5z M655 588q4 -2 19.5 -7.5t19.5 -7.5h4h9q29 25 48 53.5t34.5 58.5t28.5 60.5t32 63.5q0 2 1 3t1 3q0 8 -16.5 22.5t-38 27t-43 21.5t-29.5 7q-41 14 -83 34.5t-89 20.5q0 -10 -5 -16t-5 -14q12 0 20 -5.5t19 -9.5q6 -4 29.5 -11t29.5 -11l4 -4l119 -54q8 -4 11 -14t3 -18 q0 -10 -10 -39t-23.5 -59.5t-28 -55.5t-22.5 -29l-6 2l-4 2q4 2 6 8.5t4 8.5h-2q-10 0 -18 -3t-19 -3q-55 0 -113.5 27.5t-105.5 51.5h-2h-4q0 -4 -4 -4q0 -2 -2 -2t-2 2q0 4 -2 4t6 5q-25 16 -49.5 29.5t-24.5 47.5q0 45 16.5 83t32.5 79v2v2q-4 4 -10 4l-24 -47h-5 q0 -25 -8 -53.5t-12 -50.5l-4 -4q2 -6 2 -15v-13t2 -11t10 -16.5t10 -14.5q6 -4 10.5 -3t8.5 -5q10 -12 16 -25.5t15 -27.5h16l-2 4l-4 8q-2 4 -2 6q2 0 4 2q2 0 3 1t3 1h4q18 0 30.5 -14t29.5 -14v-11h20l-10 -4q20 -4 33.5 -13t29.5 -18q29 -8 56.5 -9t52.5 -19h-21z M1096 578v-5l-4 5h4zM1427 588v-2q0 -8 -4 -13v5q0 10 4 12v-2zM1110 578q0 -2 -2 -2.5t-2 2.5q0 4 2 4t2 -4zM1137 578h-17q2 2 5 3t5 5h7v-8zM1493 608l-4 -8q-2 -4 -2 -10v-4v-8q0 2 3 3t3 5q2 2 3 11t1 11h-4zM1159 586q-2 -4 -7 -4t-7 4q-2 2 8 2t6 -2zM1413 590 q8 -4 0 -4q-2 -4 -2 0t2 4zM285 594q-4 0 -4 -3t4 -1q2 0 2 2t-2 2zM377 594q-4 0 -4 -4t4 -4t4 4t-4 4zM1214 594q-8 -6 -18 -6h-4q-2 0 -4 2q4 0 10 2t10 2h4h2zM352 598q-4 0 -4 -4t4 -4t4 4t-4 4zM1440 598q2 0 2 -2t-2 -2q-4 0 -4 2t4 2zM598 598q0 2 -4 2t-2 -2 q0 -2 3 -2t3 2zM979 608v-10l-10 10h10zM1288 612q-12 -10 -26.5 -12t-30.5 -2h-8q8 2 28.5 7t26.5 7l4 2zM279 608q-4 0 -4.5 -5t4.5 -5q4 0 4 5t-4 5zM342 608q-4 0 -4 -5t4 -5t4 5t-4 5zM373 608q-4 0 -4 -5t4 -5t4 5t-4 5zM1423 608q4 0 4 -5t-4 -5t-4 5t4 5zM1436 608 q4 0 4 -5t-4 -5q-6 0 -6 5t6 5zM328 616q0 -10 10 -10q0 12 -8 12zM954 612q4 0 4 -4t-4 -4t-4 4t4 4zM1014 612q-4 0 -4 -4t4 -4t4 4t-4 4zM1401 616v-8h-6v8h6zM1448 612q4 0 4 -4t-4 -4t-4 4t4 4zM344 647q2 0 7 -1t7 -3t4.5 -12t-0.5 -15v35l-4 4l-6 -8q0 10 -7 16.5 t-7 10.5v4q0 8 8 8q-8 10 -16 19.5t-19 19.5v51q0 29 1 50.5t7 50.5q4 31 11.5 56t7.5 58q0 10 -11.5 14.5t-19.5 4.5q-6 0 -7 -6.5t-1 -12.5t2 -8t2 -6v-6q0 -4 -3 -15.5t-5 -24.5t-4 -24.5t-2 -13.5q-2 -10 -5 -39t-5 -39l-3 -2h-4q-16 0 -24 14.5t-8 30.5q-12 -4 -15 4 l-4 -4v-16q0 -29 3 -59.5t16 -57.5q2 0 6 -3t4 -5q2 -4 3 -17.5t7 -17.5h2h2q2 2 12.5 5t12.5 3q10 2 14 -4t6 -13t5 -15.5t10 -10.5q0 8 4 8v2l2 2l4 -4q0 -2 2 -2l2 -2q-10 -2 -10 -14v-4l6 10q0 2 4 3t6 1zM377 625q-2 0 -2 -4.5t2 -4.5q4 5 0 9zM1339 659q4 0 9 -12 q2 -6 2 -10q-8 -4 -22.5 -12.5t-27.5 -8.5h-4q12 6 27.5 17.5t15.5 25.5zM324 625v4h-5zM352 629q-4 0 -4 -6.5t4 -6.5t4 6.5t-4 6.5zM954 625h-4l4 4v-4zM1040 786q0 14 29 33t67 35t73.5 29.5t52.5 19.5l18 6t26.5 8.5t27 8.5t16.5 6q4 0 10 2t10 2h2q25 0 36 -16.5 t16.5 -40t5.5 -48v-38.5q0 -29 -6.5 -52.5t-34.5 -38.5q-59 -31 -123 -55t-133 -24q-4 0 -15.5 1t-15.5 1q-8 4 -18.5 27.5t-19.5 51t-16.5 52t-7.5 30.5zM1468 641v-4q-4 -4 -7 -9t-11 -5q0 6 7 11t11 9v-2zM342 629v4h-4zM1409 637l10 -4l-6 -4l-2 2q-2 0 -2 2v2v2z M1487 633q-2 0 -2 -2t2 -2t2 2t-2 2zM268 637q-4 0 -4 -4t4 -4t4 4t-4 4zM311 637q-4 0 -4 -4t4 -4q6 0 6 4t-6 4zM707 637q-6 0 -6.5 -4t6.5 -4q4 0 4 4t-4 4zM285 643q-4 0 -4 -3t4 -3q2 0 2 3t-2 3zM307 643q-2 0 -2 -3t2 -3q4 0 4 3t-4 3zM711 647q-4 0 -4 -5t4 -5t4 5 t-4 5zM299 651q-4 0 -4 -4t4 -4t4 4t-4 4zM889 651q6 0 6 -4t-6 -4q-4 0 -4 4t4 4zM963 651q4 0 4 -4t-4 -4t-4 4t4 4zM1331 651q4 0 4 -4t-4 -4t-4 4t4 4zM1419 647h-10l4 4zM272 664q4 -6 11.5 -8.5t11.5 -4.5v2v2q-2 2 -3 4.5t-3 4.5l-4 4q-2 0 -5.5 -2t-7.5 -2zM936 664 q4 0 4 -6.5t-4 -6.5q-6 0 -6 6.5t6 6.5zM950 664q4 0 4 -6.5t-4 -6.5t-4 6.5t4 6.5zM377 668q-4 0 -4 -6.5t4 -6.5t4 6.5t-4 6.5zM1458 664q2 0 3 5t1 9l2 4h-6v-18zM936 682q2 -2 2 -7t-2 -7q-4 -2 -4 7t4 7zM1346 672q4 0 4 -4t-4 -4t-4 4t4 4zM279 682q-12 0 -13 -12 q13 0 13 12zM328 678q2 0 2 -3t-2 -3q-4 0 -4 3t4 3zM975 678q-4 0 -4 -5t4 -5t4 5t-4 5zM1448 678q-4 0 -4 -5t4 -5t4 5t-4 5zM352 682q-4 0 -4 -2t4 -2t4 2t-4 2zM793 682q-4 0 -4.5 -5t4.5 -5q4 0 4 5t-4 5zM1440 682l4 4h-4v-4zM950 698q2 -6 0 -8q-4 0 -4 4t4 4z M1409 698q4 0 4 -6t-4 -6t-4 6t4 6zM885 702q4 0 4 -6t-4 -6t-4 6t4 6zM1014 717v-10l-4 10h4zM272 711q0 -2 -2 -2t-2 2t4 2t0 -2zM446 717q-4 0 -4 -5t4 -5t4 5t-4 5zM436 721q-4 0 -4 -5t4 -5t4 5t-4 5zM260 725q4 0 4 -4t-4 -4t-4 4t4 4zM260 737l-6 -8v8h6zM1462 737h6 l-6 4v-4zM1452 764q4 0 4 -4t-4 -4t-4 4t4 4zM268 805q10 0 11.5 -7t1.5 -14q0 -4 -1 -9t-8 -11v10l-4 2q-2 -2 -5 -6t-3 -6v2v2q0 6 2 18.5t2 16.5zM1468 768q4 0 4.5 -4t-4.5 -4q-4 0 -4 4t4 4zM1507 776v-8h-6v8h6zM1462 803q4 0 4 -4t-4 -4t-4 4t4 4zM877 809 q-4 0 -4.5 -5t4.5 -5q4 0 4 5t-4 5zM928 809q6 0 6 -5t-6 -5q-4 0 -4 5t4 5zM250 815q4 0 4 -6t-4 -6t-4 6t4 6zM240 823q4 0 4 -2t-4 -2q-4 -2 -4 1t4 3zM1452 838q4 0 4 -2t-4 -2q-2 0 -2 2t2 2zM229 842q4 0 4 -4t-4 -4t-4 4t4 4zM975 854q0 -2 2 -3t2 -3v-4q0 -4 -6 -5 t-10 -1h-5q14 2 10.5 7t6.5 9zM324 848q-4 0 -4.5 -5t4.5 -5q4 0 4 5t-4 5zM1458 858q4 0 4 -5t-4 -5t-4 5t4 5zM1214 868q-10 -8 -1 -9t1 9zM229 903q0 -10 -4 -17t-4 -16q6 0 7 8.5t1 14.5v10zM758 877q4 0 4 -4.5t-4 -4.5t-4 4.5t4 4.5zM233 881q-4 0 -4 -4.5t4 -4.5 t4 4.5t-4 4.5zM754 877q0 -2 -2 -2.5t-2 2.5q0 4 2 4t2 -4zM745 887q4 0 4.5 -5t-4.5 -5q-6 0 -6 5t6 5zM1001 887q6 0 6.5 -5t-6.5 -5q-4 0 -4 5t4 5zM1243 887q-4 -6 -3 -8t4 -1t4 3t-5 6zM221 903q-4 2 -4 -5t4 -5q4 0 0 10zM358 897q-4 0 -4 -5t4 -5t4 5t-4 5zM1032 903 q-6 -10 -14 -10l-2 -2q-2 0 -2 2q4 10 14 10h4zM1006 922q-6 0 -12.5 -5.5t-10.5 -9.5h4h2q2 2 9.5 6.5t11.5 8.5h-4zM229 915q-2 0 -2 -2t2 -2t2 2t-2 2zM1049 911q-2 -2 -9 0q0 2 4.5 2t4.5 -2zM358 922q-4 0 -4 -5.5t4 -5.5t4 5.5t-4 5.5zM1057 922q4 0 4 -5.5t-4 -5.5 t-4 5.5t4 5.5zM229 936q0 -2 -1 -2t-1 -2q-2 -2 -2 -4v-4v-2q4 2 4 10v4zM1102 928q-4 0 -4 -6.5t4 -6.5t4 6.5t-4 6.5zM1014 952q-10 0 -21.5 -9t-11.5 -17q10 0 21.5 8t11.5 18zM1114 932q4 2 0 2t-4 -2q0 -4 2 -4t2 4zM465 946q4 -2 11 -6t9 -4h2h2q-2 0 -3 4t-1 6l4 4 l5 4q4 8 4 17q0 4 -4.5 5t-6.5 1q-10 0 -13 -3t-3 -7t-1 -9.5t-5 -11.5zM508 946q-4 0 -4 -5t4 -5t4 5t-4 5zM1114 946q4 -4 9 -4h10h12l-25 8zM887 954h2q8 0 8 -8h-2h-6q0 2 -2 4t-2 4h2zM1440 961v-11l-13 11h13zM416 961q-4 0 -4 -5.5t4 -5.5t4 5.5t-4 5.5zM430 961 q-4 0 -4 -5.5t4 -5.5t4 5.5t-4 5.5zM1149 954q0 4 -2 4t-2 -4q0 -2 2 -2t2 2zM881 967q2 -4 0 -6q-2 0 -2 3t2 3zM1022 961q4 4 -6 4t-6 -4q6 -6 12 0zM436 971q-4 0 -4 -3t4 -1q4 0 0 4zM1049 971q-6 0 -6.5 -5t6.5 -5q4 0 4 5t-4 5zM1223 967q0 -4 -2 -4t-2 4q0 2 2 2 t2 -2zM745 977q4 0 4.5 -5t-4.5 -5q-6 0 -6 5t6 5zM877 977q2 0 2 -3t-2 -3q-2 -2 -2 2t2 4zM1008 981q0 -10 10 -10v2q0 8 -10 8zM446 981q4 -8 9 -8v8h-9zM1063 977q0 -4 -3 -4t-3 4q0 2 3 2t3 -2zM1436 977q-6 -6 -9 0q0 2 4.5 2t4.5 -2zM436 989q-4 0 -4 -4t4 -4t4 4 t-4 4zM1071 993q0 -2 6 4q2 0 4 2q2 -8 -3 -13t-11 -5v12h4zM1022 993q-4 0 -4 -4t4 -4t4 4t-4 4zM1087 993q4 0 4.5 -4t-4.5 -4q-4 0 -4 4t4 4zM866 999q4 0 4 -5t-4 -5t-4 5t4 5zM1120 999q4 0 4 -5t-4 -5t-4 5t4 5zM645 999h6v7h-6v-7zM711 1006q4 0 4 -6.5t-4 -6.5 t-4 6.5t4 6.5zM733 999q0 -2 -2 -2t-2 2q0 4 3 4t1 -4zM1102 1006q4 0 4 -6.5t-4 -6.5t-4 6.5t4 6.5zM1137 1006q4 0 4 -6.5t-4 -6.5t-4 6.5t4 6.5zM1022 1010q-4 0 -4 -5.5t4 -5.5t4 5.5t-4 5.5zM1092 1010v-4l-5 4h5zM571 1034q10 -10 28.5 -16t33.5 -8v2q0 10 -19.5 17 t-29.5 7q-2 -2 -4 -2h-9zM1036 1016q-4 0 -4 -5t4 -5t4 5t-4 5zM1366 1016q-2 -6 -7 -7t-9 -1v8h16zM1106 1020q2 0 2 -2t-2 -2t-2 2t2 2zM842 1024q4 0 4 -4t-4 -4t-4 4t4 4zM1057 1024q-4 0 -4 -4t4 -4t4 4t-4 4zM905 1307q0 2 2 3t2 5v2v2l-4 4v2q0 6 2 8t2 8v13l-8 -8v8 q-10 16 -12 30.5t-4 34.5v125v113.5t16 109.5l4 -4v56q-4 2 -10 9t-6 13q2 2 6 3t6 3h19h20q6 -2 9 -26.5t4 -52t1 -50.5v-24v-15l-45 -655h-4v283zM1075 1024q2 2 -1 2t-3 -2t2 -2t2 2zM958 1038q10 23 20.5 51.5t14.5 51.5q2 8 11.5 26.5t20.5 40t19.5 40t12.5 26.5 q0 2 2 6l4 8v2v2l-10 -8v4q8 20 16 41q6 16 12 35.5t11 32.5q20 53 40.5 104t36.5 105q8 25 8.5 48t10.5 46h2h4l20 -21h3h2v2q0 2 2 5q0 2 2 4l2 2l2 -2q4 0 5 -6.5t1 -8.5q-23 -53 -37 -106t-37 -103q-41 -98 -82 -193t-88 -190q-10 -14 -16 -27.5t-15 -27.5v10z M1374 1034q4 0 4 -5t-4 -5t-4 5t4 5zM858 1038q4 0 4 -5t-4 -5q-6 0 -6 5t6 5zM1120 1038q4 0 4 -5t-4 -5t-4 5t4 5zM342 1044q-2 0 -2 -3t2 -3q2 2 0 6zM750 1044q-4 0 -4.5 -5t4.5 -5q4 0 4 5t-4 5zM768 1038h4l-4 6v-6zM592 1049q-4 0 -4 -3.5t4 -1.5q8 1 0 5zM1137 1049 q4 0 4 -5.5t-4 -5.5t-4 5.5t4 5.5zM539 1055q-4 0 -4 -5.5t4 -5.5t4 5.5t-4 5.5zM754 1055q-4 0 -4 -5.5t4 -5.5t4 5.5t-4 5.5zM784 1059q-4 2 -4 -5t4 -5q2 0 2 4t-2 6zM750 1059q-4 0 -4.5 -5t4.5 -5q4 0 4 5t-4 5zM553 1063q-4 0 -4 -2t4 -2t4 2t-4 2zM772 1063 q-4 0 -4 -4t4 -4t4 4t-4 4zM823 1063h-4l4 10v-10zM772 1077q-4 0 -4 -5t4 -5t4 5t-4 5zM807 1112q4 -10 4 -14v-13v-8q-4 4 -4 11.5v11.5v12zM1149 1077q0 -2 -2 -2t-2 2q0 4 2 4t2 -4zM768 1104q0 -8 16 -21v7q0 6 -6 10t-10 4zM1176 1096v-2l-7 -7l-4 -4l-2 -2q-2 0 -2 1 t-2 1l17 15v-2zM1278 1225q8 23 19.5 41t19.5 41q16 53 27.5 104t25.5 102q0 4 2 9.5t4 9.5l4 12h6v-20h9v-11q-10 0 -11 -4q0 -2 2.5 -8t2.5 -8q4 4 6 4q0 4 4 10t6 6t8 -1t6 -3t-4 -2q-2 0 -2 -2q0 -4 -2 -13t-2 -13q-4 4 -6 1t-2 -7v-3q0 -4 8 -4q-4 -6 -4 -12v-12 q0 -16 9 -28.5t9 -18.5q0 -8 -2 -10.5t-5 -2.5h-6t-5 -6q8 0 8 -10q0 -2 2 -2l2 -2q-12 0 -12 -6t2 -8t2 -9v-6l-4 -10q0 -2 2 -4q0 -2 2 -4q0 -6 -10 -21.5t-15 -19.5q0 -2 -4 1t-6 3v-10q0 -4 2 -6q4 -8 4 -9q-4 -16 -19 -28.5t-26 -22.5q0 -4 -2 -9t-2 -7q-4 -6 -14 -6 t-6 -13q-16 -6 -20.5 -8t-5.5 -3t-1 -3t-6 -6q-4 0 -11 -3t-10 -3v-2v-2l5 -4v-3q0 -8 -10.5 -15t-18.5 -7v14q-10 -6 -22.5 -15t-24.5 -9h-2q10 10 22.5 17t20.5 18q20 18 26.5 43.5t18.5 48.5q2 2 6 0zM1448 1098q0 2 -2 2t-2 -2t2 -2t2 2zM788 1108q-4 0 -4 -5t4 -5t4 5 t-4 5zM975 1108q4 0 4 -5t-4 -5t-4 5t4 5zM784 1116q-4 0 -4 -4t4 -4t4 4t-4 4zM979 1116q4 0 0 -4q-4 0 -4 3t4 1zM352 1122q4 0 4 -5t-4 -5t-4 5t4 5zM754 1116h10l-6 6zM803 1122q2 -4 0 -6q-2 0 -2 3t2 3zM1249 1122q-4 0 -4 -3t4 -3q2 2 0 6zM1401 1122q-4 0 -4 -3 t4 -3q2 2 0 6zM1335 1137q2 -2 2 -5.5t-2 -3.5q-2 -4 -2 3.5t2 5.5zM983 1137q4 0 4 -2t-4 -2q-2 0 -2 2t2 2zM1440 1133h4v4zM750 1141q-4 0 -4.5 -2t4.5 -2q2 0 2 2t-2 2zM469 1147q4 0 4 -5t-4 -5t-4 5t4 5zM1350 1151l-4 -4v4h4zM1452 1151q-2 2 -2 -1t2 -3q4 0 4 2 t-4 2zM827 1161q-2 0 -2 -3t2 -1q4 0 0 4zM901 1161q4 0 4 -5t-4 -5t-4 5t4 5zM1014 1161q-4 0 -4 -5t4 -5t4 5t-4 5zM1317 1161q10 4 14 11.5t8 17.5h7l-4 -7q-3 -7 -6 -14.5t-7 -11.5t-8 0zM1339 1161q4 0 4 -5t-4 -5t-4 5t4 5zM1440 1176q0 -8 4 -9v19q-4 0 -4 -6v-2v-2z M322 1184l2 2l10 -10l-6 -5q-6 2 -6 9v4zM846 1176q4 0 4 -4.5t-4 -4.5t-4 4.5t4 4.5zM1292 1171h4v5zM1468 1180q-2 0 -3 -2t-3 -2v-2v-3zM1001 1180q4 0 4.5 -2t-4.5 -2q-2 0 -2 2t2 2zM1448 1196q0 -6 4 -10q4 2 9 7t7 9q0 2 -2 4l-4 4h-2q-4 0 -8 -6t-4 -8zM285 1190h10 v6zM1010 1196q4 0 4 -5t-4 -5q-6 0 -6 5t6 5zM1028 1196q-4 0 -4 -5t4 -5t4 5t-4 5zM1356 1196q4 0 4 -5t-4 -5t-4 5t4 5zM299 1307q10 -27 22.5 -54.5t12.5 -56.5h-6q-4 27 -16.5 52.5t-12.5 51.5v7zM778 1202q-4 0 -4 -6t4 -6t4 6t-4 6zM1487 1202q0 2 -2 2t-2 -2 q0 -4 2 -4t2 4zM823 1221q-4 2 -4 -5.5t4 -5.5q2 2 2 6.5t-2 4.5zM1370 1210h-4l4 4v-4zM768 1221v2v2q0 4 -4 4l-4 2l-2 -2zM1462 1225q-2 2 -2 -1t2 -3q4 0 4 2t-4 2zM1513 1225q-4 2 -4 -1t4 -3q2 0 2 2t-2 2zM823 1235q-4 0 -4 -5t4 -5t4 5t-4 5zM285 1241q4 0 4 -6 t-4 -6t-4 6t4 6zM475 1241q-4 0 -4 -4t4 -2q6 0 0 6zM485 1241q-2 0 -2 -4t2 -2q6 0 0 6zM1497 1241q-2 0 -2 -4t2 -2q4 0 4 2t-4 4zM741 1272q0 -10 4.5 -16.5t8.5 -14.5v33l-9 6q0 -2 -1 -2t-1 -2q-2 -2 -2 -4zM823 1249q-4 0 -4 -4t4 -4t4 4t-4 4zM1513 1260 q-4 2 -4 -7.5t4 -7.5q2 2 2 7.5t-2 7.5zM1036 1253q4 0 4 -2t-4 -2q-2 0 -2 2t2 2zM1366 1249h4v4zM1479 1253q-4 0 -4 -2t4 -2q2 0 2 2t-2 2zM475 1268q-4 2 -4 -3t4 -5q2 2 2 5t-2 3zM295 1274q4 -6 0 -10q-4 0 -4 5t4 5zM764 1274q-4 0 -4 -5t4 -5t4 5t-4 5zM1487 1274 q-4 0 -4 -5t4 -5t4 5t-4 5zM1497 1274q-4 0 -4 -5t4 -5t4 5t-4 5zM1049 1280q4 0 4 -6t-4 -6q-6 0 -6 6t6 6zM733 1307v-9.5t4 -9.5v19h-4zM811 1288h8q0 4 -1 12.5t-9 8.5l-2 -2zM750 1303q-4 0 -4.5 -5.5t4.5 -5.5q4 0 4 5.5t-4 5.5zM1067 1315q-2 0 -2 -4t2 -4q2 2 0 8z M295 1319q2 0 2 -2t-2 -2q-4 -4 -4 0t4 4zM455 1315h4l-4 4v-4zM729 1319q-4 0 -4 -6t4 -6t4 6t-4 6zM750 1319q-4 0 -4.5 -4t4.5 0q2 0 2 2t-2 2zM850 1315q0 -4 -3 -4t-5 4q0 2 5 2t3 -2zM1501 1346q4 -4 4 -15.5t-4 -15.5q0 -4 -1 2t-1 13t1 12.5t1 3.5zM285 1346 q4 -4 4 -17v-6q-2 2 -3 7t-1 7v4v5zM838 1337q-12 0 -13 -10h13v10zM1081 1346q-6 -6 -6 -13v-6q6 6 6 14v2v3zM725 1337q-4 0 -4 -5t4 -5t4 5t-4 5zM725 1346q0 4 -3 4t-3 -4q0 -2 3 -2t3 2zM831 1354q-2 2 -4 -2t0 -6q6 0 4 8zM268 1393q8 -4 10.5 -13.5t2.5 -17.5 q0 -2 -1 -2t-1 -2v-4q0 4 -4.5 13l-6.5 13v9v4zM434 1378q0 -12 12 -24v4q0 4 -1 12t-11 8zM807 1362q-2 2 -2 -4t2 -4q4 0 4 3t-4 5zM1092 1358q-4 0 -4.5 -3t4.5 -1q2 0 2 2t-2 2zM1501 1374v-2q0 -2 -1 -9t-3 -9v6q0 12 4 16v-2zM831 1366q-2 0 -2 -2t2 -2t2 2t-2 2z M901 1376q0 -4 2 -10t10 -6q0 2 -2 10t-2 10l-2 4q-2 2 -2 5q-4 -9 -4 -13zM707 1372q-6 0 -6.5 -5t6.5 -5q4 0 4 5t-4 5zM823 1389q-4 2 -4 -8.5t4 -8.5q4 5 0 17zM420 1389q2 -6 0 -9q-2 0 -2 4.5t2 4.5zM698 1393q-4 0 -4 -6.5t4 -6.5q6 0 6 6.5t-6 6.5zM1106 1389 q0 2 -2 2t-2 -2q0 -4 2 -4t2 4zM842 1397q-4 0 -4 -4t4 -4t4 4t-4 4zM420 1411h-4v4zM850 1419q4 0 4 -2t-4 -2q-2 0 -2 3t2 1zM827 1432q0 2 -3 2t-1 -2q0 -4 2 -4t2 4zM1413 1440q4 -2 4 -5t-4 -3q-2 -2 -2 4t2 4zM807 1436v4h-4zM862 1436q-4 -4 -4 0q-2 2 1 2t3 -2z M827 1450q-2 0 -2 -2t2 -2t2 2t-2 2zM254 1454q4 0 4 -4t-4 -4t-4 4t4 4zM862 1454q-4 -4 -4 0q-2 4 1 4t3 -4zM905 1470h4v5zM651 1505q-4 0 -4 -6t4 -6t4 6t-4 6zM807 1505q0 2 -2 2t-2 -2q0 -4 2 -4t2 4zM858 1505q-4 -8 -8 0q0 2 4 2t4 -2zM408 1513l4 7h-4v-7z M641 1520q-2 0 -2 -3.5t2 -3.5t2 3.5t-2 3.5zM412 1544q-2 2 -2 -8t2 -8t2 8t-2 8zM408 1563q-4 2 -4.5 -5.5t4.5 -5.5q2 0 2 4.5t-2 6.5zM408 1587q-4 0 -4.5 -5t4.5 -5q4 0 4 5t-4 5zM1380 1602q2 -2 2 -7.5t-2 -7.5q-4 -2 -4 7.5t4 7.5zM1395 1602q6 -2 6 -11v-4 q-8 2 -8 10zM508 1640q-2 0 -2 -2t2 -2q4 0 4 2t-4 2zM616 1636q0 -2 -3 -2t-3 2t4 2t2 -2zM633 1640q4 0 4 -4t-4 -4t-4 4t4 4zM750 1651q-4 0 -4.5 -5.5t4.5 -5.5q4 0 4 5.5t-4 5.5zM750 1661l2 -2l2 2q0 2 2 2l2 2v4v2zM1683 1665q4 0 4.5 -4t-4.5 -4q-4 0 -4 4t4 4z M446 1671q-4 0 -4 -5t4 -5t4 5t-4 5zM1692 1671q6 0 6 -5t-6 -5q-4 0 -4 5t4 5zM412 1675q-4 0 -4 -5t4 -5t4 5t-4 5zM397 1679q2 0 2 -2t-2 -2q-4 0 -4 2t4 2zM1219 1702q0 -10 -5 -12v8q0 10 5 12v-8zM1409 1696q4 0 4 -6.5t-4 -6.5t-4 6.5t4 6.5zM416 1700q4 0 4 -5 t-4 -5t-4 5t4 5zM129 1704q-6 0 -6 -4t6 -4q4 0 4 4t-4 4zM690 1704q0 -2 -3 -2t-3 2q0 4 3 4t3 -4zM1219 1729q4 0 4 -5.5t-4 -5.5t-4 5.5t4 5.5zM1413 1735q4 0 4 -6.5t-4 -6.5t-4 6.5t4 6.5zM1409 1745q4 0 4 -5t-4 -5t-4 5t4 5zM1751 1745q4 0 4 -5t-4 -5t-4 5t4 5z M1223 1749q4 0 4 -5t-4 -5t-4 5t4 5zM113 1757q-4 0 -4 -4t4 -4t4 4t-4 4zM430 1788q4 0 4 -5t-4 -5t-4 5t4 5zM901 1788q4 0 4 -5t-4 -5t-4 5t4 5zM416 1796v-4h-8v4h8zM627 1802q2 0 2 -4t-2 -6q-4 -2 -4 5t4 5zM455 1812q4 0 4 -5t-4 -5t-4 5t4 5zM659 1896q10 4 36 17.5 t34 17.5q4 0 10 2t11 2q0 -16 -20.5 -19t-31.5 -11q-2 -2 -2 -4t-2 -5q-6 -6 -33.5 -18t-60.5 -24.5t-62.5 -21.5t-39.5 -9h-4q12 4 37.5 13t53 20.5t49 22.5t25.5 17zM627 1851q2 -4 2 -11t-2 -9q-4 -2 -4 10t4 10zM1825 1851q4 0 4 -5t-4 -5t-4 5t4 5zM616 1886 q0 -4 -6 -6h-2h-2q0 2 2 3t2 3h4h2zM711 1905q4 0 4 -4.5t-4 -4.5t-4 4.5t4 4.5zM729 1901q0 -2 -2 -2.5t-2 2.5q0 2 2 2t2 -2z" />
<glyph unicode="&#xa3;" horiz-adv-x="1818" d="M49 -119q0 33 14.5 57.5t34 47t40 44t34.5 46.5q0 2 4 13t6 17q4 18 20.5 45t34 54.5t31 51.5t13.5 36v436q0 2 5 25.5t12 56.5t14 67.5t12 57.5q18 86 59 146.5t121 97.5q2 2 13 6t24.5 10t25 12t11.5 15q0 16 -4.5 27.5t-4.5 27.5q0 18 14.5 26.5t14.5 24.5t-23.5 22.5 t-33.5 16.5q-51 63 -92 140t-41 159q0 43 12 62.5t33.5 27.5t51.5 12.5t64 16.5q4 2 19.5 9t17.5 9q6 2 19.5 3t29 2t28.5 2t19 1q35 84 103.5 128.5t161.5 44.5h22.5t27.5 -4.5t23.5 -12.5t10.5 -22v-209q18 -16 37.5 -40t37 -50.5t27.5 -55t10 -55.5q0 -29 -23.5 -42 t-52 -28.5t-52 -40t-23.5 -73.5q0 -41 23.5 -62.5t56 -37t68.5 -33t61 -48.5q158 -201 227 -442q6 -27 17.5 -72t22.5 -88t18 -76.5t7 -37.5v-322q0 -27 27 -49.5t59.5 -52t59.5 -69.5t27 -101q0 -4 -1.5 -15.5t-1.5 -13.5l-10 -10q-2 -2 -36.5 -4t-91 -5t-127 -6.5 t-142.5 -6.5t-139.5 -5t-114.5 -2h-346q-59 0 -130 -1t-144.5 0t-147.5 3t-139 8q-66 8 -66 78zM956 -188q23 2 -19 3t-115.5 2t-163 1t-163 -1t-114.5 -2t-19 -3q23 -2 69 -3.5t104.5 -1.5h124h124t104 1.5t68.5 3.5zM995 -188q0 6 -7 6t-3 -6q4 -10 10 0zM1249 -168 q-8 0 -8 -10t8 -10t8 10t-8 10zM70 -119q0 -10 6 -24.5t10 -24.5h33q66 0 122 11.5t121 4.5q10 14 31 12.5t31 -1.5q82 0 162 -5.5t164 -5.5h131l10 11l8 -11h453q8 0 27.5 -3t43 -5t43 -5t27.5 -3h6h4q8 0 32 1t49.5 2t48 3t32.5 4v27q0 49 -26.5 86t-59.5 66.5t-59.5 53 t-26.5 48.5v321q0 2 -3 19.5t-8 40t-9.5 46t-6.5 38.5q-37 158 -100 302t-166 273q-18 27 -52 41.5t-66.5 29.5t-58.5 34.5t-28 54.5q-4 8 -6 32.5t-4 33.5q4 2 12.5 14t18.5 26.5t19 27.5t16 18q2 2 17 8t31.5 14t31 18.5t14.5 20.5v4q-2 6 -8.5 22.5t-13.5 35t-14 35 t-11 22.5q-10 18 -22.5 30.5t-23 22.5t-16.5 23.5t-6 35.5q0 35 5 71t5 71q0 37 -22.5 47t-50.5 10q-23 0 -55.5 -6t-65.5 -18.5t-59.5 -30t-38.5 -41.5q0 -2 -4.5 -12.5t-9.5 -20.5t-9 -20.5t-6 -12.5q0 -2 -3 -6t-7 -4q-68 0 -127.5 -22.5t-126.5 -34.5 q-18 -10 -22.5 -29.5t-4.5 -40.5q0 -55 25.5 -110.5t50.5 -102.5q4 -10 24.5 -29.5t42.5 -42.5q25 -25 56 -53v-6q-4 -4 -19.5 -23.5t-19.5 -23.5v-6q0 -14 6 -17.5t13 -4.5t13.5 -3t6.5 -12q0 -14 -23.5 -29.5t-54.5 -30t-60.5 -27.5t-42.5 -22q-47 -35 -66.5 -82 t-28.5 -100t-17 -106.5t-31 -98.5v-387q0 -37 -10 -63.5t-24.5 -50t-30 -48t-27.5 -55.5q-12 -33 -23.5 -64.5t-35.5 -58.5q-25 -31 -53.5 -57.5t-28.5 -71.5zM778 -131q4 0 4 -10.5t-4 -10.5q-8 0 -8 10.5t8 10.5zM920 -131q4 -2 4 -6t-4 -4t-4 5t4 5zM664 252q0 6 11 18.5 t24.5 28.5t25.5 34.5t14 35.5q0 6 -1 14t-1 18v21h-73v92h45v139q0 33 20.5 56.5t50 39t62 21.5t57.5 6q33 0 65.5 -8t60.5 -26.5t45 -46t17 -66.5v-6q-25 -8 -51 -10.5t-51 -6.5q-12 6 -16 18.5t-10.5 25t-17.5 21.5t-38 9q-35 0 -57.5 -14.5t-22.5 -55.5q0 -4 2 -19.5 t5.5 -31.5t6.5 -30.5t7 -14.5h123v-98h-97q-8 -35 -20 -69t-35 -62q41 -2 82 -11.5t82 -9.5q23 0 41 5t41 5h8q2 -4 9 -15t13.5 -24.5t11.5 -27.5t5 -23q0 -8 -15.5 -14t-34 -10t-35.5 -6t-22 -2q-47 0 -92 15t-94 15q-33 0 -55.5 -7t-50.5 -23q-8 4 -16.5 16t-14.5 26.5 t-10 30t-4 27.5zM719 350q8 0 8 -10t-8 -10t-8 10t8 10zM985 1190h2q2 0 2 1t2 1q16 0 46 -12.5t40 -26.5q2 -4 -1 -10t-3 -8h17q0 -14 -14.5 -21.5t-24.5 -7.5q-4 0 -16.5 1t-26 3t-26.5 3t-15 1q-4 0 -15.5 -2t-15.5 -6v8zM795 1124q4 0 4 -4t-4 -6q-4 0 -4 5t4 5z M768 1153q8 0 8 -9t-8 -9t-8 9t8 9zM795 1143h-11l11 10v-10zM801 1192l4 -2q0 -20 -21 -21l-6 2q0 4 7.5 10.5t9.5 8.5zM784 1210q16 0 23.5 13.5t7.5 23.5t-6 27.5t-14 28.5l59 28v-8q0 -41 -2 -82t-37 -70v39h-31zM844 1190q8 0 8 -9.5t-8 -9.5t-8 9.5t8 9.5zM596 1237 q-6 0 -6 -9t6 -9q8 0 8 9t-8 9zM778 1303q4 0 4 -8.5t-4 -8.5q-8 0 -8 8.5t8 8.5zM784 1323q8 0 8.5 -10t-8.5 -10q-4 0 -4 10t4 10zM844 1352q8 0 8 -10.5t-8 -10.5t-8 10.5t8 10.5zM719 1368q8 0 8 -8t-8 -8t-8 8t8 8zM870 1503v10q-2 4 -4 13.5t-6 19.5t-6 23h-14 q0 4 2 14t12 12l-20 11l36 18l50 -45q-2 -4 7 -26.5t21.5 -52.5t22.5 -59.5t10 -45.5q-12 0 -27.5 14t-29 32.5t-22.5 36t-9 25.5h-23zM664 1438l-21 -21v10q0 14 10 17zM672 1427q4 -4 0 -8t-8 -2t1 8t7 2zM578 1475q0 6 5 19t13 19q-6 -8 -2 -14t10 -10t13.5 -8t9.5 -6 q0 -2 -5.5 -9.5t-5.5 -11.5q0 -2 4.5 -9t6.5 -7h-6q-14 0 -26.5 12.5t-16.5 24.5zM643 1464q8 0 8 -10t-8 -10q-6 0 -6 10t6 10zM596 1483q-6 0 -6 -9.5t6 -9.5q8 0 8 9.5t-8 9.5zM588 1550q-2 -10 -7.5 -34.5t-21.5 -24.5q0 10 9.5 31.5t19.5 27.5zM616 1513q8 0 8.5 -10 t-8.5 -10q-8 0 -8 10t8 10zM596 1540q8 0 8 -10t-8 -10q-6 0 -6 10t6 10zM653 1589q8 0 8.5 -10t-8.5 -10q-8 0 -8 10t8 10zM682 1595q8 0 8 -8t-8 -8t-8 8t8 8zM1012 1606v-11l-11 11h11zM653 1700q4 10 12.5 15t16.5 5q20 0 20 -24v-4q0 -6 -2 -18.5t-3 -26t-3 -25.5 t-2 -16q-14 12 -28.5 43t-10.5 51zM985 1634q8 0 8 -9t-8 -9t-8 9t8 9zM844 1634q-6 -10 -10 0q-2 4 5 4t5 -4zM967 1645q6 0 6 -10.5t-6 -10.5q-8 0 -8 10.5t8 10.5zM877 1729q25 0 47 -23t22 -47v-14q-16 12 -39.5 35.5t-36.5 48.5h7zM643 1671q8 0 8 -8t-8 -8q-6 0 -6 8 t6 8zM616 1747q2 2 8.5 6t10.5 4h4h4l-16 -20zM844 1757q8 0 8 -10t-8 -10t-8 10t8 10z" />
<glyph unicode="&#xa4;" horiz-adv-x="2179" d="M41 807q0 305 140.5 547.5t408.5 396.5q72 39 151.5 61.5t151.5 51.5q37 14 54.5 37.5t32.5 45t38.5 38t73.5 16.5q63 0 88.5 -15.5t38 -38t23.5 -46t48 -37.5q72 -29 152 -51.5t151 -61.5q262 -152 405.5 -392.5t143.5 -543.5q0 -217 -82 -408.5t-225 -334t-334.5 -224 t-408.5 -81.5q-215 0 -405.5 80.5t-334 222t-227.5 331t-84 406.5zM158 827q0 -188 72.5 -354t197.5 -289t291 -194.5t354 -71.5t352 71.5t285 195.5t190.5 290t69.5 352q0 133 -36 258t-103.5 233.5t-165.5 196t-223 142.5q-4 0 -27.5 10t-52.5 21.5t-55.5 19.5t-36.5 6 q-39 -10 -56.5 -23.5t-30 -25.5t-30.5 -21.5t-61 -9.5q-41 0 -66 12.5t-43 28t-34.5 27.5t-41.5 12q-104 0 -200.5 -40t-180.5 -106.5t-151.5 -155.5t-115.5 -187.5t-74.5 -201t-26.5 -196.5zM799 846q0 61 21.5 116.5t60.5 96.5t93 64.5t118 23.5q63 0 119.5 -19.5 t99.5 -56.5t67.5 -90t24.5 -121q0 -66 -21.5 -124t-60.5 -101t-95.5 -68.5t-123.5 -25.5q-63 0 -118.5 23.5t-96.5 65.5t-64.5 97.5t-23.5 118.5z" />
<glyph unicode="&#xa5;" horiz-adv-x="2758" d="M154 -262q-29 78 -45.5 153.5t-16.5 159.5q0 133 43 251t115 216t163 177t189 134q4 18 7 26.5t16 14.5q84 41 168 89.5t159.5 107.5t140 134t111.5 171q2 2 7.5 15.5t12.5 29t13 29.5t10 20q0 4 4 14.5t4 14.5l5.5 16.5t7.5 20.5t6 24q0 4 -1 16.5t-4 26t-6 23.5t-3 14 q-16 66 -54.5 119t-86.5 96t-102 77t-106 63q-4 0 -4 8v4l2 2q23 6 55.5 6h55.5q63 0 119.5 -7t115.5 -36q57 -25 108.5 -70t90.5 -104t61.5 -128t22.5 -138q0 -35 -2 -71t-2 -73q0 -104 18.5 -191t55.5 -163t89 -145.5t120 -141.5q4 -6 16 -18t26.5 -25.5t26.5 -24.5 t17 -16q4 -2 7 -10t5 -12l4 -4v-27q0 -4 4 -4q150 -98 320 -98h61q2 2 13.5 4t24.5 5t25.5 5t18.5 2q2 2 14.5 5t25.5 7.5t26.5 8.5t19.5 8q4 0 16.5 4t14.5 4h4l73 33h5q16 4 27 8t26 14q2 2 13 11.5t24.5 19.5t25 19.5t13.5 11.5q10 8 22 8q0 -41 -18.5 -81t-34.5 -75 q-47 -94 -103.5 -153.5t-124 -93t-146.5 -47t-167 -13.5q-104 0 -196.5 25.5t-184.5 83.5h-6q-10 0 -13 -9.5t-13 -9.5t-19 6q-150 98 -298 163t-322 65q-98 0 -189.5 -13.5t-185.5 -40.5h-10q-12 0 -18.5 10.5t-16.5 20.5q-113 -55 -193 -137t-137 -184.5t-96 -222 t-70 -248.5h-6q-10 0 -14 10zM125 -76q0 -47 7 -89t30 -85l6 6q23 96 53.5 191.5t71.5 184.5t97 167t130 139q14 12 33.5 26.5t41 29t42 26.5t39.5 17q0 4 -2 6q-4 4 -4 6l-6 14q-4 6 -8.5 28.5t-10.5 46.5t-11 42t-9 20q-35 -25 -59.5 -45t-55.5 -49q-12 -12 -25.5 -35.5 t-25.5 -33.5l-4 6h-2q-4 0 -21.5 -22.5t-38 -50.5t-38 -52.5t-17.5 -26.5l-4 2l-12 -31l-11 7q-6 -12 -13 -23.5t-13 -23.5q0 -4 2 -8.5t-2 -4.5l-11 -4q-8 -6 -14 -24.5t-6 -28.5q0 6 -4 10h-2q-2 0 -6 -13t-9.5 -30.5t-11.5 -31t-10 -13.5q0 -20 -12.5 -40.5t-16.5 -39.5 q-2 4 -4 1t-3 -9t-1 -12v-8q-10 -31 -21.5 -65t-21.5 -64q-12 0 -12 -13h6zM100 55q0 -25 1 -43t5 -47h7q2 0 3 8.5t1 14.5q-2 2 -2 4q-2 2 -2 8q0 10 6 27.5t13 37t14.5 37t11.5 27.5q82 186 193.5 329.5t269.5 254.5v8q0 4 -2.5 17.5t-4.5 28.5t-4 27.5t-4 12.5h-4 q-25 -10 -50.5 -26.5t-45.5 -32.5q-6 -4 -19.5 -13.5t-27 -19.5t-23.5 -19.5t-12 -11.5q-6 -4 -20.5 -15.5t-30 -25.5t-27.5 -25.5t-18 -15.5q-2 -4 -9.5 -12t-15.5 -17.5t-15 -18.5t-9 -11q-37 -47 -70 -105.5t-56.5 -122t-38 -130.5t-14.5 -130zM158 57q-4 0 -4 -5t4 -5 t4 5t-4 5zM188 141q-4 0 -4 -6t4 -6t4 6t-4 6zM1827 422l-4 -6q-6 -8 -14.5 -20.5t-16.5 -22.5q-8 -12 -16 -27v-6q8 -4 16 -10q14 -10 25 -15q4 -2 29.5 -12t37.5 -14q6 -4 29.5 -11.5t32.5 -9.5q6 -2 21 -6t32.5 -8t31 -8t17.5 -4q25 -4 54.5 -5t56.5 -1q59 0 124.5 13 t128 40.5t117 69.5t88.5 98h-2q-6 0 -28.5 -10.5t-24.5 -14.5l-90 -33h-4q-78 -25 -159 -36t-167 -11q-82 0 -157.5 20.5t-153.5 49.5h-2h-2zM270 283q4 0 4 -4.5t-4 -4.5t-4 4.5t4 4.5zM1942 338q0 10 20 10q8 0 23 -2q8 0 32.5 -3t51 -10t48 -17.5t21.5 -24.5 q0 -10 -16.5 -12.5t-20.5 -2.5q-8 0 -34.5 3.5t-54 10.5t-49 19.5t-21.5 28.5zM301 336q2 0 2 -2t-2 -2q-2 -2 -2 2t2 2zM2236 391q0 -6 2 -8l5 -4h2q25 0 49 14l2 2l2 -2l6 -2l2 -4l2 4q2 2 6 4l8 4v2q8 0 9.5 -4t11.5 -4t14 7.5t15 9.5l4 -4q2 -2 4 -3q4 0 11 6.5t9 6.5 q20 8 42 13t42 13q4 4 24.5 9.5t24.5 5.5l13 12l59 27q0 -2 16.5 3t20.5 5q0 4 1 8t3 4q29 35 45 62.5t27 80.5h-4q-43 -41 -102.5 -72.5t-125 -53t-131 -33t-121.5 -11.5q-76 0 -157.5 21.5t-147.5 62.5q-4 2 -9 8.5t-5 8.5q-6 -4 -12.5 -15.5t-10.5 -24.5t-8 -26.5 t-8 -19.5q-10 -20 -24.5 -33.5t-20.5 -38.5q6 -2 20.5 -7t30.5 -10t30.5 -9.5t20.5 -6.5q8 -4 26.5 -6t22.5 -2q2 0 9.5 1t11.5 1l8 -2q2 0 11.5 1t11.5 1h10q0 -4 1 -5t-7 -3l174 2v-4q4 0 12 1t12 7zM2187 399q4 0 4 -4t-4 -4t-4 4t4 4zM362 403h-4l4 7v-7zM1505 549 q12 4 42 -18.5t67 -51t72.5 -53.5t60.5 -25q0 23 -9 37.5t-20 30.5q-51 80 -119.5 150.5t-152.5 103.5q-8 4 -36 15.5t-38 15.5h-8q-16 0 -34.5 -5.5t-37.5 -5.5q-39 0 -73.5 11.5t-63.5 29.5q-4 0 -16.5 1t-16.5 1q-90 0 -165.5 -30.5t-149.5 -87.5q-25 -18 -51.5 -37 t-44.5 -47h4q94 37 182 56t188 19q113 0 216.5 -25.5t203.5 -84.5zM2353 403q-4 -4 -4 0t2 4t2 -4zM2437 426q-4 0 -4 -5t4 -5t4 5t-4 5zM1397 770q35 -20 69.5 -35.5t67.5 -38.5q16 -10 34.5 -28.5t33.5 -30.5q4 -2 20 -16.5t23 -18.5q10 -10 28.5 -37.5t38 -57.5 t34.5 -52.5t19 -22.5q10 0 23.5 14.5t25 34t20.5 38t13 24.5q6 6 20.5 30.5t18.5 32.5v2q0 2 1 2t1 2q0 10 -8 17.5t-19.5 11.5t-23.5 6t-20 6q-10 4 -29 12.5t-23 8.5q-4 2 -26.5 17.5t-32.5 21.5q-55 35 -102.5 80t-90.5 96h-8q-16 -39 -42.5 -64.5t-57.5 -48.5 q0 -6 -8 -6zM2617 469h4q6 0 11 4zM1839 479q-2 0 -2 -5t2 -5q4 0 4 5t-4 5zM1864 504q-10 -2 -11 -15v-4zM324 526q0 4 4 17q14 20 32.5 41.5t40 40t45 30t48.5 11.5q0 -18 -19.5 -44t-46.5 -49.5t-55.5 -40t-44.5 -16.5q-4 0 -4 4v6zM1868 520q-4 0 -4 -5t4 -5t4 5t-4 5z M682 567q-4 0 -4 -5t4 -5t4 5t-4 5zM670 590q-2 0 -2 -5t2 -5q4 0 4 5t-4 5zM664 606q-4 0 -4.5 -2t4.5 -2q4 0 0 4zM649 762q0 -12 3 -38t9.5 -52.5t13.5 -47t17 -20.5h4q2 0 4 2q80 80 174.5 135.5t204.5 65.5q6 0 23.5 3t21.5 3v4q-25 35 -38 66.5t-21 74.5l-113 -71 q-23 -8 -43 -19.5t-43 -25.5q-35 -18 -90 -26.5t-90 -14.5q-14 -2 -20.5 1t-16.5 -7v-33zM659 614q-2 4 -2 0t2 -2q2 0 2 1t-2 1zM655 633q-4 0 -4 -6t4 -6t4 6t-4 6zM1886 649q0 -4 4 -4q2 -2 4 -2v2v4q-2 0 -4 2q-2 0 -4 2v-2v-2zM1706 727q35 -23 80 -46.5t86 -23.5v9 q-2 0 -2 2v6q-2 4 -2 6q-8 6 -29.5 25.5t-28.5 25.5q-6 8 -22 26.5t-33.5 39t-33 39t-19.5 24.5q-63 76 -99 149.5t-53.5 150.5t-21.5 162t-4 187q-14 0 -29.5 -25.5t-29 -59t-21.5 -64.5t-10 -41q-8 -27 -7.5 -40t0.5 -48v-55q6 -6 7.5 -27t11.5 -37q4 -4 15.5 -20.5 t13.5 -20.5q23 -37 28.5 -67.5t5.5 -75.5q39 -51 73 -92t85 -82q10 -8 19.5 -11.5t19.5 -15.5zM1090 958q2 -6 4 -24.5t6 -22.5q2 -2 2 -4q0 -6 2 -6q16 -66 70.5 -99.5t115.5 -33.5q84 0 144.5 49t60.5 154q0 43 -19.5 76.5t-48 57t-64.5 35t-69 11.5q-35 0 -68.5 -13.5 t-62.5 -33.5q-33 -25 -48 -61.5t-25 -77.5v-2v-5zM1116 963q0 41 15.5 70.5t41 50t57.5 29.5t64 9q31 0 63 -9t56.5 -28.5t39.5 -50t15 -71.5q0 -37 -15 -69t-41 -55.5t-56.5 -35.5t-61.5 -12q-33 0 -64.5 11t-57 33.5t-41 54.5t-15.5 73zM1163 877q0 -4 9.5 -13.5 t13.5 -15.5q23 -20 53.5 -27.5t58.5 -7.5q59 0 93 26.5t63 84.5q0 4 1 17t1 17q0 23 -2 41.5t-16 34.5q-8 -80 -52.5 -136t-115.5 -56q-33 0 -54.5 8t-52.5 31v-4zM676 870q-10 -6 -24.5 -19t-14.5 -26q117 0 222.5 43t199.5 119q16 12 25.5 42t23.5 46q25 35 52.5 50.5 t56.5 35.5q16 8 28 34t22.5 54.5t16.5 58t10 48.5q0 2 1 8t3 8v47q0 29 -2 56.5t-12 54.5q-43 -139 -120 -260t-187 -205q-41 -31 -76 -57.5t-70.5 -50t-72.5 -45.5t-82 -42zM1137 979q0 -29 13 -50.5t33.5 -35.5t44 -21.5t44.5 -7.5q8 0 25.5 4t34 10.5t29.5 16.5t15 23 q-23 -6 -41 -14.5t-41 -8.5q-53 0 -91 35t-54 92q-8 -6 -10 -19.5t-2 -23.5zM1157 889q-2 0 -2 -4t2 -4q4 0 4 4t-4 4zM1141 918q-4 0 -4 -5.5t4 -5.5t4 5.5t-4 5.5zM1182 989q0 -16 12 -28.5t30.5 -22.5t37 -15t30.5 -5q29 0 59.5 15t45.5 48q-43 -43 -101 -43 q-16 0 -37.5 7t-33.5 3l-43 45v-4zM1386 928h3q4 0 6 7t2 11zM1171 1059q0 -25 13.5 -43.5t33 -30.5t41 -19.5t37.5 -7.5q18 0 40 7.5t39.5 19.5t29.5 31.5t12 44.5v4q-31 27 -56.5 35t-64.5 8h-43q-6 0 -20 -4t-27.5 -10.5t-24 -15.5t-10.5 -19zM1178 1006q-4 0 -4 -4.5 t4 -4.5t4 4.5t-4 4.5zM1167 1022q-4 0 -4 -5t4 -5t4 5t-4 5zM1247 1167q49 2 83 -5t79 -23q0 59 5 124.5t24 125.5q2 8 9 25.5t15 35.5t15.5 31.5t9.5 17.5l10 10l-10 11q-2 0 -18.5 4t-26.5 6q-27 4 -55.5 8t-57.5 4q-4 0 -16.5 -1t-12.5 -13q0 -25 13 -49v-117 q-10 -12 -9 -25.5t-4 -27.5q-6 -37 -21.5 -74t-31.5 -68zM1522 1526q0 2 -4.5 2t-4.5 -2q0 -4 4.5 -4t4.5 4zM1497 1546q4 0 5 -4t1 -6h21q0 16 -11.5 29.5t-17.5 23.5h-8q4 -10 6 -16t2 -14v-7l-8 9l-2 4l-2 -4l-2 -2q-2 0 -2 -3h-4v-4q0 -2 1 -6t3 -4t9 2t9 2zM932 1997 q72 -41 132 -81t106.5 -92t77 -119t42.5 -159q10 4 19.5 5t19.5 1q23 0 44.5 -4t43.5 -4q0 20 -10 50t-25.5 62t-32 60.5t-28.5 46.5q-2 2 -9 13.5t-16.5 23.5t-16.5 22.5t-9 12.5q0 4 -1 8t-5 4q-23 25 -46.5 46.5t-46.5 50.5h-8l4 2q-8 14 -14 17t-16 3v10h-21v9 q-2 4 -6 6q-8 4 -10 6q-20 4 -46 5t-42 1h-39t-41 -6zM1427 1556h5h2q0 2 2 5.5t2 5.5v2v4zM1427 1573q-4 0 -4 -6t4 -6t4 6t-4 6zM1454 1567h4v6zM1479 1577q-2 0 -2 -2t2 -2t2 2t-2 2zM1454 1589q-4 0 -4 -6t4 -6t4 6t-4 6zM1505 1589q-4 0 -4 -6t4 -6t4 6t-4 6z M1421 1593q-4 0 -4 -5t4 -5t4 5t-4 5zM1483 1606q-4 0 -4 -6.5t4 -6.5t4 6.5t-4 6.5zM1450 1612q-4 0 -4 -6.5t4 -6.5t4 6.5t-4 6.5zM1438 1614q-4 0 -4 -4t4 -4t4 4t-4 4zM1464 1614q-4 0 -4 -4t4 -4t4 4t-4 4zM1475 1614q-4 0 -4.5 -4t4.5 -4q4 0 4 4t-4 4zM1468 1624 q0 -2 2 -2t5 -2h2h2l-11 10v-2v-4zM1413 1624h4l-4 6v-6zM1386 1636q4 0 4.5 -6t-4.5 -6q-4 0 -4 6t4 6zM1405 1659q-6 0 -6 -6t6 -6q4 0 4 6t-4 6zM1376 1663q-4 0 -4 -5t4 -5t4 5t-4 5zM1405 1667q-6 0 -6 -4t6 -4q4 0 4 4t-4 4zM1395 1677q-4 0 -4 -5t4 -5q2 0 2 5t-2 5z M1458 1677q-2 0 -2 -3t2 -3q6 6 0 6zM1391 1683q2 0 2 3q0 4 2 4v2v2zM1386 1700q-4 0 -4 -5t4 -5t4 5t-4 5zM1454 1700q-4 0 -4 -5t4 -5t4 5t-4 5zM1376 1716q-2 0 -2 -3t2 -3q6 0 0 6zM1442 1724v7h-4zM1434 1741q-4 0 -4 -5t4 -5t4 5t-4 5zM1434 1753q-4 0 -4 -6t4 -6 t4 6t-4 6zM1427 1753v4h-6zM1409 1778q-4 0 -4 -4.5t4 -4.5t4 4.5t-4 4.5zM1397 1784q-2 0 -2 -4t2 -4q6 0 6 4t-6 4z" />
<glyph unicode="&#xa6;" horiz-adv-x="802" d="M37 106q0 29 22 35q4 6 8.5 24.5t4.5 22.5t-2 14.5t-2 14.5l274 1016l12 33q6 6 18.5 23.5t26 35.5t25.5 35.5t16 23.5q0 4 3 7.5t3 5.5l52 170q4 10 9 24.5t7 20.5q29 98 60.5 188t97.5 170q2 2 17.5 19.5t23.5 23.5q8 12 18 12q2 -2 4 -2t4 -2q16 -55 20.5 -101 t4.5 -99q0 -121 -27.5 -238t-56.5 -233q0 -2 -1 -13.5t-1 -15.5q0 -37 6 -73t6 -70v-15l-268 -1038q-16 -16 -21.5 -31.5t-11.5 -40.5q12 -8 12 -18q0 -20 -11 -26.5t-28 -6.5h-20q-8 2 -28.5 6t-45 10.5t-47 10.5t-31.5 6q-39 10 -69.5 22.5t-65.5 28.5q-14 8 -16 9t-2 11z M242 53q10 -6 34.5 -11t24.5 -19l2 2q6 0 6 6v-6q8 4 15.5 6t13.5 4q-10 4 -40 10l-40 8h-8h-8zM174 74q-4 0 -4 -4t4 -4t4 4t-4 4zM190 74q-4 0 -4 -4t4 -4t4 4t-4 4zM168 82q-4 0 -4 -6t4 -6t4 6t-4 6zM147 86q-6 0 -6 -6t6 -6q4 0 4 6t-4 6zM270 154q2 -8 10.5 -13.5 t19.5 -7.5t21.5 -2h16.5h13t11 2l17 33l43 166v4q14 41 22.5 82t18.5 82q2 0 2 2t2 4t2 6t5 25.5t7 25.5q2 6 4 18.5t7 16.5l49 180q6 6 10 20.5t7 30t5 29.5t2 23q0 12 -4 20h12q0 53 16.5 99.5t31.5 95.5q10 29 15 56.5t15 49.5v49q0 8 1 24.5t0 34t-5 33t-14 19.5 q2 2 9 5t9 7l39 154q-4 27 5.5 56.5t17.5 55.5q14 51 22 107.5t8 110.5q0 29 -2 46t-6 50q-10 4 -13 13t-3 20q-16 -10 -19.5 -34t-19.5 -34q-4 -8 -14.5 -29.5t-20.5 -44t-18.5 -44t-10.5 -29.5q-2 -6 -9 -32t-14 -56.5t-14.5 -56t-7.5 -32.5q-4 -18 -11 -35.5t-7 -33.5h18 q0 -2 3.5 -8.5t3.5 -8.5q-4 -2 -12.5 -10t-12.5 -10q2 4 1 9t-5 7q-8 -23 -18.5 -45t-10.5 -45q0 -8 8.5 -10t18.5 -2t20.5 -2t14.5 -10h-58l-16 -11q-2 -2 -16.5 -26.5t-22.5 -36.5q-20 -33 -29 -68q-2 -10 -8 -36.5t-14 -56.5t-14.5 -56.5t-8.5 -36.5q-10 -20 -19 -48 t-9 -50q0 -6 6 -9l-11 -8q-4 0 -7 -15t-5 -24q-4 -14 -9 -37.5t-11 -48t-13.5 -45t-13.5 -28.5q0 -8 -5 -29t-10 -44.5t-10.5 -45t-7.5 -29.5q-2 -4 -9 -25.5t-7 -25.5q-4 -23 -5 -48.5t-7 -47.5q-14 -53 -36 -107.5t-22 -111.5q0 -14 17 -15q0 20 15 39t20 37q4 16 11 39.5 t11 40.5q8 16 19.5 29.5t17.5 31.5q16 68 32.5 134.5t39.5 132.5q6 20 9 37.5t13 35.5l25 107q4 8 11 26.5t9 24.5v6v2q0 2 -2 10.5t-2 10.5v4q0 4 3 14t7 12v39q12 8 11.5 17.5t11.5 23.5q2 0 3 3t3 5q10 31 16.5 65t28.5 54q0 -2 1 -6t1 -6q0 -23 -7 -43.5t-7 -40.5 q0 -8 3 -10t3 -11q0 -4 -1 -8t-9 -2q0 -2 2 -4q0 -2 2 -4h6q10 -10 12 -18.5t3 -16.5t5 -16t21 -17q0 2 2 6.5t2 6.5q2 0 4 -2q0 -14 -16.5 -14.5t-26.5 -0.5q10 -10 23.5 -14t23.5 -16q-4 0 -15 3t-14 -7q-2 0 -4 2q-2 0 -4 2v2q-16 0 -16 16q-2 -2 -6 -8t-4 -10v-2v-2 l4 -5q-2 -10 -11.5 -6t-9.5 -6q0 -2 1 -7t3 -5h-2h-2q-2 0 -9 2t-9 2q-2 -2 -4 -2t-2 -2v-2v-4q0 -2 3 -8.5t3 -8.5h-12v-4q0 -2 2 -2q0 -2 5 -5t5 -5q2 -2 -2 -6t-4 -6t3 -6.5t3 -6.5q-2 2 -10.5 0t-12.5 -4q-2 -2 -1 -11t1 -11q-2 -10 -5 -12.5t-7 -4.5t-7 -7t-3 -17l4 -4 l2 -4l-2 -2q-2 -4 -4 -7q-2 -2 -2 -4t-2 -2l-2 -2l2 -2q0 -4 2 -5t2 -3q-8 -10 -18.5 -35.5t-10.5 -42.5v-2q2 0 6 -2t6 -2v-16q0 -12 -3 -30t-15 -22v2v2q2 4 4 15.5t2 15.5v4v6q-10 -6 -14 -19t-4 -24q0 -14 12 -18q-18 -14 -28.5 -45t-4.5 -53l-8 6q-18 -27 -16 -66 t-4 -69q0 -4 -4.5 -18.5t-7.5 -31t-7 -31t-4 -18.5v-16q-2 -8 -7 -22.5t-10.5 -30t-9.5 -28.5t-2 -21zM207 178q-2 4 -5 -1t1 -5q2 -2 4 0t0 6zM197 178q2 4 -5.5 4t-7.5 -4q2 -4 7.5 -4t5.5 4zM168 182h12l-12 6v-6zM190 201q-4 0 -4 -6.5t4 -6.5t4 6.5t-4 6.5zM180 213 q-4 0 -4 -7t4 -5q4 0 4 5t-4 7zM197 205l6 8h-6v-8zM190 246q6 -6 0 -13q-4 0 -4 7.5t4 5.5zM215 268q-2 -4 -5 -4t-3 4q0 2 4 2t4 -2zM223 319q8 -4 0 -6q-2 0 -2 3t2 3zM334 444q2 0 2 -3t-2 -3q-4 -2 -4 3t4 3zM430 817q2 0 2 -2t-2 -2q-4 0 -4 3t4 1zM446 893 q-4 0 -4 -6t4 -6t4 6t-4 6zM389 956q4 0 4 -6t-4 -6t-4 6t4 6zM520 956q4 0 4 -6t-4 -6t-4 6t4 6zM379 973q4 0 4 -6t-4 -6t-4 6t4 6zM561 999q4 0 4 -5t-4 -5q-6 0 -6 5t6 5zM578 995h-7l7 9v-9zM508 1004q-4 0 -4 -4.5t4 -4.5t4 4.5t-4 4.5zM418 1044q4 0 4 -5t-4 -5t-4 5 t4 5zM440 1075q4 0 4 -6t-4 -6t-4 6t4 6zM520 1075q4 0 4 -6t-4 -6t-4 6t4 6zM594 1522q4 0 4 -3t-4 -3t-4 4t4 2zM604 1554v-6l-4 -4l4 12v-2zM672 1556v-8l-10 8h10zM604 1581q2 0 8 18.5t9 28.5q2 6 7 22.5t9 35t8 35t6 22.5q10 16 16.5 40.5t11.5 50.5t14 49.5t26 35.5 v-6v-6q-2 0 -7 -5.5t-5 -7.5v-8q-2 -14 -6.5 -47t-4.5 -41q-2 -6 -5 -21.5t-7 -31.5t-10 -29.5t-12 -17.5l10 -6q-2 -4 -8.5 -20.5t-13.5 -36t-12 -36t-5 -20.5t5 -8t7 -4l-6 -6l-51 20h16zM655 1561q0 -2 -2 -2t-2 2q-2 4 1 4t3 -4zM621 1583q-4 0 -4.5 -5t4.5 -5q6 0 6 5 t-6 5zM651 1579q-2 -4 -4 -4t-2 4q0 2 3 2t3 -2zM690 1739q4 0 4 -6.5t-4 -6.5t-4 6.5t4 6.5zM727 1952q0 -10 -5 -14.5t-15 -8.5q-2 10 4 16.5t16 6.5zM735 1974q-4 0 -4 -5t4 -5t4 5t-4 5zM735 1997q-4 0 -4 -5t4 -5t4 5t-4 5zM723 2013q-4 0 -4 -4t4 -4q6 0 6 4t-6 4z " />
<glyph unicode="&#xa7;" horiz-adv-x="2670" d="M2122 0q0 10 5 12t9 2q8 0 13 -2t5 -12q0 -8 -20 -8q-12 0 -12 8zM508 16q0 6 6 7.5t10 1.5t11.5 -1t7.5 -8q0 -10 -7.5 -11t-11.5 -1t-10 1t-6 11zM961 57q0 -8 -7 -14v14h7zM1710 49v-6h-8v6h8zM1204 162q4 0 12.5 -1t8.5 -9v-5q0 -6 -8 -6h-3q-8 0 -9 8.5t-1 12.5z M1454 162q2 0 4 -2q0 -2 2 -2q2 -2 4 -2v-4q0 -10 -8 -11.5t-12 -1.5q0 4 1 13.5t9 9.5zM1491 209q0 23 22 22q0 -8 -4 -18t-14 -14q-2 0 -2 2q-2 2 -2 4v4zM1159 240q23 -16 23 -37q-23 0 -23 22v15zM1559 254q0 25 18 50.5t44 47t55.5 34.5t54.5 13t40 -17t15 -44 q0 -16 -8.5 -34.5t-24.5 -27.5q-6 -2 -33.5 -10t-36.5 -10q-25 -8 -44 -26.5t-48 -18.5q-16 0 -24 13.5t-8 29.5zM915 283q-33 23 -32 61q0 23 17.5 42.5t39.5 19.5q23 0 52.5 -13.5t55 -35t44 -46t18.5 -49.5q0 -16 -8 -29.5t-27 -13.5q-29 0 -47 18.5t-43 28.5 q-8 2 -35 8.5t-35 8.5zM1100 403q0 4 2 9q0 2 4 12t2 14q-6 14 -28.5 19.5t-52.5 7.5t-62.5 4t-60 10t-45 27.5t-17.5 54.5q0 23 7 32t13 25q-29 14 -28 41q12 0 17 -1t8 -4t8 -6t16 -9q4 -2 27.5 -11.5t51 -18.5t53 -16t32.5 -7q35 0 69.5 7t69.5 7q16 0 29.5 -3t29.5 -3 q2 0 7 1t5 5q0 2 -4 9t-4 9q4 25 12.5 46.5t8.5 48.5v4q-23 -4 -51.5 5t-28.5 40q0 20 16.5 27.5t36 12.5t36.5 13t21 31q-20 -12 -27 -14.5t-30 -12.5h-2q-6 0 -16.5 5t-7.5 16q2 6 20 12t40.5 11t43 7t27.5 2q2 0 5 -1t7 -1h8l12 -12q2 8 11 8q16 0 42.5 -6t30.5 -20 q2 -10 -7 -15.5t-13 -5.5q-10 0 -21.5 8.5t-23.5 12.5q-8 0 -15 6v-12q0 -16 16.5 -21.5t37 -10.5t37 -12.5t16.5 -27.5q0 -2 -6 -12.5t-10 -14.5q-2 -2 -7 -10q-2 -4 -4 -6h-51q-2 -2 -2 -4v-6q4 -31 8 -58.5t4 -56.5h21q2 0 10 1t16.5 2t15.5 2t9 1q4 0 19.5 -3t33 -5 t32.5 -4t19 -2h27h25q4 8 23.5 14t42 11t44 10.5t31.5 11.5q20 10 23.5 16t23.5 6q0 -16 -10 -25t-10 -26q0 -14 7 -26.5t7 -28.5q0 -37 -26.5 -56.5t-63.5 -27.5t-75 -9t-60 1q-10 -6 -25.5 -10.5t-23.5 -14.5q10 -4 13 -16.5t3 -20.5q0 -18 -15.5 -34.5t-31.5 -20.5 l-70 -70q-8 -6 -26.5 -18t-28.5 -12t-11 7t-1 11q0 39 22.5 66.5t44.5 56.5h-84q-4 0 -5 -6t-4 -14.5t-9 -14.5t-23 -6q-23 0 -25.5 7t-7.5 34h-83q6 -18 17 -31.5t22.5 -27t19.5 -28.5t8 -36q0 -4 -6 -11t-12 -7q-8 0 -35 20.5t-56.5 47t-52 52t-22.5 35.5v8zM1804 352 q0 8 15 8q10 0 25.5 -5t15.5 -21q0 -8 -3.5 -14.5t-15.5 -6.5q-10 0 -23.5 13.5t-13.5 25.5zM852 367q10 0 10 -13q0 -16 -15.5 -27.5t-31.5 -11.5q0 25 4 38.5t33 13.5zM2212 467q-39 0 -73 -17.5t-71 -17.5h-4q-4 0 -8 2t-6 4l-2 4q0 2 10 7.5t22.5 10.5t23 8t12.5 3t11 1 l18 2t17.5 2t10.5 1q8 2 26.5 11.5t28.5 13.5l10 -6q14 14 36 24t42 10q29 0 49.5 -27.5t20.5 -53.5q0 -25 -18.5 -43.5t-43.5 -18.5q-18 0 -29 9.5t-20.5 21.5t-16.5 25.5t-20 23.5h-26zM1884 393q-2 -4 -5 -4t-3 4t4 4t4 -4zM1921 401q0 6 17.5 15.5t21.5 9.5q14 0 14 -14 q0 -10 -17.5 -14.5t-27.5 -4.5h-2l-6 6v2zM287 459q0 29 20.5 59.5t50.5 30.5q18 0 41 -17.5t37 -21.5q2 0 7.5 3t7.5 3q10 0 25.5 -11t25.5 -16l18 -6q29 -4 53.5 -13t53.5 -13v-6q0 -6 -7.5 -9.5t-11.5 -3.5q-20 0 -38.5 7.5t-38 15.5t-40 15t-40.5 7q-12 0 -22.5 -12 t-22 -27.5t-25.5 -28t-37 -12.5t-40 16.5t-17 39.5zM694 426q2 2 8.5 7t8.5 5t8 -4t13 -10t12.5 -12t5.5 -9q-10 0 -33 1.5t-23 17.5v4zM795 412q4 0 4 -6.5t-4 -6.5q-6 0 -6 6.5t6 6.5zM1896 528q0 -2 -3 -2t-5 2q0 4 5 4t3 -4zM786 535h-8v6zM2322 586v-6l-6 6h6zM360 604 q0 -6 -8 -10v10h8zM2103 651q-20 0 -32.5 -10t-32.5 -10q-4 0 -15.5 3t-23.5 8t-21.5 9t-9.5 6v5q0 4 16.5 13t26.5 13q2 2 12.5 5t14.5 3h6q18 0 26.5 -12t24.5 -12h16q2 0 11.5 5t11.5 7q4 0 13.5 1t20.5 1t20.5 1t11.5 1q4 2 19 10.5t19 10.5h7q33 0 55 -10.5t22 -47.5 q0 -23 -17 -31t-36 -8q-23 0 -43 6.5t-39.5 13.5t-40 13t-43.5 6zM352 666q0 37 27 46t57 9q20 0 21.5 -7t17.5 -12q20 -4 53 -12t56 -8q16 0 25 10t28 10q10 0 15 -1t18 -5q4 -4 11 -6t13 -6q8 -4 17 -6v-16q0 -2 -18.5 -8.5t-28.5 -8.5h-25q-23 0 -32 10.5t-27 10.5 q-25 0 -45.5 -6.5t-41 -14.5t-40 -14t-43.5 -6q-16 0 -37 9t-21 32zM1884 633l-8 -8v8h8zM799 639v-6l-4 6h4zM1903 651h-7l7 6v-6zM1944 662q6 -4 6 -11h-19q1 9 13 11zM725 674q4 0 12 -1t11 -11q0 -2 -3 -3q-2 -2 -6 -2l-2 -2q-8 0 -10 6.5t-2 12.5zM778 662v-5h-6v5h6z M2200 717h-7v4zM487 721h-6q0 10 6 14v-14zM2044 786q0 14 12 27q-6 2 -28.5 15.5t-26.5 17.5q-4 2 -20.5 18.5l-20.5 20.5h-43q-2 0 -11.5 1t-18.5 1t-17 1t-10 1h-11q-35 0 -70.5 -19.5t-84.5 -19.5q-6 0 -21.5 1t-21.5 1q-2 2 -11.5 6t-13.5 4q-2 0 -4 -2t-6 -4l-8 -4 q-2 0 -3 -1t-3 -1h-3q-12 0 -13 10t-11 10q-12 0 -19.5 -4t-17.5 -4q-6 0 -16.5 5t-21.5 11.5t-18 13.5t-7 13q0 25 21.5 38t37.5 26q41 27 77 46t85 23h131q-6 12 -7 20.5t-1 24.5t7 33t16 32t17.5 31.5t8.5 34.5h2q2 0 7 -4t7 -4h2q29 0 62 15v-7q20 -4 48.5 -21t56.5 -42 t50.5 -50.5t30.5 -43.5q12 -20 19.5 -43t19.5 -41q12 -16 26.5 -18.5t28 -5.5t22.5 -12t9 -40q0 -33 -16.5 -35t-42.5 -10q0 -2 -6.5 -6t-6.5 -6q-2 0 -7 -4.5t-7 -6.5q0 -2 2 -2q2 -2 4 -2q18 0 30.5 10.5t28.5 10.5q2 0 12.5 -3t14.5 -3h4h2l13 6q4 0 25.5 2t31.5 4h6 q23 0 27 -27q-2 -4 -9.5 -13t-9.5 -11l-4 -4q-2 -2 -2 -4h-2h-6q-2 2 -14.5 7t-25.5 11t-25 10l-11 4q-4 0 -11 -5t-9 -7q-8 -6 -24.5 -4t-20.5 -8q10 -6 12 -8v-5q0 -33 -31 -50t-57 -17q-25 0 -52.5 18t-27.5 47zM2435 801q-12 0 -31.5 1t-23.5 17q0 2 2 6t4 4q4 2 11 2h9 q10 0 22.5 -2t16.5 -16l33 33h4q2 0 2 1t2 1q12 0 25.5 -8.5t26 -20.5t20.5 -26.5t8 -24.5q0 -47 -41 -47q-49 0 -69.5 15.5t-20.5 64.5zM469 805q2 2 9 5t9 3q-4 0 -14 1t-20.5 4t-19.5 9.5t-9 16.5q0 8 9 8h18q16 0 27 -5t30 -5q0 14 -13.5 17t-28.5 7t-28.5 13.5 t-13.5 33.5q0 25 10 33t24.5 12.5t29 6.5t22.5 14q33 57 62.5 105.5t91.5 89.5q25 16 43 31.5t53 15.5h12q4 -2 17.5 -4.5t15.5 -2.5q29 4 32 18.5t13 31.5q12 16 30.5 25t20.5 32q4 6 13.5 17.5t19.5 24.5t19.5 25.5t13.5 16.5l10 15t2 12q0 23 -11.5 27.5t-21.5 17.5 q10 12 21 12q12 0 18 -6q14 16 14 39v8l-38 18q6 4 12 17.5t6 19.5v4l-33 31v4q0 10 14.5 10t18.5 11q18 29 25.5 56.5t18.5 47.5t33.5 32.5t69.5 12.5q27 0 35 -10t10.5 -24.5t4.5 -29t14 -20.5l67 -33q6 4 14.5 -1t12.5 -11h43q10 0 10 9t13 9q18 0 24 -18q2 -2 10.5 -2 h12.5h12t8 2q6 2 19.5 6t29 10.5t27.5 14.5t16 14q8 14 13.5 28.5t12.5 27t18.5 20.5t31.5 8q33 0 53.5 -12.5t34 -31.5t21.5 -44t16 -47q4 -16 21.5 -22.5t17.5 -16.5v-6l-33 -33q2 -2 3 -7t1 -7t-1 -9.5t-3 -9.5h19v-4q-8 0 -23.5 -8t-15.5 -18v-2q2 -4 6 -19.5t8 -19.5 q6 6 16 6q16 0 17 -8q0 -10 -14.5 -20.5t-14.5 -24.5q0 -25 23.5 -51.5t42.5 -43.5q-4 8 2 17.5t14 9.5h4l7 -7t5 -7l3 -2q0 -8 -9.5 -13.5t-19.5 -1.5q4 -12 5 -21.5t9 -19.5q12 -20 30.5 -29.5t18.5 -37.5q0 -59 -34.5 -99.5t-96.5 -40.5q-41 0 -76.5 16.5t-72.5 20.5 q-4 2 -14.5 4t-22.5 3t-23.5 2t-13.5 1q-10 0 -24.5 2.5t-27.5 7.5t-22.5 13t-9.5 25q0 16 12.5 33.5t27.5 34t27.5 32.5t12.5 31q0 12 -7 19t-16.5 12.5t-16.5 11.5t-7 16q0 23 14 37v84q-14 18 -23.5 48t-9.5 48v4q2 2 6.5 15.5t6.5 15.5v4v2l-6 6h-52q-4 0 -5 -10 t-3 -22.5t-6 -22.5t-16 -10t-15.5 10t-4.5 22.5t-1 22.5t-6 10h-53q-6 0 -7 -4t-1 -8q0 -10 4 -16.5t4 -14.5q0 -37 -16.5 -68.5t-16.5 -70.5q0 -23 8 -40t8 -36q0 -12 -7 -19t-16 -12.5t-16.5 -11.5t-7.5 -18q0 -18 11.5 -34.5t24.5 -32t24.5 -32t11.5 -34.5 q0 -25 -19.5 -36t-45 -14.5t-53 -4.5t-44.5 -5q-6 0 -24.5 -5t-41 -10t-41 -10t-24.5 -5h-16q-29 0 -64 14t-49 37q0 2 -2 10t-4 10q0 4 -3 7t-3 6q0 -2 -1 -5.5t-1 -7.5q0 -23 14 -37t14 -37q0 -12 -4 -22t-4 -21h25.5t37 1.5t37 1.5h23.5q20 0 59 -14.5t76 -35t64.5 -44 t27.5 -44.5q0 -4 -10 -11t-22.5 -15.5t-23.5 -14.5l-11 -6q-10 0 -18.5 4t-18.5 4q-14 0 -15 -9t-10 -9q-10 0 -14 7t-12 7q-16 0 -32.5 -5t-39.5 -5q-45 0 -83 20.5t-68 20.5h-9q-6 0 -20 -1t-31.5 -2t-32 -3t-20.5 -2q-16 -23 -41 -38t-49 -26v-6q0 -10 3 -12t3 -10 q0 -25 -23.5 -45.5t-46.5 -22.5q-16 -2 -32.5 4t-32 16.5t-24.5 24.5t-9 29v2zM113 784q0 25 27.5 51.5t54.5 26.5q16 0 23 -13t18 -24q8 27 43 27q6 0 12 -1t10 -11q2 4 11.5 12t13.5 10q4 0 6 2q2 0 3 1t3 1l4 -2q2 -2 4 -2q6 0 25.5 -2t27.5 -2q2 -2 6.5 -6t4.5 -6v-2 q0 -10 -7.5 -15.5t-16.5 -6.5t-18.5 -1t-15.5 -2q-2 0 -6 -6t-4 -8h-4q-12 0 -15.5 11t-13.5 13q-4 -2 -17 -8t-18 -8q-4 0 -12 2t-10 2q0 -47 -26.5 -64.5t-73.5 -17.5q-18 0 -28.5 16.5t-10.5 32.5zM2361 735q-2 -4 -4 -4t-2 4t3 4t3 -4zM319 756q4 0 4.5 -7.5t-4.5 -7.5 q-4 0 -4 7.5t4 7.5zM2032 745h-4l4 11v-11zM655 762v-6h-4v6h4zM2607 805q4 0 4 -6t-4 -6t-4 6t4 6zM74 825q6 0 6 -6t-6 -6q-4 0 -4 6t4 6zM1249 891q4 0 10.5 -1t10.5 -5l-6 -6h-4q-11 0 -11 12zM1432 889v-10h-15v10h15zM1290 903h-22q0 23 22 23v-23zM1391 909 q0 10 4 11.5t10 1.5q14 0 14 -11q0 -4 -4 -6t-8 -2t-10 1t-6 5zM1141 1012q0 12 13 26.5t31.5 25.5t37 19.5t30.5 8.5q25 0 40.5 -25t15.5 -47q0 -33 -26 -55.5t-54 -22.5q-6 0 -20.5 7t-30 18.5t-26.5 23t-11 21.5zM1378 1016q0 25 16.5 50.5t41.5 25.5q10 0 28.5 -9.5 t37 -22.5t32.5 -26.5t14 -21.5q0 -10 -12 -22.5t-27.5 -24t-30 -18.5t-20.5 -7q-29 0 -54.5 22.5t-25.5 53.5zM2327 956q8 0 14 -10l-6 -4q-8 2 -8 14zM352 969v-6h-6v6h6zM1960 1110q0 -18 11 -31.5t26.5 -25t32 -19.5t26.5 -14l4 2q0 16 -18.5 27.5t-22.5 21.5 q-4 2 -5 18.5t-3 20.5l-12 4q-4 2 -9 3t-10 3h-8q-12 0 -12 -10zM729 1133q-29 0 -38 -4.5t-11 -11.5t-1 -17t-9 -23q-18 -23 -26.5 -26.5t-16.5 -24.5h2q16 0 33.5 10.5t33 26.5t24.5 35t9 35zM2142 1165q0 43 31 65.5t72 22.5q23 0 39 -8q2 0 14 -15.5t26.5 -33.5 t25.5 -34l11 -15q0 -10 -8 -10h-4l-14 4q-2 2 -16.5 4t-22.5 2h-4q-8 0 -11.5 -7t-5.5 -16.5t-4 -19.5t-6 -14q-2 0 -10 -6.5t-18.5 -12.5t-20.5 -11t-16 -3q-33 10 -45.5 44.5t-12.5 63.5zM399 1161q-16 0 -31.5 -7t-29.5 -7q-12 0 -12 14q0 2 12 17.5t26.5 32t28 30.5 t17.5 16q10 4 18 5.5t16 1.5q41 0 75 -23.5t34 -64.5q0 -12 -5 -30t-14.5 -34t-21.5 -28.5t-27 -12.5q-27 0 -41 14.5t-23 31t-13.5 30.5t-8.5 14zM2400 1137l2 -4q0 -4 -6 -8.5t-12 -4.5q0 6 1 12.5t9 8.5zM301 1141h-14q0 14 14 14v-14zM825 1198q8 -6 13 -18v41z M1327 1231q0 16 2 22.5t19 6.5q16 0 18 -6.5t2 -22.5v-17q-8 -8 -25 -8q-14 0 -15 7.5t-1 17.5zM2200 1356q0 14 6 29.5t17 28.5t25.5 22.5t28.5 9.5q35 0 59.5 -30t24.5 -60q0 -31 -21.5 -55.5t-49.5 -24.5q-37 0 -61.5 19.5t-28.5 60.5zM336 1366q0 37 28.5 68.5 t65.5 23.5q27 -6 47.5 -34.5t16.5 -57.5q-6 -76 -88 -76q-29 0 -49.5 23.5t-20.5 52.5zM883 1348q0 12 9 14t21 2q0 -6 -4 -15.5t-14 -13.5q-12 -1 -12 13zM1309 1348h-19q2 6 8.5 8t10.5 2v-10zM1378 1362q4 0 14.5 -3t10.5 -13q-10 0 -17.5 3t-7.5 13zM1960 1432v-11h-6 v11h6zM727 1432q4 8 12 8v-15q-10 1 -12 7zM1911 1483l6 -6v-2v-2q-10 -16 -25 -17q0 4 1 15.5t12 11.5h6zM2128 1464v-6h-6v6h6zM580 1473l-9 -9v9h9zM778 1483q0 6 9.5 7t11.5 1v-29q-8 0 -14.5 8.5t-6.5 12.5zM2019 1489q0 16 17 16q6 0 18 -4t12 -14q0 -8 -7 -12.5 t-15 -4.5t-16.5 4.5t-8.5 14.5zM637 1499q0 14 16.5 13t26.5 -1q0 -35 -31 -34q-12 -1 -12 22zM2062 1550q8 0 18.5 -4t10.5 -16q0 -14 -12 -14q-10 0 -13.5 14t-3.5 20zM604 1542q4 4 12.5 11.5t10.5 7.5q8 4 9 -2.5t1 -10.5q0 -20 -21 -20q-12 0 -12 12v2zM1759 1542h-6 l6 6v-6zM940 1548h-4v8zM580 1561q4 0 4 -6.5t-4 -6.5q-6 0 -6 6.5t6 6.5zM979 1561q-4 0 -4 -6.5t4 -6.5t4 6.5t-4 6.5zM1837 1561l-4 -5v5h4zM870 1567l-8 -6l-6 6h14zM1954 1587q0 10 11 31.5t22 21.5q18 0 37.5 -10t19.5 -33q0 -18 -17.5 -27t-27.5 -9q-12 0 -28.5 5 t-16.5 21zM655 1606q0 23 19.5 32t38.5 9q10 0 20 -18.5t10 -29.5q0 -16 -15 -24t-32 -8q-12 0 -26.5 12.5t-14.5 26.5zM838 1651q4 0 4 -5.5t-4 -5.5t-4 5.5t4 5.5zM2136 1692q12 0 25.5 -1t13.5 -14q0 -6 -4 -12t-14 -6t-15.5 13.5t-5.5 19.5zM526 1690q2 10 9.5 13 t11.5 3q12 0 12 -20q0 -14 -16 -15q-10 0 -15.5 3.5t-1.5 15.5zM2271 1749q0 25 27 25q25 0 24 -23q0 -23 -26 -22q-10 0 -17.5 4t-7.5 16zM385 1765q0 10 6 12.5t17 2.5q14 0 19 -2t5 -15q0 -10 -6 -19t-18 -9q-10 0 -16.5 10t-6.5 20zM1888 1788q-18 12 -21 28.5t-3 36.5 v25q2 2 7 12.5t5 12.5q0 4 -8 11t-8 9h-2v4q0 8 7 19.5t17 11.5q18 0 31.5 -20.5t30.5 -20.5q2 0 4 2q6 6 6 4h6q16 0 16 -11t11 -18q6 18 24.5 24.5t40 8.5t44 2t38.5 6q2 0 7 6.5t7 8.5h6q23 0 48.5 -13.5t25.5 -42.5q0 -10 -13 -29.5t-28 -19.5q-27 0 -51.5 12.5 t-50.5 14.5q-6 0 -18.5 2t-25.5 4t-24.5 4t-15.5 2v-2q0 -18 14.5 -21t22.5 -16v-2q0 -10 -11.5 -11t-15.5 -5q-10 -16 -8 -31.5t-21 -15.5h-14q-10 0 -40 4t-40 4zM670 1851q0 16 15 19.5t26 19.5h-6h-3q-4 -2 -23.5 -4t-23.5 -2t-16 -1t-25.5 -2t-24.5 -2t-18 -1 q-10 -14 -18 -17t-25 -3q-18 0 -32.5 15t-14.5 36q0 20 24.5 38.5t47.5 14.5q2 0 7 -6t7 -6q6 -4 25.5 -8.5t41 -7.5t41 -4t27.5 -1q2 0 7.5 -5t5.5 -7v-4q0 -2 -2 -4q6 0 8 3t4 8t4 8t10 3q2 0 3 -1t3 -1h3q2 0 6 -3t6 -3q20 4 31.5 22.5t29.5 18.5q10 0 20.5 -10t10.5 -21 q0 -2 -2 -4l-19 -18v-2q0 -14 3.5 -23.5t3.5 -25.5q0 -20 -3.5 -36t-23.5 -30q-4 0 -15.5 -1t-25.5 -2t-26.5 -2t-16.5 -1h-6q-20 0 -22.5 17.5t-10.5 27.5q-2 0 -4 2t-3 2t-3 2q-4 2 -8 6v6zM1993 1894q-4 0 -4 -5t4 -5q6 0 6 5t-6 5z" />
<glyph unicode="&#xa8;" horiz-adv-x="2463" d="M51 846q6 53 -2 107.5t-4 107.5q-8 10 -11 30.5t-3 32.5q0 20 3 39t3 39q0 10 -3 16.5t-3 16.5q0 27 6 58.5t15 63.5t20.5 59.5t19.5 49.5q23 68 58.5 130.5t78.5 121.5h-10q0 12 18.5 28.5t42 31t48 23.5t37.5 9h24q-18 -6 -24 -16h12q10 0 12 4t10 4q10 0 28.5 -17.5 t29.5 -21.5q12 -6 57 -30.5t96.5 -52t96.5 -53t55 -32.5q12 -8 49 -31.5t80 -51t82 -53t57 -38.5q2 -4 15.5 -14t26.5 -21.5t25.5 -21.5t16.5 -12q14 -10 35.5 -24.5t38.5 -14.5h4q4 2 21.5 7t23.5 7h160q4 0 15 -3t15 -3h5q10 0 28.5 12.5t37 28.5t32.5 32.5t18 26.5 q53 51 110.5 98.5t114 93.5t111.5 94t107 103q2 2 5 6.5t3 6.5v4v4q-31 -29 -54.5 -57.5t-58.5 -55.5q12 14 26.5 36t32 42.5t36 35.5t36.5 15h15q8 -2 21 -5t15 -3q6 -4 15.5 -12t17.5 -16.5t14.5 -15.5t6.5 -9v-8l14 8l8 -10q8 -11 17.5 -25t19.5 -30.5t17 -26.5 q2 -2 4 -6.5t4 -8.5q4 -6 9 -20t7 -19v-4v-4q-6 4 -14 18.5t-18.5 31t-19.5 29.5t-18 13v-4v-2q27 -63 65 -123.5t67 -121.5q14 -10 20 -26.5t10 -35t8.5 -36t12.5 -32.5l53 -198q-2 -6 1 -17.5t8 -23.5t9 -21.5t7 -13.5q10 -33 13 -69.5t3 -71.5q0 -147 -53.5 -278.5 t-130.5 -254.5q-12 -18 -27.5 -37.5t-34 -37t-41 -28.5t-47.5 -11q-8 0 -14 1t-13 7q-16 12 -56 39.5t-85 59.5t-85 59.5t-54 39.5q-4 2 -18.5 14.5t-32 27t-33.5 28.5t-25 23q-10 8 -29.5 28.5t-23.5 24.5t-14 19.5t-21.5 31.5t-20.5 32.5t-14 22.5q-2 6 -13 27.5 t-24.5 48.5t-26.5 52.5t-19 39.5q-6 16 -15.5 35t-21 35t-27.5 27.5t-37 11.5q-27 0 -65.5 -4t-63.5 -21q-16 -10 -28.5 -34.5t-22.5 -41.5q-37 -66 -78 -127t-76 -124q-20 -35 -37.5 -57.5t-33 -44t-30.5 -48.5t-30 -65q-4 -10 -4 -12.5t-10 -2.5q-16 0 -29.5 7.5 t-29.5 7.5q-12 0 -15.5 -2.5l-17.5 -12.5t-49 -37.5t-73 -57.5t-73 -57.5t-49 -37.5q-2 -2 -7 -4t-7 -4q-6 -2 -30 -7.5t-32 -7.5h-4q-27 0 -42 18.5t-32 34.5q-45 41 -87 79t-78.5 80t-66.5 89t-50 105q-2 4 -8.5 22.5t-8.5 22.5q-4 10 -7 8t3 14zM641 319q-4 4 -8 0t0 -6 t7 0t1 6zM748 412q-4 0 -4.5 -8.5t4.5 -8.5q4 0 4 8.5t-4 8.5zM381 541q-6 0 -6 -7.5t6 -7.5t6 7.5t-6 7.5zM940 549q-4 4 -8 -1t0 -7t7 1t1 7zM397 557q-6 0 -6 -8t6 -8q4 0 4 8t-4 8zM870 627q0 4 -10 -6.5t-6 -10.5q4 -2 10 5.5t6 11.5zM999 633q-4 0 -4 -7.5t4 -7.5 q6 0 6 7.5t-6 7.5zM885 647q-4 0 -4 -7t4 -7q6 0 6 7t-6 7zM535 686q2 4 -4.5 4t-4.5 -4q5 -8 9 0zM549 694q-4 0 -4 -8t4 -8q6 0 6 8t-6 8zM588 694q-6 0 -6 -8t6 -8t6 8t-6 8zM602 694q-4 0 -4 -8t4 -8q6 0 6 8t-6 8zM373 702q-6 0 -6 -8t6 -8t6 8t-6 8zM1954 702 q-6 0 -6 -8t6 -8t6 8t-6 8zM350 711q0 -2 -3 -4t-3 -5h4h2q8 0 8 9h-4h-4zM166 840q0 -12 21.5 -34t50 -44.5t57.5 -38.5t43 -16q0 10 -9.5 15t-17.5 9q-16 12 -38.5 31.5t-45.5 36.5q-25 20 -53 41h-8zM258 854q27 -27 61.5 -52.5t73.5 -46t79 -33.5t81 -13q63 0 129 24.5 t120 68.5t88 103.5t34 130.5q0 14 -2 23.5t-15 23.5q-35 41 -79 82t-95 74t-107.5 53.5t-113.5 20.5q-61 0 -117.5 -29t-100.5 -75t-70.5 -104t-26.5 -118q0 -45 11 -68.5t42 -56.5l-6 -8h14zM2038 717q-6 -6 -15 -6h5h4q8 0 14 6h-4h-4zM680 725q-6 0 -6 -7t6 -7q4 0 4 7 t-4 7zM831 784q-31 -6 -55 -25.5t-43 -41.5h4h4q2 0 10.5 3t10.5 5q2 0 4 -1t4 -1v-8q14 0 37.5 10t23.5 31l-4 4l-4 4v4v4q0 2 3 6t5 6zM700 725q2 4 -3 4t-3 -4q0 -4 3 -4t3 4zM1833 748q-6 0 -6 -8.5t6 -8.5q4 0 4 8.5t-4 8.5zM1747 825q4 -4 16.5 -9t16.5 -7 q10 -4 38.5 -14.5t60.5 -21.5t59.5 -20.5t39.5 -13.5h29q61 0 101 36t65 87t35 109.5t14 103.5q0 4 -1 15.5t-3 15.5v-23q0 16 -4 45t-12.5 59t-19.5 56.5t-21 38.5q-8 10 -34 35.5t-36 34.5h20q0 8 -12 11t-14 3q-74 0 -142.5 -27.5t-130 -70.5t-117 -94.5t-106.5 -98.5 l13 8q-8 -8 -7.5 -21t0.5 -24q0 -31 16.5 -62.5t41 -59t50.5 -51.5t44 -40zM2152 801q-4 -4 -15 -12.5t-15 -12.5l-6 -4q10 4 20 12.5t16 16.5zM152 854l8 -8l2 4l-2 4q0 2 -3 4t-5 4v-4v-4zM137 870h8v7h-8v-7zM229 877q-6 0 -6 -7.5t6 -7.5q4 0 4 7.5t-4 7.5zM899 893 q-4 0 -4 -8t4 -8q6 0 6 8t-6 8zM907 907q-6 0 -6 -7t6 -7t6 7t-6 7zM2298 991h10q0 10 -10 17v-17zM977 1030q-6 0 -6 -7t6 -7t6 7t-6 7zM6 1044q4 -2 4 -6t-4 -8q-4 -2 -4 7t4 7zM14 1114q4 -4 4 -18.5t-4 -20.5q-2 -2 -3 5t-1 15.5t1 14.5t3 4zM915 1100q6 -10 17 -17h4h4 l-25 23v-4v-2zM1640 1137q0 2 -5 -2.5t-12 -11.5l-12 -12t-1 -5q6 2 18 13.5t12 17.5zM1182 1204q0 -23 7 -43t17 -39l4 2q2 2 2 4v5q0 6 -1 18t-4 23.5t-9 20.5t-16 9zM885 1137q-4 0 -4 -7.5t4 -7.5q6 0 6 7.5t-6 7.5zM879 1145q-6 0 -6.5 -8.5t6.5 -8.5q4 0 4 8.5t-4 8.5 zM23 1206q4 -6 4 -26.5t-4 -26.5q-2 -4 -3.5 5t-1.5 21.5t1.5 20.5t3.5 6zM854 1167q-6 0 -6 -7t6 -7t6 7t-6 7zM846 1174q-4 0 -4 -6.5t4 -6.5q6 0 6 6.5t-6 6.5zM823 1190q-4 0 -4 -8t4 -8q6 0 6 8t-6 8zM1130 1198q0 4 -4 4t-4 -4t3 -4t5 4zM1710 1206q-6 0 -6 -8t6 -8 t6 8t-6 8zM1726 1223q-6 0 -6 -8.5t6 -8.5q4 0 4 8.5t-4 8.5zM1755 1243q-6 0 -6 -7t6 -7t6 7t-6 7zM1167 1284v-20.5t11 -12.5h6l8 9l8 2q0 10 -8 20t-16 14q-9 -2 -9 -12zM1151 1268q-6 0 -6 -8.5t6 -8.5t6 8.5t-6 8.5zM1473 1352q2 -4 -1.5 -7.5t-5.5 -1.5q-4 2 0.5 7.5 t6.5 1.5zM1528 1405q4 0 4 -8t-4 -8q-6 0 -6 8t6 8zM420 1481q-4 2 -4 -3t4 -5q4 2 4 5t-4 3zM303 1636q0 -12 -1 -32.5t2 -40t12.5 -32.5t31.5 -13l2 2q4 0 8 6t7 8q0 -8 8 -8q2 0 8 4t8 4l4 -4l4 -4q4 0 20.5 -1t20.5 -1q0 18 12.5 28.5t18.5 26.5v-31q10 0 10 9.5 t10 13.5q0 -2 3 -4q2 -2 4 -2l2 -2q6 0 13 8t14 19.5t13.5 20.5t10.5 13q2 -2 4 -2q2 -2 4 -2t7 2t7 2l-14 16q8 4 8 17q0 2 -1 4t-1 4q-4 -8 -14 -8t-32.5 18.5t-35.5 18.5q-2 0 -8 -3t-8 -3q-31 0 -56.5 19t-56.5 19q-12 0 -26.5 -7t-22.5 -17v-66zM1892 1565 q-4 0 -4 -7.5t4 -7.5q6 0 6 7.5t-6 7.5zM1892 1571q-2 4 -6 0t0 -6q4 -4 7 -1t-1 7zM2251 1571q6 0 6 -6t-6 -6q-4 0 -4 6t4 6zM526 1587q-6 0 -6 -8t6 -8t6 8t-6 8zM496 1595q4 0 4 -8t-4 -8t-4 8t4 8zM1886 1620q-6 0 -6 -8t6 -8q4 0 4 8t-4 8zM2230 1624q4 0 4 -2t-4 -2 q-4 -2 -4 2t4 2zM596 1632q-6 0 -6 -6t6 -6q4 0 4 6t-4 6zM588 1640q-6 0 -6 -8t6 -8t6 8t-6 8zM580 1649q-6 0 -6.5 -8.5t6.5 -8.5q6 0 6 8.5t-6 8.5zM1870 1702q-12 -10 -31.5 -26.5t-38.5 -26.5q4 6 13.5 14t18.5 17.5t18.5 15.5t15.5 6h4zM502 1702q2 4 -3 4t-3 -4 q0 -4 3 -4t3 4zM373 1710q-4 -12 -8 0q-2 4 4 4t4 -4zM358 1724q4 0 4 -7t-4 -7q-6 0 -6 7t6 7zM319 1733q-2 0 -4 -3.5t-4 -5.5h4h4q2 2 5.5 4.5t3.5 4.5l-4 2zM2144 1741h8l-8 8v-8zM393 1780q0 -10 9.5 -18.5t19.5 -8.5q0 10 -9.5 18.5t-19.5 8.5zM2003 1794 q-10 0 -19.5 -16.5t-13.5 -22.5l37 39h-4zM2128 1767q0 -2 2 -4q0 -2 2 -4l4 -4l2 4l-2 4l-6 6zM381 1786q-6 0 -6 -8.5t6 -8.5t6 8.5t-6 8.5zM2015 1847q6 0 6 -8t-6 -8t-6 8t6 8z" />
<glyph unicode="&#xa9;" horiz-adv-x="1908" d="M426 262q0 4 -9 12.5t-14 10.5q-10 2 -33.5 2t-33.5 -2q2 4 10 12t12 10q2 0 14.5 1t18.5 1q8 0 20.5 -1t14.5 -1q4 -2 12 -10t11 -12q0 -2 1 -15.5t1 -19.5t-1 -18.5t-1 -14.5q-4 -8 -21.5 -33.5t-24.5 -33.5l46 -21h-113q4 6 14 18.5t20.5 25.5t19.5 25.5t13 18.5 q4 8 13.5 25.5t9.5 19.5zM489 217q0 14 1.5 40t1.5 28q0 4 9 12t15 10q2 0 13.5 1t19.5 1q6 0 18.5 -1t14.5 -1q4 -2 13 -10t9 -12q0 -2 1 -28t1 -40t-1 -39.5t-1 -27.5q0 -4 -9 -11.5t-13 -9.5q-2 0 -14.5 -1t-18.5 -1q-8 0 -19.5 1t-13.5 1q-6 2 -15 9t-9 12 q0 2 -1.5 27.5t-1.5 39.5zM649 262q4 8 20.5 24.5t24.5 20.5q4 2 11.5 4t9.5 2v-184h-21q0 6 -3 22.5t-7 34t-8 32.5t-6 22q-2 4 -9.5 12t-11.5 10zM780 217q0 10 1 26.5t1 18.5q2 10 10.5 26.5t12.5 18.5h12q4 0 9 1t10 1q8 0 20 -1t16 -1q4 -2 13.5 -10t9.5 -12 q0 -2 1 -28t1 -40t-1 -39.5t-1 -27.5q0 -4 -9 -11.5t-14 -9.5q-4 0 -16 -1t-20 -1h-19q-6 0 -12 2q-4 2 -12.5 18.5t-10.5 26.5q0 2 -1 18.5t-1 24.5zM1028 285q2 4 10.5 12t10.5 10q4 0 17 1t21 1q4 0 15.5 -1t15.5 -1q6 -4 22.5 -20.5t20.5 -24.5q-2 8 7.5 24.5t17.5 20.5 q2 2 19.5 3t25.5 1t24.5 -1t18.5 -3t9 -27.5t11 -39.5v-23v-22q-4 -12 -11 -38t-9 -28t-19.5 -5t-25.5 -3t-24.5 3t-18.5 5q-6 2 -13.5 14.5t-14.5 25.5t-12 27.5t-5 20.5l-68 -76h68l-113 -12q0 2 -1 5t-1 7v4q0 2 2 5q4 4 22.5 23.5t22.5 21.5q4 4 12.5 22.5t8.5 22.5 q2 4 0 22.5t-2 22.5h-64zM1339 262q4 8 21.5 24.5t23.5 20.5q4 2 11.5 4t11.5 2v-184h-23q0 6 -3 22.5t-6 34t-6 32.5t-5 22q-4 4 -12.5 12t-12.5 10zM1475 262q4 8 21 24.5t24 20.5q2 2 9 4t11 2v-184h-20q0 6 -3.5 22.5t-7.5 34t-7 32.5t-5 22q-2 4 -10 12t-12 10z M537 150h22v135h-22v-135zM827 145q4 0 11.5 1t11.5 4q4 2 13 11t9 13q0 2 1 13.5t1 19.5q0 2 -1 7t-1 11v15q-4 6 -11 23.5t-11 21.5h-4h-4q-2 0 -2 2q-4 0 -7.5 -1t-5.5 -1v-140zM1204 217q0 -8 1 -24.5t1 -18.5q0 -4 9.5 -13t13.5 -11q6 2 14 11t8 13q0 2 1 18.5t1 24.5 q0 10 -1 26.5t-1 18.5q0 4 -8 12.5t-14 10.5q-4 -2 -13.5 -10.5t-9.5 -12.5q0 -2 -1 -18.5t-1 -26.5zM1006 195q-8 -10 -33 -10.5t-33 10.5q-4 6 7 8t25.5 2t26 -2t7.5 -8zM559 573q6 0 23.5 1t21.5 1q10 0 26.5 -1t18.5 -1q4 0 12.5 -8t8.5 -12q2 4 11 12t13 8h4q2 0 3 1 t4 1q2 0 4 -1t4 -1h2q4 -2 11 -21.5t11 -23.5q4 -2 6 -2h7h6q2 0 4 2q4 6 13 23.5t9 21.5h158v-133h-35v113q-4 0 -17.5 -9t-15.5 -16q-4 -4 -7 -16t-7 -26.5t-6 -27t-2 -18.5h-35v88q-2 -6 -10 -21t-17.5 -32.5t-17.5 -33t-10 -21.5q0 -4 -9.5 -13.5t-13.5 -11.5t-8 -2h-14 q-2 0 -10.5 1t-10.5 1q4 2 11.5 11.5t9.5 13.5v8q0 4 1 6t1 4q0 4 -1 13.5t-1 11.5q0 4 -3 14t-6.5 20.5l-6.5 19.5t-5 11q0 -6 -6 -18t-13 -26.5t-14.5 -27t-11.5 -16.5q-2 -2 -11 -5t-21.5 -6t-22.5 -6t-12 -3q-6 -4 -23.5 -12.5t-21.5 -12.5h22v178zM1049 408 q-4 4 -21.5 16t-21.5 16t-13.5 12.5t-9.5 10.5t-1 18.5t-1 26.5t1 26.5t1 18.5q0 4 9 12t14 8q6 0 20 2.5t29.5 4.5t30 3t18.5 1q0 -8 -1 -28.5t-3 -43.5t-4 -43t-2 -29q0 -8 -8.5 -25.5t-12.5 -19.5q-6 -2 -18.5 -1t-26.5 3t-26.5 4t-18.5 7h66zM1427 508q0 10 1.5 26.5 t1.5 18.5q0 4 9 20.5t13 22.5q2 4 10 13t13 12v-226q-4 2 -12.5 11.5t-10.5 13.5q-4 6 -13 22.5t-9 20.5q0 2 -1.5 18.5t-1.5 26.5zM1675 528q0 6 -3 18.5t-6 28t-7 27.5t-6 19h12h10q4 -6 13.5 -24.5t9.5 -23.5v-26q0 -10 1 -21.5t1 -17.5q0 -14 -1 -40t-1 -28 q0 -4 -9.5 -21.5t-13.5 -23.5l-10 -2q-2 0 -6 1t-6 1q2 6 6 18.5t7 27t6 27.5t3 17v23v20zM201 555q0 8 2 18t19.5 27.5t23.5 20.5h43h47q4 0 12 -9.5t10 -15.5q2 -2 3 -12.5t1 -12.5q-2 0 -13 1t-13 1l-45 23h-10h-11q-6 -2 -15 -10t-9 -13q-2 -10 -2 -18v-27q0 -6 1 -23.5 t1 -19.5q0 -4 9 -12t15 -10h11h10l45 22q2 0 13 2t13 2q0 -4 -1 -14t-3 -12q-2 -4 -10 -13.5t-12 -9.5q-2 0 -19.5 -1t-27.5 -1q-8 0 -24.5 1t-18.5 1q-6 2 -23.5 19.5t-19.5 25.5q0 2 -1 19.5t-1 23.5v27zM401 508q0 10 1 26.5t1 18.5q0 4 9.5 12t13.5 8q2 0 14.5 1t18.5 1 q8 0 19 -1t14 -1q6 0 15 -8t9 -12q0 -2 1 -18.5t1 -26.5t-1 -26.5t-1 -18.5q0 -4 -9 -12.5t-15 -10.5q-2 0 -13.5 -1t-19.5 -1q-6 0 -18.5 1t-14.5 1q-4 2 -13.5 10.5t-9.5 12.5q0 2 -1 18.5t-1 26.5zM1141 621q0 -4 8 -12.5t12 -12.5q8 -4 34 -12.5t34 -10.5v-133 q0 6 -3 18.5t-7.5 27t-7.5 26.5t-5 16t-9 13.5t-11 11.5q-4 -6 -13.5 -23.5t-11.5 -21.5q-4 -8 -12 -32.5t-8 -35.5v181zM1274 573q0 8 8 25.5t12 22.5q6 -4 15.5 -21.5t9.5 -26.5q0 -6 2 -25.5t3 -41t2 -39.5t1 -27h-33q-2 0 -6 15.5t-7 37t-5 44t-2 36.5zM1518 508 q0 10 1 26.5t1 18.5q0 4 8 12t12 8q8 2 35 6.5t35 4.5v-31h-45v-90h45v-33q-8 0 -35 4t-35 6q-4 2 -12 10.5t-8 12.5q0 2 -1 18.5t-1 26.5zM424 494q0 -4 2 -9q2 -4 10 -12t13 -10q2 -2 11 -3t11 -1v98q-2 0 -11 -1t-11 -3q-4 -2 -12.5 -11.5t-10.5 -13.5t-2 -8v-12v-14z M582 508q0 -8 9 -24.5t13 -20.5q4 2 11.5 10t11.5 12v9q0 4 1 7t1 7q0 2 -1 5t-1 7v8q-4 4 -11.5 13.5t-11.5 11.5q-4 -4 -13 -20.5t-9 -24.5zM1004 494q0 -4 2 -9q2 -4 10 -12t12 -10q4 2 11.5 10t9.5 12q0 4 2 9q0 4 1 7t1 7q0 2 -1 5t-1 7q-2 4 -2 8q-2 4 -9.5 13.5 t-11.5 11.5q-4 -2 -12 -11.5t-10 -13.5t-2 -8v-12v-14zM940 621q-4 -10 -12 -10.5t-13 10.5q-2 4 2.5 6t10.5 2t10 -2t2 -6zM471 1155q0 2 5 13.5t12.5 24.5t14.5 27.5t13 22.5q4 4 11.5 13.5t9.5 9.5h178q4 0 20.5 -16.5t24.5 -26.5q4 -8 13 -24.5t9 -20.5v-291 q0 -4 -9 -20.5t-13 -24.5q-8 -10 -24.5 -26.5t-20.5 -16.5h-199l-45 88v268zM426 1266v-33h-156v-123q8 0 34 -8t32 -15q2 0 3 -4t1 -6t-1 -7t-3 -5q-4 -2 -14.5 -6t-22.5 -7t-23.5 -5.5t-17.5 -2.5v-225h-33v447h201zM827 1266l21.5 -21.5t23.5 -21.5q2 -4 15.5 -21.5 t28 -36t27.5 -35t18 -20.5q4 -8 26.5 -24.5t28.5 -20.5v201h57v-447q-4 2 -12 10.5t-12 12.5q-8 12 -32 45t-50.5 67.5t-51 66.5t-32.5 44v-246h-56v447zM1118 1233v33h279q0 -4 -4 -11.5t-9 -11.5q-2 -2 -11 -5t-20.5 -6t-21.5 -6t-12 -3q-10 -4 -22.5 -13.5t-12.5 -11.5 v-379h-65v414h-101zM1415 961q4 0 29.5 -3.5t30.5 -3.5q2 0 10 -9t12 -13q2 -4 10.5 -23.5t12.5 -21.5q6 -2 12 -2h18q8 0 20.5 1t14.5 1q6 2 15.5 10t9.5 12q0 2 1 23.5t1 32.5q0 8 -1 28.5t-1 26.5q-8 0 -27.5 2t-41 6t-40 8t-26.5 8q-4 2 -14.5 10.5t-22 19.5t-20.5 21.5 t-11 14.5q-2 6 -2 12v21q0 4 1 18.5t1 16.5q2 6 10 23.5t13 21.5q8 8 33.5 24.5t33.5 18.5q2 0 28.5 3t39.5 3q12 0 37.5 -3t27.5 -3q6 -2 23.5 -18.5t21.5 -24.5q2 -4 4 -17.5t4.5 -28t3.5 -26.5t1 -14q-4 0 -29 6t-29 12q-2 2 -4 11.5t-5 21.5t-6 22.5t-5 12.5 q0 2 -13.5 3t-19.5 1t-19.5 -1t-17.5 -3q-6 -4 -22.5 -19.5t-20.5 -25.5q-2 -4 -2 -9v-14q0 -4 1 -12t1 -10q2 -4 10.5 -12.5t12.5 -10.5t20 -5t34.5 -6t35 -6t20.5 -6q6 -2 16.5 -11t21.5 -19t19.5 -20.5t10.5 -16.5q2 -2 3 -22.5t1 -32.5q0 -10 -1 -32t-3 -24 q-2 -8 -11.5 -21.5t-19.5 -27.5t-20.5 -26.5t-16.5 -14.5q-2 -2 -26.5 -4t-36.5 -2q-14 0 -41 2t-29 4q-4 2 -14 10.5t-21.5 18.5t-20.5 21.5t-11 17.5q-2 4 -4.5 15t-4.5 23.5t-4 22t-2 13.5zM559 864q4 -2 21.5 -4t25.5 -2q6 0 15.5 1t19.5 2t18.5 2t10.5 1q8 2 25.5 19.5 t19.5 25.5q0 2 3 21.5t7 44t7 50.5t5 40v27v18q-2 4 -10 20.5t-12 24.5q-2 4 -10.5 13.5t-10.5 9.5t-27.5 1t-39.5 1t-39 -1t-29 -1t-13 -9.5t-9 -13.5v-246zM381 1823q4 0 22.5 2t22.5 2q8 0 25.5 -2t19.5 -2t9 -7.5t12 -13.5q6 -6 15 -23.5t9 -21.5q0 -2 1 -20.5t1 -28.5 q0 -4 -1 -10t-1 -12v-17q-2 -4 -19.5 -21.5l-25.5 -25.5q-4 -2 -15.5 -8t-23.5 -14.5t-23.5 -14.5t-17.5 -8v-199l-33 -22v32.5t-1 51t-1 50v34.5v42.5t1 53.5t1 47.5v22.5q0 8 3.5 27.5t6.5 41t7 40t6 24.5zM1485 1491q-2 0 -3 -1t-3 -1h-4q-2 -2 -10.5 -18.5t-12.5 -26.5 q-4 -6 -12 -32t-10 -34q-6 0 -28 -1t-28 -1q-12 0 -32.5 1t-22.5 1t-11.5 8.5t-13.5 14.5q-4 4 -16 23.5t-26.5 43t-28 43t-17.5 23.5t-16 12t-16 10v-178h-56v445h221q10 0 25.5 -16.5t19.5 -26.5q0 -2 1 -25.5t1 -38.5q0 -12 -1 -38.5t-1 -30.5t-8 -21.5t-12 -23.5 l-25 -25q-4 -4 -21.5 -11t-23.5 -10q4 -8 13.5 -26.5t20.5 -40t21.5 -40.5t14.5 -26q2 -4 9 -12t11 -10q4 4 12.5 21.5t10.5 21.5q2 6 6 29.5t7 49t6.5 49t3.5 30.5q2 10 5 30.5t7 42t7 39t3 21.5q0 6 3 18t7 26.5t7.5 27t5.5 16.5q2 0 5 2t5 2q0 -2 2 -2h4q2 -2 6 -2 q4 -2 12.5 -9.5t10.5 -11.5q2 -20 9 -70.5t14 -107.5t13.5 -108.5t8.5 -71.5q0 -6 1 -18.5t2 -26t1 -25.5v-18h-29q0 6 -3 18t-7 25.5t-7 26t-3 18.5q-4 8 -11.5 24.5t-11.5 20.5h-6h-4q-2 0 -2 2zM31 1520q6 0 30.5 -2t30.5 -7q2 0 9.5 -9t11.5 -13q2 -4 11 -23.5t13 -21.5 t10 -2h19q8 0 21.5 1t15.5 1q4 2 13 11t9 13q0 2 1 22.5t1 33.5q0 6 -1 27.5t-1 25.5q-8 0 -26.5 2t-40 6t-41 8t-25.5 9q-6 2 -16 11t-20.5 19t-19.5 20.5t-11 16.5t-2 12v19q0 6 1 19.5t1 15.5q2 8 10 24.5t12 20.5q8 8 33.5 24.5t32.5 18.5q2 0 28.5 3t38.5 3t38 -3 t28 -3q8 -2 24.5 -18.5t20.5 -24.5q2 -4 4 -16.5t4 -27t4 -26.5t2 -14q-4 0 -28.5 6t-30.5 12q-2 0 -4 10.5t-5.5 21.5t-6.5 21.5t-5 12.5q0 2 -12 3t-20 1q-4 0 -18.5 -1t-16.5 -3q-8 -4 -24.5 -20.5t-20.5 -24.5q-2 -4 -2 -9v-12q0 -4 1 -13t1 -11q2 -4 11 -12.5t13 -8.5 q2 -2 18.5 -5t36 -6t35 -6t19.5 -5q6 -4 16 -13.5t21.5 -19.5t19.5 -20.5t10 -16.5q4 -2 5 -22.5t1 -30.5t-1 -32t-5 -24q-2 -8 -11 -22t-19.5 -28.5t-20.5 -26t-16 -13.5q-2 -2 -25.5 -4t-38.5 -2q-14 0 -40.5 2t-28.5 4q-4 2 -13.5 10.5t-20.5 18.5t-20.5 20.5t-11.5 16.5 q-4 8 -10 38t-6 38zM582 1802l-45 21h157l-45 -21v-401l45 -23h-157l45 23v401zM737 1823q6 0 23.5 2t21.5 2q10 0 26.5 -2t18.5 -2t10.5 -7.5t12.5 -13.5t13 -23.5t9 -21.5v-12t1 -27.5t1 -31v-23.5v-27.5t-1 -35t-1 -29.5v-15q-2 -10 -5 -33.5t-6 -48t-6 -45t-5 -28.5 q-2 -6 -10.5 -14.5t-12.5 -8.5q-6 0 -18 -2t-26.5 -3t-27 -2t-18.5 -1v453zM1073 1812h-112v-198h67q-6 0 -16.5 -3t-20.5 -9.5t-19 -13.5t-11 -11q-2 -2 -5.5 -15.5t-6.5 -31t-6 -34.5t-3 -28q-2 -10 -1 -23t3 -26q2 -14 2 -30h129l-178 -11v45v45q0 20 3 70.5t6 107 t6 106.5t5 71zM1786 1434v100q-8 0 -26.5 3t-40 6t-40 7t-26.5 6q-2 0 -10.5 8.5l-12.5 12.5q-4 8 -12 25.5t-8 19.5q-2 12 -4 41t-3 60.5t-2.5 60t-1.5 39.5h87v-221h112v231q8 0 28.5 -3t28.5 -7q2 -2 10.5 -9.5t10.5 -11.5v-21.5t1 -33.5t1 -34.5v-22.5v-27.5t-1 -36 t-1 -33v-16.5q0 -12 -3 -35.5t-7 -48.5t-7.5 -45.5t-3.5 -24.5q-4 -10 -22 -27.5t-25 -17.5h-198v56h176zM782 1423l23 21v336h-23v-357zM1475 1577q-4 2 -7.5 -1t-3.5 -8t3 -9.5t8 -2.5q10 4 10 10.5t-10 10.5zM1186 1622h108v158h-108v-158zM434 1782q-2 0 -2 -1t-2 -1h-4 l-23 -133q2 0 5.5 -2.5t7.5 -2.5h2q2 0 4 3q2 0 4 2q8 4 25.5 21.5t19.5 21.5q0 2 1 14t1 16q0 8 -1 21.5t-1 15.5q0 4 -9 12.5t-13 10.5h-7h-6q-2 0 -2 2z" />
<glyph unicode="&#xaa;" horiz-adv-x="1720" d="M1229 2011l428 -2011h-555q-2 0 -9.5 13.5t-7.5 23.5q-4 10 -9 38.5t-11 60.5t-10 59.5t-6 40.5h-363q-2 0 -8 -21.5t-10 -34.5q-2 -10 -7.5 -35.5t-11.5 -54.5t-11 -54.5t-7 -35.5h-783v2011h1381zM776 688h207l-98 799q-4 -10 -10.5 -37t-8.5 -37q-8 -51 -19 -123.5 t-23.5 -151.5t-25 -156t-21.5 -138.5t-14 -99.5l-5 -37z" />
<glyph unicode="&#xab;" />
<glyph unicode="&#xac;" />
<glyph unicode="&#xad;" horiz-adv-x="1034" d="M1071 2017v-2017h-1130l2 2019z" />
<glyph unicode="&#xae;" horiz-adv-x="2408" d="M664 449q-10 8 -25.5 11t-24.5 3h-368q-2 0 -4 2q-2 0 -2 2v6v2l88 328v6q-57 78 -107.5 163t-87.5 175t-58.5 185t-21.5 194v18t1 26.5t1 28v17.5q12 82 49 150.5t93.5 119.5t128 84t153.5 43h103q205 0 392 -68.5t359 -177.5q14 -10 38 -25.5t48.5 -32.5t43 -30.5 t20.5 -15.5l14 -10q-2 -2 -2 -3t-2 -3l-2 -2q-4 -4 -17.5 -11.5t-19.5 -9.5h4q33 0 75 19.5t79 19.5h520l-154 -545l142 -260l4 -8q6 14 9 28.5t5 26.5h2l4 2l2 -2q6 0 6 -6q41 -61 67 -135t44 -146l2 -2q0 -2 2 -4q6 -4 21.5 -17t34 -27.5t34 -27t21.5 -18.5 q-4 -14 -15.5 -25.5t-25 -21.5t-26.5 -20.5t-21 -20.5v-184q0 -4 -3 -25.5t-6 -29.5q0 -8 -6 -15l-73 125q-8 0 -9 -6q-12 -25 -19 -40t-13.5 -28.5t-15.5 -28t-25 -34.5q-6 -6 -22.5 -21.5t-20.5 -17.5q-92 -66 -196.5 -95.5t-215.5 -29.5q-143 0 -277.5 37t-259 99.5 t-241.5 142.5t-223 166zM956 496q8 -6 24.5 -16.5t34 -20.5t32 -19.5t20.5 -11.5q84 -45 169 -86t174 -71.5t181 -49t189 -18.5q98 0 182 23.5t149 97.5h-4h-2q-4 0 -24.5 -8.5t-24.5 -10.5q-47 -16 -84 -22.5t-84 -6.5q-111 0 -216 29t-204.5 75t-192.5 105.5t-181 120.5 q-10 8 -23 8l-4 -2q-29 -29 -61.5 -54.5t-69.5 -41.5zM2173 408q16 -12 26.5 -30t18.5 -37t18.5 -36.5t26.5 -28.5v187q14 10 36.5 26.5t37.5 32.5q-16 23 -46 44.5t-50 33.5q-18 49 -28.5 102.5t-39.5 100.5q-2 -2 -7 -23.5t-10.5 -47t-10.5 -46t-9 -20.5h-4l-6 6 q-4 2 -6 2q-16 6 -42 16t-50 21q-29 10 -60 24h-6l6 -14l14 -19q15 -18 34.5 -43.5t40 -52t34.5 -43.5q10 -10 12 -9t2 -9v-8q-14 -29 -27.5 -51.5t-27.5 -43t-30.5 -42t-39.5 -48.5h23q47 0 88 16.5t82 39.5zM1933 360l-4 -4q-2 -2 -2 -4l12 8h-2h-4zM1962 387q0 4 -9 -4 t-5 -10q4 0 9 5t5 9zM1339 504q96 -45 196.5 -71.5t205.5 -26.5q61 0 126.5 9t112.5 52q10 10 34 31.5t24 40.5q0 14 -7.5 25t-13.5 22q-14 18 -36.5 45.5t-43 54.5t-36 45.5t-17.5 18.5h-10q-20 -68 -60 -120t-94.5 -88t-118 -55.5t-133.5 -19.5q-31 0 -56.5 18.5 t-55.5 18.5h-17zM2003 434q-10 -4 -14 -18q4 4 7 9t7 9zM2017 463q-6 0 -6 -7t6 -7q4 0 4 7t-4 7zM2036 489q-8 -4 -13 -22q4 4 7.5 10t5.5 12zM1319 510h14l-35 20q66 0 144 5.5t150.5 27t130 64.5t81.5 123q8 31 21.5 79t27 94t22.5 78.5t9 34.5v6h-278q-4 -16 -16.5 -55 t-25 -82t-24.5 -82t-16 -53q-18 -59 -60.5 -89t-99.5 -30q-4 0 -13.5 2t-11.5 2q12 10 27.5 26.5t19.5 33.5l199 690q20 70 68.5 89t107.5 19q0 -16 -17.5 -26t-21.5 -27l-73 -260l284 6l123 424l-14 8l-416 -8q-49 0 -101 -19.5t-98.5 -52t-80 -75.5t-48.5 -92l-213 -732 v-2q0 -18 15.5 -30.5t35 -20.5t37 -16t23.5 -19zM2056 530q-4 0 -4 -7t4 -7q6 0 6 7t-6 7zM711 537q43 0 94 13t99 37.5t85 60.5t49 81l213 744v83q0 18 -14 32t-33.5 23t-41 14t-36.5 5h-522l-174 -622v-33l111 -125h-4q-29 0 -58.5 11t-60.5 11q-23 0 -43.5 -3t-32.5 -23 q2 2 12.5 7t14.5 5q2 2 7 0t7 -2v-10l-86 -309h414zM842 1477q0 10 -2 19t-13 20h109q8 0 14 -7q0 -2 4 -6l2 -2v-61l-198 -705q-14 -49 -58.5 -66.5t-87.5 -17.5q-4 0 -15 2t-15 2q12 10 27.5 26.5t19.5 33.5l211 745v6q0 4 1 6.5t1 4.5zM2097 715q0 4 -3 4t-3 -4 q0 -2 3 -2t3 2zM1874 791q0 2 6 -5q2 -2 4 -2q4 -2 21.5 -7t38 -11t38 -11t21.5 -5q2 0 12 -5.5t21.5 -9.5t21.5 -9t13 -5h4h2q-2 27 -12.5 77t-26 101t-36 94t-40.5 56l-8 -13l-70 -233zM545 850q6 0 6 -6t-6 -6q-4 0 -4 6t4 6zM156 1567q0 -70 16 -135.5t44 -127 t61.5 -120t70.5 -113.5q0 -2 14.5 -22.5t22.5 -20.5q2 0 4 2q2 4 4 6t2 3t2 3q20 66 39 137.5t35 137.5q-43 49 -84 105.5t-72.5 118t-49 128t-11.5 133.5q-53 -47 -75.5 -108t-22.5 -127zM424 1612q0 -63 19.5 -117.5t50.5 -110.5l79 279h576q18 0 45 -8t43 -17 q10 -6 25.5 -22.5t30 -34.5t24.5 -32.5t12 -14.5h4q23 20 51.5 42.5t57.5 39.5q-29 -8 -50.5 11.5t-43.5 31.5q-18 8 -51 25.5t-69 35t-64.5 30.5t-37.5 17q-94 41 -194.5 66t-204.5 25q-63 0 -118.5 -12.5t-96.5 -42t-64.5 -76.5t-23.5 -115z" />
<glyph unicode="&#xb0;" horiz-adv-x="825" d="M240 1403q-31 23 -60.5 48.5t-48.5 59.5l-2 2q-45 78 -45 166q0 96 53 181.5t144 119.5q4 2 24.5 8.5t30.5 8.5q-10 0 11.5 2t54 3t64.5 -2t44 -11q72 -23 127 -79.5t78 -127.5q14 -37 16 -82t-8 -86q-27 -117 -113 -186.5t-204 -69.5q-43 0 -86 10t-80 35zM238 1556 q6 -4 11 -11t13 -15q41 -39 94 -53l9 -4h84q16 0 34.5 9t37 22.5t33.5 27.5t26 24l2 3h4h4v-3h18v7l-14 14q-20 16 -43 16q0 -8 6 -12t6 -12h6q-8 -20 -27.5 -34.5t-43 -23t-48 -11.5t-44.5 -3h-35q-63 8 -115 53q-2 4 -6 7.5t-4 9.5q0 2 3 2t5 2q4 8 10 14l-6 -4q0 4 4 8v4 q-12 0 -34.5 -10t-22.5 -27q6 0 13 3.5t11 3.5h2l-12 -9h2h2h4q2 0 3 1t3 1h3h2zM584 1563q0 -4 -1 -4t-1 4h2zM244 1571q4 0 4 -1t-4 -1t-4 1t4 1zM393 1630q2 -2 8 -2h2l3 2q2 2 2 10t-5.5 15.5t-13.5 7.5q0 2 -2 3t0 3l-55 55q0 4 -4 9q0 10 1 22t1 25v16t-2 25.5 t-7.5 23.5t-13.5 10t-12 -10q-4 -16 -7 -33.5t-3 -33.5h-2q0 2 -1 2t-1 2q-6 8 -11.5 15t-13.5 15q-4 4 -5 7.5t-5 7.5t-6 10v2q6 -4 22 -12q6 0 6 6l-2 2q-8 10 -19 14t-22 15q-2 2 -13 12t-15 14h-11q-6 0 -11 -1t-5 -11v-2l5 -10t3 -11l4 3q-2 -14 1 -26.5t3 -25.5 q4 -8 13 -8q4 0 6 6t2 8q2 -4 5 -14t6 -20.5t8 -18.5t14 -8q2 0 4 2q0 2 2 3t2 3q-4 16 -15.5 29.5t-11.5 30.5q4 0 13.5 -8.5t19.5 -19.5t19.5 -22.5t11.5 -15.5q4 -6 5 -14t2 -17.5t4 -15.5t13 -6q6 0 7 4t6 8q12 -12 24 -29h2q4 -8 19.5 -26.5t15.5 -22.5q6 0 12 1t8 7 v-2q0 -6 -10 -10zM367 1667q6 0 9 -6t3 -10l-2 -2q-4 0 -7 7t-3 11zM383 1653q4 0 4 -2t-4 -2q-2 0 -2 2t2 2zM348 1690q4 0 4 -3.5t-4 -3.5v7zM504 1855q-10 0 -14.5 -13t-4.5 -21v-86q0 -8 5.5 -21.5t13.5 -13.5t11 7t3 13q2 4 4 15.5t2 15.5v27v28q0 2 -2 14.5t-4 16.5 q0 6 -3 12t-11 6zM223 1776v6v-6zM188 1812q2 0 2 -1t-2 -1t-2 1t2 1zM203 1823q2 0 2 -1t-2 -1t-2 1t2 1zM231 1823h-2v4zM199 1829q2 0 2 -1t-2 -1v2zM195 1860v-5l-2 5h2zM180 1874v-10q-2 4 -2 10h2z" />
<glyph unicode="&#xb1;" />
<glyph unicode="&#xb2;" />
<glyph unicode="&#xb3;" />
<glyph unicode="&#xb4;" />
<glyph unicode="&#xb6;" />
<glyph unicode="&#xb7;" />
<glyph unicode="&#xb8;" />
<glyph unicode="&#xb9;" />
<glyph unicode="&#xba;" horiz-adv-x="825" d="M240 1403q-31 23 -60.5 48.5t-48.5 59.5l-2 2q-45 78 -45 166q0 96 53 181.5t144 119.5q4 2 24.5 8.5t30.5 8.5q-10 0 11.5 2t54 3t64.5 -2t44 -11q72 -23 127 -79.5t78 -127.5q14 -37 16 -82t-8 -86q-27 -117 -113 -186.5t-204 -69.5q-43 0 -86 10t-80 35zM238 1556 q6 -4 11 -11t13 -15q41 -39 94 -53l9 -4h84q16 0 34.5 9t37 22.5t33.5 27.5t26 24l2 3h4h4v-3h18v7l-14 14q-20 16 -43 16q0 -8 6 -12t6 -12h6q-8 -20 -27.5 -34.5t-43 -23t-48 -11.5t-44.5 -3h-35q-63 8 -115 53q-2 4 -6 7.5t-4 9.5q0 2 3 2t5 2q4 8 10 14l-6 -4q0 4 4 8v4 q-12 0 -34.5 -10t-22.5 -27q6 0 13 3.5t11 3.5h2l-12 -9h2h2h4q2 0 3 1t3 1h3h2zM584 1563q0 -4 -1 -4t-1 4h2zM244 1571q4 0 4 -1t-4 -1t-4 1t4 1zM393 1630q2 -2 8 -2h2l3 2q2 2 2 10t-5.5 15.5t-13.5 7.5q0 2 -2 3t0 3l-55 55q0 4 -4 9q0 10 1 22t1 25v16t-2 25.5 t-7.5 23.5t-13.5 10t-12 -10q-4 -16 -7 -33.5t-3 -33.5h-2q0 2 -1 2t-1 2q-6 8 -11.5 15t-13.5 15q-4 4 -5 7.5t-5 7.5t-6 10v2q6 -4 22 -12q6 0 6 6l-2 2q-8 10 -19 14t-22 15q-2 2 -13 12t-15 14h-11q-6 0 -11 -1t-5 -11v-2l5 -10t3 -11l4 3q-2 -14 1 -26.5t3 -25.5 q4 -8 13 -8q4 0 6 6t2 8q2 -4 5 -14t6 -20.5t8 -18.5t14 -8q2 0 4 2q0 2 2 3t2 3q-4 16 -15.5 29.5t-11.5 30.5q4 0 13.5 -8.5t19.5 -19.5t19.5 -22.5t11.5 -15.5q4 -6 5 -14t2 -17.5t4 -15.5t13 -6q6 0 7 4t6 8q12 -12 24 -29h2q4 -8 19.5 -26.5t15.5 -22.5q6 0 12 1t8 7 v-2q0 -6 -10 -10zM367 1667q6 0 9 -6t3 -10l-2 -2q-4 0 -7 7t-3 11zM383 1653q4 0 4 -2t-4 -2q-2 0 -2 2t2 2zM348 1690q4 0 4 -3.5t-4 -3.5v7zM504 1855q-10 0 -14.5 -13t-4.5 -21v-86q0 -8 5.5 -21.5t13.5 -13.5t11 7t3 13q2 4 4 15.5t2 15.5v27v28q0 2 -2 14.5t-4 16.5 q0 6 -3 12t-11 6zM223 1776v6v-6zM188 1812q2 0 2 -1t-2 -1t-2 1t2 1zM203 1823q2 0 2 -1t-2 -1t-2 1t2 1zM231 1823h-2v4zM199 1829q2 0 2 -1t-2 -1v2zM195 1860v-5l-2 5h2zM180 1874v-10q-2 4 -2 10h2z" />
<glyph unicode="&#xbb;" />
<glyph unicode="&#xbc;" horiz-adv-x="1558" d="M156 1145q-16 -6 -29 -6q-27 0 -43 17.5t-16 39.5q0 27 20 49q27 18 57.5 43t63.5 47.5t66.5 38t68.5 19.5q45 -6 62 -45q6 -23 6 -48q0 -45 -11.5 -93t-13.5 -91v-59q0 -104 5 -209t7 -209q-8 -29 -25.5 -42t-37.5 -13q-18 0 -35.5 12t-24.5 41q-2 104 -7 208.5 t-5 209.5v59q0 27 7.5 59.5t11.5 65.5q-35 -23 -67.5 -50.5t-59.5 -43.5zM1100 1397q25 27 53 26q23 0 40 -16t17 -43q0 -20 -12 -41q-66 -96 -119 -198.5t-110 -206.5q-70 -127 -150 -249t-157 -245q-29 -45 -53.5 -88t-55.5 -86q-20 -29 -46 -57.5t-50.5 -58.5t-43 -62.5 t-24.5 -69.5q-8 -29 -25.5 -42t-37.5 -13q-23 0 -40.5 16.5t-17.5 48.5v8q8 45 27.5 85t46.5 77t56.5 71t56.5 71q31 43 55.5 86t52.5 88q76 119 154 236.5t143 240.5q59 106 114.5 214t125.5 208zM1217 453q4 33 22 49t41 16t39 -15.5t20 -47.5v-84t2 -84q12 4 21 4 q23 0 41 -17.5t18 -46.5q0 -14 -2 -20q-6 -16 -19.5 -30.5t-35.5 -16.5h-18q2 -29 2 -59.5v-59.5q-8 -29 -25.5 -42t-38.5 -13q-18 0 -35.5 12t-23.5 41v53.5t-2 52.5q-45 -4 -83 -8t-42 -4q-39 2 -76 4t-74 13q-8 2 -28.5 12t-24.5 10h-2l4 -4q-16 12 -24.5 24.5t-8.5 30.5 q0 4 1 7t1 8q35 100 88.5 193t102.5 185q20 37 39 72q6 10 8 26.5t12 22.5q20 31 53 31q39 0 58 -43v-12q0 -33 -24.5 -88.5t-59.5 -120t-72 -130t-63 -116.5q16 -4 37.5 -5t44.5 -1q35 0 68.5 2t60.5 6q-2 47 -2 96.5v96.5z" />
<glyph unicode="&#xbd;" horiz-adv-x="1554" d="M145 1135q-16 -6 -28 -7q-27 0 -43.5 17.5t-16.5 40.5q0 27 21 49q27 18 57.5 43t63 47.5t66.5 37.5t69 19q45 -6 61 -45q6 -23 6 -47q0 -45 -11 -93t-13 -91v-59q0 -104 5 -209t7 -209q-8 -29 -25.5 -42.5t-37.5 -13.5q-18 0 -36 12.5t-24 41.5q-2 104 -7 208.5 t-5 208.5v60q0 27 7 59.5t11 65.5q-35 -23 -67.5 -50.5t-59.5 -43.5zM1047 1397q25 27 53 26q23 0 40 -16t17 -43q0 -20 -12 -41q-66 -96 -119 -198.5t-111 -206.5q-70 -127 -149.5 -249t-157.5 -245q-29 -45 -53.5 -88t-54.5 -86q-20 -29 -46 -57.5t-50.5 -58.5t-43 -62.5 t-24.5 -69.5q-8 -29 -25.5 -42t-38.5 -13q-23 0 -40 16.5t-17 48.5v8q8 45 27.5 85t46 77t56.5 71t56 71q31 43 55.5 86t53.5 88q76 119 153.5 236.5t143.5 240.5q59 106 114.5 214t125.5 208zM995 606q-33 0 -51 18.5t-18 43.5q0 16 8 31.5t31 25.5q61 23 120 23 q72 0 133.5 -32t102.5 -100q10 -18 20.5 -40.5t10.5 -45.5v-34q0 -20 -2 -45t-7 -39q-18 -45 -48.5 -82t-64.5 -70t-69 -61.5t-63 -55.5q31 2 61.5 5.5t63.5 3.5q41 0 79.5 -7.5t79.5 -9.5q31 -4 46.5 -21.5t15.5 -39.5q0 -23 -17.5 -42.5t-52.5 -19.5q-41 4 -82 10.5 t-84 6.5q-41 0 -76.5 -4.5t-74.5 -4.5q-35 0 -82 11q-49 14 -49 59q0 14 6 33q20 53 62 90t88 73t86 74.5t59 94.5q6 18 6 39q0 29 -13.5 52t-35 40.5t-48 28t-53.5 14.5q-47 -7 -88 -23z" />
<glyph unicode="&#xbe;" horiz-adv-x="1523" d="M182 1165q-23 -16 -47 -16q-25 0 -41 16.5t-16 38.5q0 27 20 49q39 41 87 61.5t98 20.5q76 0 133 -46t57 -132v-18q-4 -41 -21.5 -69t-39.5 -54q53 -27 86 -68q25 -31 35 -61.5t10 -61.5q0 -53 -30 -101t-76 -85t-101 -58.5t-109 -21.5q-47 0 -88 20.5t-63 65.5 q-2 6 -3 11.5t-1 11.5q0 29 18.5 45t42.5 16q29 0 51 -22q12 -27 49 -27q25 0 55.5 12.5t58.5 31.5t47.5 43t21.5 46v12q0 35 -20.5 52.5t-48.5 29t-53.5 24.5t-37.5 38q-6 12 -6 24q0 23 16.5 44.5t34.5 41t34.5 39t16.5 37.5q0 16 -18 35q-31 27 -68 27q-14 0 -20 -3 q-23 -4 -35.5 -18.5t-28.5 -30.5zM1100 1397q25 27 53 26q23 0 40 -16t17 -43q0 -20 -12 -41q-66 -96 -119 -198.5t-110 -206.5q-70 -127 -150 -249t-157 -245q-29 -45 -53.5 -88t-55.5 -86q-20 -29 -46 -57.5t-50.5 -58.5t-43 -62.5t-24.5 -69.5q-8 -29 -25.5 -42 t-37.5 -13q-23 0 -40.5 16.5t-17.5 48.5v8q8 45 27.5 85t46.5 77t56.5 71t56.5 71q31 43 55.5 86t52.5 88q76 119 154 236.5t143 240.5q59 106 114.5 214t125.5 208zM1217 440q4 33 22 49.5t41 16.5t39 -15.5t20 -48.5v-84t2 -84q12 4 21 5q23 0 41 -17.5t18 -46.5 q0 -14 -2 -20q-6 -16 -19.5 -30.5t-35.5 -17.5h-18q2 -29 2 -59.5v-58.5q-8 -29 -25.5 -42.5t-38.5 -13.5q-18 0 -35.5 12.5t-23.5 41.5v53t-2 53q-45 -4 -83 -8t-42 -4q-39 2 -76 4t-74 12q-8 2 -28.5 12.5t-24.5 10.5h-2l4 -4q-16 12 -24.5 24.5t-8.5 30.5q0 4 1 7t1 7 q35 100 88.5 193.5t102.5 185.5q20 37 39 72q6 10 8 26.5t12 22.5q20 31 53 31q39 0 58 -43v-13q0 -33 -24.5 -88t-59.5 -119.5t-72 -130t-63 -116.5q16 -4 37.5 -5t44.5 -1q35 0 68.5 2t60.5 6q-2 47 -2 96v96z" />
<glyph unicode="&#xbf;" horiz-adv-x="831" d="M528 1294q-16 8 -41 9q-29 0 -63.5 -11.5t-68 -28t-63.5 -38t-50 -41.5q2 -6 3 -11.5t1 -11.5q0 -23 -17.5 -41t-50.5 -18q-37 10 -53 28.5t-16 43.5q0 47 41 88q27 29 66.5 58.5t83.5 53t92 37.5t95 14q45 0 85 -16t73 -53q31 -35 52.5 -87t23.5 -98v-18 q0 -84 -29.5 -144.5t-71.5 -113.5t-86.5 -108.5t-70.5 -129.5q-6 -16 -6 -36q0 -27 7 -58t15 -61.5t16.5 -60t10.5 -54.5q-8 -29 -25.5 -42t-38.5 -13q-18 0 -35.5 12t-23.5 41q-4 41 -10 74t-14.5 61.5t-13.5 55t-5 55.5q0 35 10 72.5t39 89.5q20 39 57 77.5t71 78.5 t59.5 84t25.5 93q0 8 -1 16.5t-3 18.5q-2 12 -7 31.5t-13.5 40t-21 38t-28.5 23.5zM379 113q6 23 21.5 34t33.5 13q16 8 39 8q35 0 62.5 -18.5t27.5 -53.5q0 -4 -1 -7t-1 -7q-6 -29 -24.5 -52.5t-47.5 -35.5q-14 -8 -27 -10t-24 -2q-35 0 -52 25.5t-17 58.5q0 22 10 47z" />
<glyph unicode="&#x152;" horiz-adv-x="2813" d="M2723 2011v-461h-454v-290h399v-472h-399v-307h454v-481h-997v2011h997zM88 1012q0 115 17.5 234.5t55.5 232t96 211t141 172t191.5 116.5t246.5 43q205 0 348 -93t231 -240.5t128 -329.5t40 -361q0 -172 -42 -349t-131 -320.5t-230.5 -234.5t-339.5 -91 q-207 0 -350.5 91t-232.5 235.5t-129 325t-40 358.5zM643 1012v-80t3 -106.5t13.5 -116t32 -105.5t56 -76.5t88.5 -29.5q76 0 115.5 62.5t56 147.5t18.5 171t2 133v82t-3 108.5t-13.5 115.5t-32 104t-56 76t-87.5 30q-51 0 -85 -30t-55.5 -77t-33 -105.5t-15.5 -115.5 t-4 -107v-81z" />
<glyph unicode="&#x153;" horiz-adv-x="2633" d="M2543 2011v-461h-454v-290h399v-472h-399v-307h454v-481h-1351l10 2011h1341zM811 2023q57 0 119.5 -32.5t119 -78.5t101.5 -96.5t72 -84.5q57 -74 92 -167.5t54.5 -193.5t26.5 -200.5t7 -188.5q0 -76 -15.5 -179.5t-46 -212t-79 -214t-114 -189.5t-150.5 -135t-187 -51 h-1026v2023h1026zM459 1026v-85t5 -111.5t17.5 -119t36 -107.5t60 -77.5t92.5 -29.5q43 0 73.5 32.5t50 84t30 112.5t14.5 120.5t5 107.5t1 73q0 37 1 89t-2 108.5t-13.5 111t-32 97.5t-57 69.5t-91.5 26.5q-70 0 -108.5 -62.5t-57 -146.5t-21.5 -167t-3 -126z" />
<glyph unicode="&#x178;" horiz-adv-x="1624" d="M-350 846q6 53 -2 107.5t-4 107.5q-8 10 -11 30.5t-3 32.5q0 20 3 39t3 39q0 10 -3 16.5t-3 16.5q0 27 6 58.5t15 63.5t20.5 59.5t19.5 49.5q23 68 58.5 130.5t78.5 121.5h-10q0 12 18.5 28.5t42 31t48 23.5t37.5 9h24q-18 -6 -24 -16h12q10 0 12 4t10 4q10 0 28.5 -17.5 t29.5 -21.5q12 -6 57 -30.5t96.5 -52t96.5 -53t55 -32.5q12 -8 49 -31.5t80 -51t82 -53t57 -38.5q2 -4 15.5 -14t26.5 -21.5t25.5 -21.5t16.5 -12q14 -10 35.5 -24.5t38.5 -14.5h4q4 2 21.5 7t23.5 7h160q4 0 15 -3t15 -3h5q10 0 28.5 12.5t37 28.5t32.5 32.5t18 26.5 q53 51 110.5 98.5t114 93.5t111.5 94t107 103q2 2 5 6.5t3 6.5v4v4q-31 -29 -54.5 -57.5t-58.5 -55.5q12 14 26.5 36t32 42.5t36 35.5t36.5 15h15q8 -2 21 -5t15 -3q6 -4 15.5 -12t17.5 -16.5t14.5 -15.5t6.5 -9v-8l14 8l8 -10q8 -11 17.5 -25t19.5 -30.5t17 -26.5 q2 -2 4 -6.5t4 -8.5q4 -6 9 -20t7 -19v-4v-4q-6 4 -14 18.5t-18.5 31t-19.5 29.5t-18 13v-4v-2q27 -63 65 -123.5t67 -121.5q14 -10 20 -26.5t10 -35t8.5 -36t12.5 -32.5l53 -198q-2 -6 1 -17.5t8 -23.5t9 -21.5t7 -13.5q10 -33 13 -69.5t3 -71.5q0 -147 -53.5 -278.5 t-130.5 -254.5q-12 -18 -27.5 -37.5t-34 -37t-41 -28.5t-47.5 -11q-8 0 -14 1t-13 7q-16 12 -56 39.5t-85 59.5t-85 59.5t-54 39.5q-4 2 -18.5 14.5t-32 27t-33.5 28.5t-25 23q-10 8 -29.5 28.5t-23.5 24.5t-14 19.5t-21.5 31.5t-20.5 32.5t-14 22.5q-2 6 -13 27.5 t-24.5 48.5t-26.5 52.5t-19 39.5q-6 16 -15.5 35t-21 35t-27.5 27.5t-37 11.5q-27 0 -65.5 -4t-63.5 -21q-16 -10 -28.5 -34.5t-22.5 -41.5q-37 -66 -78 -127t-76 -124q-20 -35 -37.5 -57.5t-33 -44t-30.5 -48.5t-30 -65q-4 -10 -4 -12.5t-10 -2.5q-16 0 -29.5 7.5 t-29.5 7.5q-12 0 -15.5 -2.5l-17.5 -12.5t-49 -37.5t-73 -57.5t-73 -57.5t-49 -37.5q-2 -2 -7 -4t-7 -4q-6 -2 -30 -7.5t-32 -7.5h-4q-27 0 -42 18.5t-32 34.5q-45 41 -87 79t-78.5 80t-66.5 89t-50 105q-2 4 -8.5 22.5t-8.5 22.5q-4 10 -7 8t3 14zM240 319q-4 4 -8 0t0 -6 t7 0t1 6zM347 412q-4 0 -4.5 -8.5t4.5 -8.5q4 0 4 8.5t-4 8.5zM-20 541q-6 0 -6 -7.5t6 -7.5t6 7.5t-6 7.5zM539 549q-4 4 -8 -1t0 -7t7 1t1 7zM-4 557q-6 0 -6 -8t6 -8q4 0 4 8t-4 8zM469 627q0 4 -10 -6.5t-6 -10.5q4 -2 10 5.5t6 11.5zM598 633q-4 0 -4 -7.5t4 -7.5 q6 0 6 7.5t-6 7.5zM484 647q-4 0 -4 -7t4 -7q6 0 6 7t-6 7zM134 686q2 4 -4.5 4t-4.5 -4q5 -8 9 0zM148 694q-4 0 -4 -8t4 -8q6 0 6 8t-6 8zM187 694q-6 0 -6 -8t6 -8t6 8t-6 8zM201 694q-4 0 -4 -8t4 -8q6 0 6 8t-6 8zM-28 702q-6 0 -6 -8t6 -8t6 8t-6 8zM1553 702 q-6 0 -6 -8t6 -8t6 8t-6 8zM-51 711q0 -2 -3 -4t-3 -5h4h2q8 0 8 9h-4h-4zM-235 840q0 -12 21.5 -34t50 -44.5t57.5 -38.5t43 -16q0 10 -9.5 15t-17.5 9q-16 12 -38.5 31.5t-45.5 36.5q-25 20 -53 41h-8zM-143 854q27 -27 61.5 -52.5t73.5 -46t79 -33.5t81 -13 q63 0 129 24.5t120 68.5t88 103.5t34 130.5q0 14 -2 23.5t-15 23.5q-35 41 -79 82t-95 74t-107.5 53.5t-113.5 20.5q-61 0 -117.5 -29t-100.5 -75t-70.5 -104t-26.5 -118q0 -45 11 -68.5t42 -56.5l-6 -8h14zM1637 717q-6 -6 -15 -6h5h4q8 0 14 6h-4h-4zM279 725q-6 0 -6 -7 t6 -7q4 0 4 7t-4 7zM430 784q-31 -6 -55 -25.5t-43 -41.5h4h4q2 0 10.5 3t10.5 5q2 0 4 -1t4 -1v-8q14 0 37.5 10t23.5 31l-4 4l-4 4v4v4q0 2 3 6t5 6zM299 725q2 4 -3 4t-3 -4q0 -4 3 -4t3 4zM1432 748q-6 0 -6 -8.5t6 -8.5q4 0 4 8.5t-4 8.5zM1346 825q4 -4 16.5 -9 t16.5 -7q10 -4 38.5 -14.5t60.5 -21.5t59.5 -20.5t39.5 -13.5h29q61 0 101 36t65 87t35 109.5t14 103.5q0 4 -1 15.5t-3 15.5v-23q0 16 -4 45t-12.5 59t-19.5 56.5t-21 38.5q-8 10 -34 35.5t-36 34.5h20q0 8 -12 11t-14 3q-74 0 -142.5 -27.5t-130 -70.5t-117 -94.5 t-106.5 -98.5l13 8q-8 -8 -7.5 -21t0.5 -24q0 -31 16.5 -62.5t41 -59t50.5 -51.5t44 -40zM1751 801q-4 -4 -15 -12.5t-15 -12.5l-6 -4q10 4 20 12.5t16 16.5zM-249 854l8 -8l2 4l-2 4q0 2 -3 4t-5 4v-4v-4zM-264 870h8v7h-8v-7zM-172 877q-6 0 -6 -7.5t6 -7.5q4 0 4 7.5 t-4 7.5zM498 893q-4 0 -4 -8t4 -8q6 0 6 8t-6 8zM506 907q-6 0 -6 -7t6 -7t6 7t-6 7zM1897 991h10q0 10 -10 17v-17zM576 1030q-6 0 -6 -7t6 -7t6 7t-6 7zM-395 1044q4 -2 4 -6t-4 -8q-4 -2 -4 7t4 7zM-387 1114q4 -4 4 -18.5t-4 -20.5q-2 -2 -3 5t-1 15.5t1 14.5t3 4z M514 1100q6 -10 17 -17h4h4l-25 23v-4v-2zM1239 1137q0 2 -5 -2.5t-12 -11.5l-12 -12t-1 -5q6 2 18 13.5t12 17.5zM781 1204q0 -23 7 -43t17 -39l4 2q2 2 2 4v5q0 6 -1 18t-4 23.5t-9 20.5t-16 9zM484 1137q-4 0 -4 -7.5t4 -7.5q6 0 6 7.5t-6 7.5zM478 1145q-6 0 -6.5 -8.5 t6.5 -8.5q4 0 4 8.5t-4 8.5zM-378 1206q4 -6 4 -26.5t-4 -26.5q-2 -4 -3.5 5t-1.5 21.5t1.5 20.5t3.5 6zM453 1167q-6 0 -6 -7t6 -7t6 7t-6 7zM445 1174q-4 0 -4 -6.5t4 -6.5q6 0 6 6.5t-6 6.5zM422 1190q-4 0 -4 -8t4 -8q6 0 6 8t-6 8zM729 1198q0 4 -4 4t-4 -4t3 -4t5 4z M1309 1206q-6 0 -6 -8t6 -8t6 8t-6 8zM1325 1223q-6 0 -6 -8.5t6 -8.5q4 0 4 8.5t-4 8.5zM1354 1243q-6 0 -6 -7t6 -7t6 7t-6 7zM766 1284v-20.5t11 -12.5h6l8 9l8 2q0 10 -8 20t-16 14q-9 -2 -9 -12zM750 1268q-6 0 -6 -8.5t6 -8.5t6 8.5t-6 8.5zM1072 1352q2 -4 -1.5 -7.5 t-5.5 -1.5q-4 2 0.5 7.5t6.5 1.5zM1127 1405q4 0 4 -8t-4 -8q-6 0 -6 8t6 8zM19 1481q-4 2 -4 -3t4 -5q4 2 4 5t-4 3zM-98 1636q0 -12 -1 -32.5t2 -40t12.5 -32.5t31.5 -13l2 2q4 0 8 6t7 8q0 -8 8 -8q2 0 8 4t8 4l4 -4l4 -4q4 0 20.5 -1t20.5 -1q0 18 12.5 28.5t18.5 26.5 v-31q10 0 10 9.5t10 13.5q0 -2 3 -4q2 -2 4 -2l2 -2q6 0 13 8t14 19.5t13.5 20.5t10.5 13q2 -2 4 -2q2 -2 4 -2t7 2t7 2l-14 16q8 4 8 17q0 2 -1 4t-1 4q-4 -8 -14 -8t-32.5 18.5t-35.5 18.5q-2 0 -8 -3t-8 -3q-31 0 -56.5 19t-56.5 19q-12 0 -26.5 -7t-22.5 -17v-66z M1491 1565q-4 0 -4 -7.5t4 -7.5q6 0 6 7.5t-6 7.5zM1491 1571q-2 4 -6 0t0 -6q4 -4 7 -1t-1 7zM1850 1571q6 0 6 -6t-6 -6q-4 0 -4 6t4 6zM125 1587q-6 0 -6 -8t6 -8t6 8t-6 8zM95 1595q4 0 4 -8t-4 -8t-4 8t4 8zM1485 1620q-6 0 -6 -8t6 -8q4 0 4 8t-4 8zM1829 1624 q4 0 4 -2t-4 -2q-4 -2 -4 2t4 2zM195 1632q-6 0 -6 -6t6 -6q4 0 4 6t-4 6zM187 1640q-6 0 -6 -8t6 -8t6 8t-6 8zM179 1649q-6 0 -6.5 -8.5t6.5 -8.5q6 0 6 8.5t-6 8.5zM1469 1702q-12 -10 -31.5 -26.5t-38.5 -26.5q4 6 13.5 14t18.5 17.5t18.5 15.5t15.5 6h4zM101 1702 q2 4 -3 4t-3 -4q0 -4 3 -4t3 4zM-28 1710q-4 -12 -8 0q-2 4 4 4t4 -4zM-43 1724q4 0 4 -7t-4 -7q-6 0 -6 7t6 7zM-82 1733q-2 0 -4 -3.5t-4 -5.5h4h4q2 2 5.5 4.5t3.5 4.5l-4 2zM1743 1741h8l-8 8v-8zM-8 1780q0 -10 9.5 -18.5t19.5 -8.5q0 10 -9.5 18.5t-19.5 8.5z M1602 1794q-10 0 -19.5 -16.5t-13.5 -22.5l37 39h-4zM1727 1767q0 -2 2 -4q0 -2 2 -4l4 -4l2 4l-2 4l-6 6zM-20 1786q-6 0 -6 -8.5t6 -8.5t6 8.5t-6 8.5zM1614 1847q6 0 6 -8t-6 -8t-6 8t6 8zM49 2021h555q14 -25 31.5 -69.5t36 -101t38 -117t38 -116.5t36 -101.5 t31.5 -67.5l191 573h565q-23 -53 -59.5 -145t-82 -204.5t-93.5 -233.5t-93 -231.5t-82 -198.5t-59 -134v-874h-543v844z" />
<glyph unicode="&#x2c6;" horiz-adv-x="2820" d="M864 14q-156 76 -310.5 161t-278 194.5t-200.5 254t-77 341.5q0 162 60.5 300t160.5 247.5t232.5 191.5t277.5 133q8 2 30.5 9t47 14.5t46 13.5t30.5 10q6 2 32.5 7t55 11.5t54.5 12.5t32 6q45 12 83 32.5t85 20.5q6 0 15 -1t11 -13q68 -18 133.5 -27.5t132 -17.5 t134 -16.5t135.5 -24.5q135 -33 264 -102.5t250 -139.5q4 -2 23.5 -17.5t42 -33.5t41 -35.5t18.5 -19.5q6 -6 22.5 -23.5t35 -36t35.5 -35t26 -22.5q2 -4 12 -11t14 -9q43 -63 79 -123t61.5 -123.5t40 -131t14.5 -145.5v-96q-20 -35 -23.5 -73t-15.5 -72q-10 -29 -35 -66 t-53.5 -71.5t-57 -65.5t-49.5 -49q-12 -57 -43.5 -91t-73.5 -56.5t-87.5 -41t-85.5 -45.5q-25 -16 -53.5 -44.5t-53.5 -41.5q-4 -2 -24.5 -5t-24.5 -5q-10 -4 -45 -16.5t-76 -27.5t-77 -28.5t-44 -17.5q-59 -18 -121.5 -21.5t-122.5 -25.5h-213q-20 -10 -46.5 -13.5 t-52 -6.5t-50.5 -8t-43 -19h-143q-23 14 -49.5 12t-38.5 16q-18 23 -26.5 38.5t-16 28.5t-18.5 26.5t-38 33.5zM1065 -113q-6 0 -6 -11t6 -11q10 0 10 11t-10 11zM1184 -123q2 4 -5.5 4t-7.5 -4q13 -8 13 0zM989 -94q47 -6 89 -8t87 -2v108q0 2 3 8t3 11q6 0 7 6v4h-13 q-2 0 -5 14t-3 25v106q4 -33 -22 -33q-18 0 -19 23q2 -20 -20.5 -24.5t-34.5 -4.5h-4q-12 6 -24.5 16.5t-12.5 26.5t15.5 25.5t35 12.5t37.5 4t27 3q0 10 9 17.5t19 7.5v15.5t2 17.5q0 4 3 19t3 18q0 4 -3 11t-3 9q-27 63 -59.5 90t-106.5 17q10 10 23.5 11t28.5 1 q31 0 55 -10.5t51 -30.5q2 2 4 9t4 9v6v5q0 12 -2 30.5t-3 37t-2 32.5t-1 16q0 4 -6 24.5t-6 24.5q0 10 5 15.5t12 8.5t13.5 6t8.5 9q6 12 12 53.5t11 89.5t9.5 93l6.5 65h6h4q2 0 5 -4t5 -8q0 8 8.5 31.5t8.5 32.5v4q-2 14 -4.5 40.5t-4.5 30.5l-8 9q12 35 36 70.5t50 64.5 q10 12 26.5 28.5t32 31.5t26.5 26.5t13 11.5h11v-12q-27 -23 -56.5 -48.5t-54 -55t-40 -62.5t-15.5 -70v-45q27 104 99.5 171t166.5 103.5t199.5 51t197.5 14.5q160 0 313.5 -11t313.5 -36h10q0 16 -14 41t-35 25l-119 116q-2 23 -21.5 31t-33.5 16q-176 135 -374.5 227.5 t-422.5 112.5h-36.5h-60.5h-60.5h-34.5t-25.5 5.5t-23.5 7.5l10 16q-35 -4 -62.5 14.5t-58.5 18.5q-29 0 -44 -12.5t-44 -12.5q0 -2 2 -3t2 -5q2 -2 4 -2t3 -1t3 -1q4 -2 9 -2l2 -6q0 -2 -2 -4q-123 -14 -252 -51t-252 -95.5t-232.5 -137.5t-191.5 -178.5t-130 -221 t-48 -263.5q0 -178 86 -328.5t217 -269.5q47 -41 105.5 -82.5t117.5 -60.5q29 -10 54.5 -34.5t60.5 -24.5q20 0 28 28q18 -18 43 -43.5t58 -25.5q16 0 21 10t5 29q0 35 -30.5 67.5t-65.5 32.5q-18 0 -28.5 -4t-20.5 -25q-12 6 -19.5 15.5t-16.5 19.5t-20.5 17.5t-29.5 7.5 q-16 0 -22.5 -8.5t-10.5 -18.5t-8 -18.5t-14 -8.5l-4 3q-2 4 -10.5 10t-8.5 8q-2 0 -2 2v4q0 10 5 17.5t5 17.5t-4 21.5t-16 11.5h-76q-12 0 -9 15t3 17q35 0 69.5 -14t73.5 -14q6 0 10.5 1t8.5 9q-29 4 -63 14.5t-63.5 27.5t-49 42t-19.5 59q41 0 82 -9t84 -9q4 0 23.5 1 t23.5 1q0 10 9.5 19.5t19.5 -1.5q70 37 133 82t112.5 101.5t78 127t28.5 156.5q0 125 -58.5 241t-168.5 185q0 4 4 6.5t8 2.5q8 0 20 -9q4 -4 18.5 -15t18.5 -15q49 -45 82 -88t53.5 -90.5t29.5 -101.5t9 -122q0 -193 -81.5 -347.5t-255.5 -246.5h36q-23 -10 -43 -19 t-45 -13q4 -10 13.5 -10.5t17.5 -0.5q74 0 126 40t105 87h11v-8q2 0 9 4t11 4h8l15.5 15.5t17.5 15.5v-8v-12q-2 -2 -7 -14.5t-5 -14.5q0 -8 12 -8l39 176v-41q0 -31 -1 -64.5t-11 -62.5q-6 -23 -16.5 -41.5t-10.5 -46.5q0 -29 13.5 -50.5t13.5 -50.5q0 -49 3 -102t-24 -96 q-23 12 -39 16t-39 4h-16q27 -37 62.5 -66.5t64.5 -70.5q0 -2 3 -5t3 -5zM989 4q0 35 18.5 55.5t53.5 20.5q43 0 59.5 -24.5t16.5 -61.5q0 -27 -16.5 -47.5t-47.5 -20.5q-35 0 -59.5 21.5t-24.5 56.5zM1018 -2q0 -23 14.5 -38t40.5 -15q18 0 30.5 15t12.5 34q0 16 -10 37.5 t-33 21.5q-27 0 -41 -15t-14 -40zM1853 -6q-14 -4 -51 -8t-57 -13q-10 -4 -9 -8t1 -8t-5.5 -7t-25.5 -5h16q2 0 22.5 7t44 15t44 16.5t20.5 10.5zM1038 4q0 20 4.5 24.5t22.5 4.5q23 0 28 -6.5t5 -28.5q0 -4 -1 -12.5t-1 -12.5q-2 -2 -13.5 -5t-17.5 -3q-16 0 -21.5 12.5 t-5.5 26.5zM1612 33q-10 0 -10 -9.5t10 -9.5q6 0 6 9.5t-6 9.5zM1706 59q10 -27 34.5 -31.5t49.5 -4.5q8 0 28.5 2t41 8t37 16t16.5 27v4q-14 -8 -25.5 -14.5t-25.5 -6.5h-9q4 6 13.5 11.5t19.5 8.5t18.5 8t8.5 11q0 4 -5 11.5t-7 11.5t-10.5 13t-17.5 20.5t-18.5 19.5 t-11.5 12q2 -10 -4 -14t-16.5 -5t-19.5 0l-9 1q-39 -8 -52 -30.5t-24 -57.5q0 -2 -6 -10.5t-6 -10.5zM1532 94q0 -29 25.5 -42t52.5 -13h16t12 4q6 2 14.5 10t17.5 17.5t17.5 16.5t12.5 11v-26q8 2 8 13v17q0 12 -10 23.5t-24.5 21t-30 15.5t-27.5 6q-29 0 -56.5 -20.5 t-27.5 -53.5zM944 59q-10 0 -10 -8t10 -8q4 0 4 8t-4 8zM836 72q-8 0 -8.5 -9.5t8.5 -9.5q6 0 6 9.5t-6 9.5zM795 111q-4 0 -4 -9.5t4 -9.5q8 0 8 9.5t-8 9.5zM1028 131q4 -4 4 -16.5t-4 -16.5q-2 -2 -3 3t-1 12.5t1 12.5t3 5zM1096 131q6 -4 6 -16.5t-6 -16.5q-2 -2 -3 3 t-1 12.5t1 12.5t3 5zM1065 111q0 -4 -3 -4.5t-5 4.5q0 4 6 4t2 -4zM989 186q8 0 8 -9t-8 -9q-4 0 -4 9t4 9zM1786 186q-8 0 -8 -9t8 -9q6 0 6 9t-6 9zM688 217q4 0 4 -5t-4 -5q-4 -2 -4 5t4 5zM535 266q-4 2 -4.5 -6t4.5 -6q4 2 4 6t-4 6zM979 336q0 35 19.5 56.5t56.5 21.5 t55 -21.5t18 -56.5q0 -4 -1 -16.5t-1 -14.5l-10 -12v49l-12 4l-8 4t-9 4h-6h-4l-8 -4l-8 -4q-6 -2 -10 -4v-68h55q-4 -10 -24.5 -15t-24.5 -5q-31 0 -54.5 25.5t-23.5 56.5zM688 274q-6 0 -6 -10t6 -10q8 0 8 10t-8 10zM670 293q-6 0 -6 -9.5t6 -9.5q8 0 8 9.5t-8 9.5z M649 305q-6 0 -6 -10t6 -10q10 0 10 10t-10 10zM1106 332q10 -4 0 -10q-4 0 -4 7t4 3zM1434 831q0 -100 38.5 -190t106.5 -158.5t157 -109.5t189 -41q61 0 129 16.5t129.5 48t110.5 79.5t73 112l9 -23q10 6 18 25.5t10 23.5q-12 -6 -20 -7t-23 -1h-12q8 14 12 16.5t8.5 2.5 h9.5t17 8q23 16 27 44t5 55.5t6 51t30 31.5v45q0 96 -36 185.5t-98.5 157t-146.5 108.5t-180 41q-18 0 -47 2t-59.5 1t-59.5 -6.5t-43 -17.5q-8 -6 -10 -13t-4 -13.5t-8.5 -9.5t-20.5 -3q-12 0 -15 6.5t-14 6.5q-8 0 -29.5 -14.5t-46 -33t-46 -36t-27.5 -23.5 q-70 -72 -104.5 -170.5t-34.5 -196.5zM795 354q-4 0 -4 -11t4 -11q8 0 8 11t-8 11zM1171 381q-4 0 -4 -10.5t4 -10.5q10 0 10 10.5t-10 10.5zM768 393q6 0 6 -10t-6 -10q-10 0 -10 10t10 10zM983 637q0 -29 -22.5 -64.5t-54.5 -71.5t-64.5 -64.5t-53.5 -43.5 q57 53 105.5 116.5t89.5 133.5v-6zM1171 399q-4 2 -4 -3t4 -3q8 0 8 3t-8 3zM1485 887q2 55 21.5 104t50 93t67.5 84t76 75q-2 2 -7 5t-5 7v5v4q0 2 5 5t7 7l18 -21q53 23 106.5 36.5t110.5 13.5q92 0 173 -35t140.5 -94.5t93.5 -141.5t34 -174t-33 -177t-91.5 -149.5 t-139 -102.5t-177.5 -38q-100 0 -185 41t-145.5 109.5t-93 158t-26.5 185.5zM2116 412q8 -8 0 -13q-4 0 -4 7.5t4 5.5zM903 420q-4 2 -4 -5t4 -3q12 4 0 8zM1700 430q2 -6 -3 -9t-9 -1t3 8t9 2zM1171 438q-4 0 -4 -9t4 -9q10 0 10 9t-10 9zM410 461q-8 0 -8.5 -11.5 t8.5 -11.5q4 0 4 11.5t-4 11.5zM893 469q8 0 8 -10t-8 -10t-8 10t8 10zM911 469q10 0 10.5 -10t-10.5 -10q-6 0 -6 10t6 10zM924 500q6 0 6 -10.5t-6 -10.5q-10 0 -10 10.5t10 10.5zM379 500q0 -6 -4 -6t-4 6q-2 4 4 4t4 -4zM350 508q-6 -10 -10 0q0 4 6 4t4 -4zM322 526 q8 0 8 -9t-8 -9q-10 0 -10 9t10 9zM717 526q-4 0 -4 -9t4 -9q10 0 10 9t-10 9zM301 537q6 0 6 -10.5t-6 -10.5t-6 10.5t6 10.5zM737 537q-6 0 -6 -10.5t6 -10.5q10 0 10 10.5t-10 10.5zM293 537q-6 -10 -10 0q-2 4 4 4t6 -4zM662 547q6 0 6 -10.5t-6 -10.5q-10 0 -10 10.5 t10 10.5zM756 547q-4 0 -4 -10.5t4 -10.5q10 0 10 10.5t-10 10.5zM262 555q8 0 8 -9t-8 -9q-6 0 -6 9t6 9zM98 969q0 88 31 166.5t86 138t131 93.5t168 34h38t29.5 -2t30 -6t37.5 -13q8 -4 24.5 -13t35 -20.5t37 -19.5t30.5 -8v-8q72 -72 110 -153t38 -185q0 -86 -31 -163 t-85 -136.5t-129 -94t-163 -34.5t-165 32.5t-133 90t-88 135.5t-32 166zM788 555q-4 6 -10 1t-2 -9t9 0t3 8zM805 565q6 4 20.5 18.5t29.5 30t28.5 29.5t19.5 21q4 2 10.5 13t10.5 17zM272 594q8 0 8.5 -9.5t-8.5 -9.5q-8 0 -8 9.5t8 9.5zM1087 633q6 0 6.5 -9.5t-6.5 -9.5 q-8 0 -8 9.5t8 9.5zM1184 643q-10 0 -10 -9t10 -9q8 0 8 9t-8 9zM2417 643q-10 0 -10.5 -9t10.5 -9q6 0 6 9t-6 9zM1223 664q-8 0 -8.5 -10.5t8.5 -10.5q8 0 8 10.5t-8 10.5zM2425 664q-4 0 -4 -6.5t4 -4.5q6 2 6 5.5t-6 5.5zM2367 672q6 0 6.5 -9.5t-6.5 -9.5 q-10 0 -10 9.5t10 9.5zM1028 778q0 10 13.5 11.5t15.5 1.5q16 0 23 -4.5t7 -20.5v-16q-2 4 -9 11t-13 9h-9t-9 -2q-6 -2 -13 -2v-72zM932 721q-6 0 -6 -9.5t6 -9.5q10 0 10 9.5t-10 9.5zM2443 741q-4 2 -4 -10t4 -10t4 9t-4 11zM944 731q0 2 2 4q4 4 4 6l2 2l-2 5v2z M2456 778q-6 4 -6.5 -8t6.5 -10q4 2 4 8t-4 10zM963 778q-10 0 -10.5 -9t10.5 -9q6 0 6 9t-6 9zM88 815q10 0 10 -9t-10 -9q-6 0 -6 9t6 9zM80 827q6 0 6 -9t-6 -9q-10 0 -10 9t10 9zM1466 827q6 0 6.5 -9t-6.5 -9q-10 0 -10 9t10 9zM1454 838q10 0 10 -11.5t-10 -11.5 q-6 0 -6 11.5t6 11.5zM2435 848q6 0 6 -10.5t-6 -10.5q-8 0 -8 10.5t8 10.5zM80 877q6 0 6 -10.5t-6 -10.5q-10 0 -10 10.5t10 10.5zM1260 903q-4 4 -4.5 -2t4.5 -6q16 4 0 8zM2443 924q10 0 10.5 -10.5t-10.5 -10.5q-6 0 -6 10.5t6 10.5zM68 954q0 -4 -4.5 -4t-4.5 4 q-2 4 4.5 4t4.5 -4zM1233 1061q2 -6 2 -18.5v-25.5v-25.5t-2 -18.5q-2 -4 -3 10t-1 33.5t1 34t3 10.5zM2638 1004q-6 0 -6 -10.5t6 -10.5q10 0 10 10.5t-10 10.5zM2726 991q0 6 -5 6t-5 -6q0 -4 4 -4t6 4zM2589 1030q4 -2 20.5 -10t20.5 -10q4 0 14 -3t12 -3q2 -2 10 -3h7 v70q14 -12 21 -32.5t11 -34.5q10 2 10.5 9t0.5 13q0 78 -41 147.5t-86 131.5q-4 -2 -17.5 -5.5t-27 -7.5t-25.5 -7t-14 -3t-10.5 -2t-17.5 -5t-16 -7t-7 -8l2 -5q0 -4 6 -12t12 -17t12 -17.5t6 -10.5l21.5 -43t26 -51.5t21.5 -43.5l9 -18v-20q2 4 9.5 6t9.5 2zM2669 1090 q4 0 4 -4.5t-4 -4.5q-6 -4 -6 3.5t6 5.5zM2656 1137q4 0 4 -3.5t-4 -5.5q-4 0 -4 4.5t4 4.5zM1243 1157q4 -4 4 -11t-4 -9q-6 -2 -6 11t6 9zM1241 1182q0 80 4 162.5t27 160.5h-21q2 20 6.5 68.5t8.5 103t8 102.5t6 66v8q0 2 5 10.5t5 10.5v-57q0 -4 3 -8.5t5 -4.5 q6 16 9.5 36t13.5 34q6 2 27.5 6t29.5 4q2 0 11.5 -1t20.5 -3t21.5 -4t14.5 -2q2 -2 5 -4t3 -4l-16 -88l-11 -11q10 -4 10.5 -14t0.5 -14q0 -35 -14.5 -64.5t-14.5 -60.5h29q0 -16 -9.5 -26.5t-9.5 -26.5q4 0 31 -5.5t35 -3.5l-10 -14l204 143h9q-70 -45 -133.5 -102 t-116.5 -121q-4 -20 -22.5 -28.5t-29.5 -30.5h9q10 0 21 5t26 5h14t10 -10q0 -4 -4 -19.5t-8 -19.5q0 4 -3 4t-5 -4q0 -4 -4 -9t-4 -8q-4 4 -7.5 17.5t-13.5 19.5q-23 -12 -22 -39h-6q-2 0 -3 2q-2 0 -13 3.5t-13 3.5q-12 0 -27.5 -29t-31 -63.5t-27.5 -67.5t-14 -41 q0 6 -4.5 19.5t-14.5 13.5zM1272 1276q-10 -16 -11 -27.5t-1 -27.5v-23q10 16 11 26.5t1 30.5v21zM1057 1276q4 -4 4 -8t-4 -4q-4 -2 -4 5t4 7zM487 1331q-4 -2 -20 -14t-18 -12q-14 -4 -31 -3t-32 1t-29.5 -5.5t-24.5 -21.5h12q41 0 82 11t70 44h-7h-2zM1329 1292q8 0 8 -8 t-8 -8q-6 0 -6 8t6 8zM1366 1282q-2 -4 -8 -4t-8 4q-4 4 7 4t9 -4zM1290 1305q-4 0 -4 -6.5t4 -6.5t4 4.5t-4 8.5zM1446 1305q6 0 6 -11.5t-6 -11.5t-6 11.5t6 11.5zM1339 1311q8 0 8.5 -9.5t-8.5 -9.5q-8 0 -8 9.5t8 9.5zM1378 1323q-2 -14 8 -18h-20q0 14 12 18z M2583 1323q-10 0 -10.5 -9t10.5 -9q4 0 4 9t-4 9zM1350 1331q8 0 8 -10t-8 -10t-8 10t8 10zM1815 1323q-2 -6 -5.5 -6t-3.5 6q0 4 4.5 4t4.5 -4zM1872 1331q8 0 8 -10t-8 -10t-8 10t8 10zM1417 1331q0 -4 -4 -4t-8 4q0 4 6 4t6 -4zM1475 1343l-21 -12v12h21zM1833 1343 q8 0 8 -10t-8 -10t-8 10t8 10zM1493 1350q10 0 10 -9.5t-10 -9.5q-6 0 -6 9.5t6 9.5zM1493 1360h-8l8 39v-39zM737 1370q0 -4 -3 -4t-5 4q0 4 4 4t4 -4zM559 1458q47 0 92 -13t86 -36q-2 -4 -9 -14.5t-11 -14.5l-2 -2q-4 0 -13.5 18.5t-21.5 22.5q-45 16 -78 24.5t-86 14.5 h43zM1446 1389q-6 0 -6 -9.5t6 -9.5t6 9.5t-6 9.5zM1438 1399q-8 0 -8 -9.5t8 -9.5q6 0 6 9.5t-6 9.5zM1544 1409q4 0 4 -4t-4 -6q-4 0 -4 5t4 5zM301 1427l-18 -8v8h18zM1513 1419q-2 -4 -5 -4t-3 4q-2 4 3 4t5 -4zM1493 1450q10 -12 0 -23q-4 -4 -4 10.5t4 12.5zM399 1466 q-16 -8 -41.5 -16t-35.5 -12v4v8q2 4 4 15.5t6 11.5zM1561 1450q10 0 10 -11.5t-10 -11.5q-6 0 -6 11.5t6 11.5zM1386 1450l52 37q-8 10 -26.5 18t-25.5 11l-2 -3v-4l2 -4q4 -2 10.5 -9t8.5 -9q-10 0 -24.5 -6t-14.5 -23zM1513 1458q4 -2 4.5 -5t-4.5 -3q-4 0 -4 4t4 4z M1243 1466q6 0 6 -8t-6 -8q-8 0 -8 8t8 8zM1454 1466q10 0 10 -8t-10 -8q-6 0 -6 8t6 8zM1360 1466q0 6 -7 6.5t-3 -6.5q0 -4 4 -4t6 4zM1137 1546q4 0 5 -1t3 -1q-29 0 -48.5 -22.5t-31.5 -44.5v4q0 23 22.5 44t42.5 21h7zM1552 1487q6 0 6.5 -10.5t-6.5 -10.5 q-6 0 -6 10.5t6 10.5zM1493 1505q4 -12 -8 -8q-4 2 1 8t7 0zM1536 1516q0 -20 -23 -21v21h23zM1561 1505q10 0 10 -9t-10 -9q-6 0 -6 9t6 9zM1591 1505q6 0 6 -9t-6 -9q-8 0 -8 9t8 9zM233 1516q-10 0 -10 -9.5t10 -9.5q8 0 8 9.5t-8 9.5zM1184 1544q-2 -4 -9.5 -4t-9.5 4 t9.5 4t9.5 -4zM1466 1599v-6q-2 -6 -12 -10v4v6q0 2 5 5.5t7 5.5v-5zM1718 1700q2 -4 -2 -8t-10 0q-4 2 2 8t10 0zM1290 1786q-2 2 -3 -4t-1 -14.5t1 -15.5t3 -5q4 6 4 20.5t-4 18.5zM1223 1778l-11 -11h-96v11h107zM1126 1817v-13h-10v13h10zM1157 1817v-13l-12 13h12z M1233 1817q0 -4 -4 -8.5t-6 -4.5q-4 0 -23.5 -1t-28.5 -1v15h62zM1116 1853h117l10 -8l-10 -8l-117 8v8z" />
<glyph unicode="&#x2dc;" horiz-adv-x="1220" d="M170 449q-8 -29 -25.5 -42.5t-38.5 -13.5q-23 0 -40 16.5t-17 49.5v8q12 53 53 109.5t97.5 102.5t121 75.5t125.5 29.5q59 0 107 -32q27 -20 59.5 -61.5t65.5 -82.5t64.5 -73.5t56.5 -34.5h8q47 0 86 27.5t72.5 67.5t62.5 82t57 73q25 10 39 10q27 0 42.5 -15.5 t15.5 -39.5q0 -23 -13 -43q-33 -35 -69.5 -84.5t-79.5 -95.5t-92 -77.5t-107 -31.5q-10 0 -19 1t-20 3q-68 14 -113.5 60t-82.5 95.5t-74 88t-88 38.5q-35 0 -77 -21.5t-97 -72.5q-29 -27 -49.5 -52t-30.5 -64z" />
<glyph unicode="&#x2000;" horiz-adv-x="1024" />
<glyph unicode="&#x2001;" horiz-adv-x="2048" />
<glyph unicode="&#x2002;" horiz-adv-x="1024" />
<glyph unicode="&#x2003;" horiz-adv-x="2048" />
<glyph unicode="&#x2004;" horiz-adv-x="682" />
<glyph unicode="&#x2005;" horiz-adv-x="512" />
<glyph unicode="&#x2006;" horiz-adv-x="341" />
<glyph unicode="&#x2007;" horiz-adv-x="341" />
<glyph unicode="&#x2008;" horiz-adv-x="256" />
<glyph unicode="&#x2009;" horiz-adv-x="409" />
<glyph unicode="&#x200a;" horiz-adv-x="113" />
<glyph unicode="&#x2010;" horiz-adv-x="1034" d="M1071 2017v-2017h-1130l2 2019z" />
<glyph unicode="&#x2011;" horiz-adv-x="1034" d="M1071 2017v-2017h-1130l2 2019z" />
<glyph unicode="&#x2012;" horiz-adv-x="1034" d="M1071 2017v-2017h-1130l2 2019z" />
<glyph unicode="&#x2013;" horiz-adv-x="1474" d="M174 555l37 207h90l6 -17q2 -10 5 -33.5t7.5 -50t7.5 -50t3 -31.5q2 -4 3 -13.5t5 -11.5l31 207h110l-86 -459h-100l-39 264l-39 -264l-104 2l-74 459l102 -2q2 0 3 -11.5t5 -17.5q0 -10 3.5 -35.5t7.5 -53.5t7 -53.5t5 -35.5h4zM641 762l78 -459h-103q-6 0 -8 9.5 t-2 20.5t-2 20t-10 9h-55l-11 -59h-110l94 459h129zM575 606q-16 -29 -18 -68.5t-2 -74.5h37q0 35 -6.5 74.5t-10.5 68.5zM924 655h-62l-10 -8v-346l-113 2v354h-63v105l248 -2v-105zM1069 772q2 0 13.5 -1t23.5 -2t21.5 -4t9.5 -5v-109q-10 6 -19.5 7t-19.5 1 q-25 0 -38 -13t-20.5 -33.5t-9.5 -42t-2 -40.5q0 -18 2 -39.5t9.5 -40t20.5 -30.5t38 -12q12 0 23.5 3t23.5 3v-20.5t-4 -20.5q0 -10 -1 -20.5t-1 -20.5q-2 -12 -2 -25l-19 -6h-90q-2 0 -4 2q-6 0 -6 4q-61 37 -82 95.5t-21 125.5q0 33 7.5 76t25 80t47 62.5t74.5 25.5z M1272 602q4 0 18.5 -2t18.5 0h2q2 0 4 2q2 0 4 2v156h111v-459h-111v168q-2 0 -4 2h-4q-2 0 -2 2q-4 0 -18.5 -1t-18.5 -1v-170h-111v459h111v-158z" />
<glyph unicode="&#x2014;" horiz-adv-x="2390" d="M174 555l37 207h90l6 -17q2 -10 5 -33.5t7.5 -50t7.5 -50t3 -31.5q2 -4 3 -13.5t5 -11.5l31 207h110l-86 -459h-100l-39 264l-39 -264l-104 2l-74 459l102 -2q2 0 3 -11.5t5 -17.5q0 -10 3.5 -35.5t7.5 -53.5t7 -53.5t5 -35.5h4zM641 762l78 -459h-103q-6 0 -8 9.5 t-2 20.5t-2 20t-10 9h-55l-11 -59h-110l94 459h129zM575 606q-16 -29 -18 -68.5t-2 -74.5h37q0 35 -6.5 74.5t-10.5 68.5zM924 655h-62l-10 -8v-346l-113 2v354h-63v105l248 -2v-105zM1069 772q2 0 13.5 -1t23.5 -2t21.5 -4t9.5 -5v-109q-10 6 -19.5 7t-19.5 1 q-25 0 -38 -13t-20.5 -33.5t-9.5 -42t-2 -40.5q0 -18 2 -39.5t9.5 -40t20.5 -30.5t38 -12q12 0 23.5 3t23.5 3v-20.5t-4 -20.5q0 -10 -1 -20.5t-1 -20.5q-2 -12 -2 -25l-19 -6h-90q-2 0 -4 2q-6 0 -6 4q-61 37 -82 95.5t-21 125.5q0 33 7.5 76t25 80t47 62.5t74.5 25.5z M1272 602q4 0 18.5 -2t18.5 0h2q2 0 4 2q2 0 4 2v156h111v-459h-111v168q-2 0 -4 2h-4q-2 0 -2 2q-4 0 -18.5 -1t-18.5 -1v-170h-111v459h111v-158zM1608 758l34 -219q2 10 5.5 38.5t7.5 59.5t7 59.5t5 38.5q0 6 4 15q2 4 2 8h137l7 -17q0 -2 2 -44t5 -98t6 -116.5t3 -97.5 q0 -6 1 -18.5t1 -25.5v-25.5v-16.5h-96l-13 252l-4 -6l-34 -246h-91l-43 256l-10 -254h-98q0 6 1 24.5t1 22.5q0 25 3 83t7 124t7 124t5 81zM2056 653h-84v-63h72v-117h-72v-70h84v-104h-196v459h196v-105zM2249 758l106 -2v-459l-112 2l-56 180l-6 4v-16q0 -10 -1 -33.5 t-1 -50.5t-1 -51.5t-1 -32.5h-104v459h114q8 0 14.5 -25.5t13.5 -58.5t15 -64.5t19 -46.5v195z" />
<glyph unicode="&#x2018;" horiz-adv-x="1619" d="M0 39q4 -4 4 -19.5t-4 -19.5q-2 -2 -3 4t-1 14.5t1 15.5t3 5zM268 47q4 -4 4 -22.5t-4 -24.5q-2 -2 -3 6t-1 18.5t1 17.5t3 5zM860 193q0 25 6 43t14.5 33.5t14.5 30.5t6 34q0 25 -11 31t-11 22v4q0 2 2 2l4 4l4 4v86h-25q0 49 -11 59.5t-24.5 11.5t-27 7t-17.5 47l-4 2 q-2 0 -2 -1t-2 -1h-2l-4 -4q-2 -2 -2 -4t-2 -2h-6q-10 0 -17.5 4t-7.5 15q0 25 21 38q61 -4 113.5 2.5t95.5 26t76.5 57t58.5 97.5q4 12 11 45t14.5 69.5t14.5 69.5t9 45q0 4 1 28.5t1 37.5q0 37 -3 68.5t-20 66.5h-4q-2 0 -4 2q-12 0 -17 -10.5t-16 -10.5q-8 0 -31.5 5.5 t-50 11.5t-47 12t-20.5 10q-2 4 2 14.5t6 14.5h-22q0 37 13 61.5t35.5 38t50.5 19.5t58 6h20.5t18.5 -10v43q0 47 -13 99t-41 95t-69 71t-96 28q-33 0 -69.5 -2.5t-70.5 -12.5t-61.5 -31.5t-40.5 -60.5q0 -4 -4 -18.5t-9 -29.5t-9 -29.5t-6 -18.5q-12 -35 -37 -50.5 t-53.5 -24.5t-59 -18.5t-51.5 -29.5q-23 -23 -39 -63t-26.5 -84t-16.5 -87t-6 -73h-66q0 4 -7 11t-11 7q-4 2 -10 -1t-8 -7q4 4 14 14.5t14 14.5q2 0 4 -2t4 -2v12h-47q0 4 -3 11t-7 9q-10 8 -32.5 19.5t-24.5 9.5l-8 -10q-2 -4 -3 -18.5t-1 -18.5q0 -10 1 -27.5t3 -21.5 q10 -39 27.5 -63.5t36 -41t32.5 -27t18 -22.5q0 -2 -5 -9t-5 -9v-17q0 -10 2 -15t5 -9t5 -11.5t2 -21.5q2 0 11.5 4t13.5 2q2 -2 9 -13.5t9 -15.5h4h7q2 2 5 5.5t3 5.5q0 4 -3 10t-5 8q16 6 21 15.5t6 17.5t1 15t8 9q-8 -6 -17 0.5t-18.5 14.5t-15.5 16l-6 8q12 20 12 52 q20 0 40 -28t37.5 -66t28.5 -74.5t17 -55.5q-2 0 -3 -1t-3 -1l-4 2q-2 0 -5 4t-5 7v-25q0 -35 5 -69.5t5 -69.5v-19q-2 -16 -6 -49t-8 -66.5t-8.5 -61.5t-6.5 -34q-4 -16 -11 -45.5t-21.5 -58.5t-34 -49.5t-45.5 -20.5q0 20 -16.5 32.5t-38 18t-45 7.5t-35.5 2v80 q-16 0 -27.5 16t-24 34.5t-29 35t-40.5 16.5h-4q-2 -2 -6.5 -9t-4.5 -12q-6 27 -7 41.5t-1 36.5q0 23 4 52.5t11.5 60.5t15.5 59.5t16 46.5q2 4 9.5 19.5t14.5 33t14 34t9 20.5v6q0 4 1 6t1 4q0 43 -12 85t-27.5 83t-27.5 82t-12 86q0 53 15 103.5t15 103.5t-15 107.5 t-15 109.5q0 39 15 88t42 96t61.5 85t73.5 55q8 0 31.5 1t32.5 1q35 0 60.5 -10.5t57.5 -10.5h11q66 2 118 4t101 43q6 4 16 11.5t12 7.5h297q35 -16 74 -26.5t76 -24t70.5 -32t58.5 -50.5q20 -29 23.5 -63t23.5 -62v-54q0 -123 -19.5 -243.5t-19.5 -243.5q0 -35 19.5 -64.5 t19.5 -64.5q0 -25 -9 -48.5t-19.5 -46t-19.5 -47t-9 -50.5q0 -57 17.5 -86t46 -42.5t64.5 -17.5t71.5 -9t68.5 -18.5t57 -46.5q2 -4 8.5 -15t13.5 -24.5t12 -28t5 -22.5q0 -78 -19.5 -105.5t-47 -37.5t-55 -17.5t-42.5 -46.5v-28q0 -4 -4 -18.5t-6 -18.5l-8 8 q-4 -23 -13.5 -30t-15.5 -27q-23 -66 -41 -119t-47.5 -90t-78 -57.5t-130.5 -20.5q-41 0 -82 11.5t-81 27.5q-23 8 -34.5 26.5t-16.5 40t-6 44.5t-1 43zM10 104q4 -4 4 -18t-4 -18q-2 -2 -3 4t-1 14t1 14t3 4zM315 244q0 -4 -1 -17.5t-5 -29t-10 -27.5t-14 -12q0 20 5 51 t25 39v-4zM1214 279q2 0 3.5 -1.5t3.5 -1.5l4 3q2 2 6 8t4 10q0 2 -4 6t-6 4zM1292 373q-12 -8 -17 -22.5t-5 -28.5q12 0 22.5 9t10.5 23q-1 15 -11 19zM1034 422q-8 0 -8 -10.5t8 -10.5q6 0 6 10.5t-6 10.5zM57 479q8 0 8.5 -10t-8.5 -10q-8 0 -8 10t8 10zM47 479 q-2 -4 -9 -4t-9 4q-4 4 9 4t9 -4zM1473 526q-8 -6 -16.5 -18t-12.5 -21q4 4 15 14.5t14 14.5v2q0 2 1 2t1 2zM1321 526l8 19h-8v-19zM1483 555q-8 0 -8 -9t8 -9t8 9t-8 9zM485 760q0 2 1 8t1 8q6 -10 23.5 -21.5t36 -22.5t33 -21.5t14.5 -16.5v-6q-12 6 -30.5 11.5t-36 13.5 t-30 19.5t-12.5 27.5zM459 805h-10v8zM813 891v-21q-18 4 -47 12.5t-39 26.5q18 27 46 42.5t58.5 23.5t63.5 10t61 2q27 0 43.5 -19.5t16.5 -45.5q0 -23 -11.5 -37.5t-29 -21.5t-36.5 -10t-36 -3q-2 0 -10 1t-12 1q23 8 39 12t16 27h-123zM354 899q-4 2 -4 -4t4 -4q12 4 0 8 zM881 909q2 4 -10.5 4t-10.5 -4q4 -4 10.5 -4t10.5 4zM909 909q2 4 -5 4t-5 -4t5 -4t5 4zM918 942q-6 0 -28 -2t-30 -2t-8 -10h66v14zM1149 948q0 -4 3 -10l5 -10q2 10 5 43t5 43v10v10q-8 -18 -13 -40.5t-5 -41.5v-4zM287 1006q8 0 8 -10.5t-8 -10.5t-8 10.5t8 10.5z M344 1006q-8 0 -8 -10.5t8 -10.5t8 10.5t-8 10.5zM326 1014q-4 2 -4 -4t4 -4q12 4 0 8zM276 1034q4 0 11.5 -4t9.5 -6q-4 -10 -14.5 -11t-16.5 -1q0 4 2 13t8 9zM383 1100q-2 4 2 11t6 9q29 -8 44.5 -36.5t15.5 -57.5q-23 0 -43.5 25.5t-24.5 48.5zM928 1071q4 6 16 17.5 t23 11.5l4 -4l4 -4v-7q0 -10 -2 -22t-15 -12q-18 0 -30 20zM881 1100q2 0 9 -3t9 -5q-10 -10 -20.5 -10.5t-22.5 -0.5h-25q6 10 19.5 14.5t23.5 4.5h7zM373 1120h-21q0 20 21 21v-21zM526 1186q-6 -10 -10 0q-2 4 5 4t5 -4zM535 1311q0 16 21.5 29.5t50 21.5t56 12t39.5 4 q16 0 35 -4t19 -24q0 -4 -3 -11.5t-8 -7.5l29 -39q-2 0 -7 -1t-7 -1q-16 0 -26.5 11.5t-26.5 11.5q-10 0 -18.5 -8.5t-20 -17.5t-24.5 -17t-32 -8q-20 0 -48.5 13t-28.5 36zM1042 1292q-6 0 -6 -10t6 -10q8 0 8 10t-8 10zM659 1303q-6 0 -6 -10.5t6 -10.5q8 0 8 10.5 t-8 10.5zM737 1350q-8 0 -8 -9.5t8 -9.5q6 0 6 9.5t-6 9.5zM985 1350q2 0 7 -1t7 -1q14 0 23.5 6t24.5 6q23 0 43 -6t43 -6q0 25 -4.5 47t-36.5 22q-23 0 -57 -8t-50 -27h39v-14zM1034 1360q-8 0 -8 -10.5t8 -10.5q6 0 6 10.5t-6 10.5zM1053 1360q-8 0 -8.5 -10.5t8.5 -10.5 q8 0 8 10.5t-8 10.5zM805 1403q0 -2 -1 -2t-1 -2v-2q-2 0 -8.5 -4t-10.5 -4h-4q-41 0 -76.5 10t-76.5 10q-18 0 -35 -6t-32 -14.5t-29.5 -14.5t-32.5 -6h-11q14 23 41 40t56 17h182q6 0 22.5 -6t16.5 -16zM334 1618q-6 0 -6 -10.5t6 -10.5q8 0 8 10.5t-8 10.5zM344 1698 q0 -16 13.5 -20.5t25.5 -4.5q2 0 9 1t9 1l-57 29v-6zM334 1722q-4 2 -4 -4t4 -6q4 2 4 6t-4 4zM401 1780q-4 2 -4 -4.5t4 -6.5q4 2 4 6.5t-4 4.5zM211 1847q-2 2 -3 -3t-1 -11t1 -11t3 -3q4 4 4 14t-4 14zM305 1837v-4v-4l10 18zM737 1894q-10 -4 -29.5 -15t-19.5 -13v-8 q16 6 31.5 14t25.5 22l-4 2zM412 1933q-8 0 -8.5 -9t8.5 -9q6 0 6 9t-6 9zM584 1944q-8 0 -8.5 -10.5t8.5 -10.5q8 0 8 10.5t-8 10.5z" />
<glyph unicode="&#x2019;" horiz-adv-x="1736" d="M18 25h-2l-8 -9q0 -2 -5 -2h-7q0 63 15.5 87t33.5 34t33.5 23.5t15.5 60.5q-12 0 -15 2t-5 6t-5 9.5t-14 11.5v55l-8 -6l-5 -13q-5 -12 -11 -27t-12.5 -30.5t-10.5 -25.5q-2 -4 -5 -12.5t-3 -12.5v152q0 2 18.5 11t28.5 13q53 18 112.5 42t112.5 24q20 0 37 -13.5 t35 -13.5q16 0 30.5 5t31.5 5q2 0 5 -1t7 -1h6q10 -4 36.5 -18t35.5 -21h24v9q-53 59 -79.5 118.5t-41.5 137.5q-23 4 -34 10t-16 17.5t-7 25.5t-6 35q0 4 -7 23.5t-10 23.5q-2 8 -8 35.5t-8 35.5q-10 4 -8 7.5t2 11.5q-23 0 -27 22.5t-14 38.5v105l8 8q2 2 11.5 8t13.5 8v2 q0 35 -18.5 68t-42 64.5t-48 62.5t-37.5 59l-16 -8q-10 29 -12 59.5t-2 59.5q0 76 7 119t22.5 73.5t41 63.5t64.5 88q14 23 26.5 49.5t28.5 46.5q59 68 135 90.5t166 22.5q23 0 38 -8t34 -8h4q-4 2 -9 11t-7 13q0 2 3 8t5 9h-4h-4q-2 -2 -8.5 -6.5t-8.5 -2.5q-4 0 -9 6.5 t-5 10.5q14 -4 25.5 2t25.5 6q25 0 36 -9.5t32 -23.5l16 -8q14 4 15 14.5t10 18.5h2q12 0 20 -5.5t21 -5.5q10 0 19 1.5t17 9.5l-8 -17h13q12 0 23 4.5t24 4.5h4q70 -14 116 -17.5t84.5 -12.5t78.5 -33t98 -75q18 -18 16 -39l55 -57h-4h-4q-2 2 -8 5t-8 3v-4v-4q2 -2 8 -11 t8 -11v-9l16 9q-10 -29 6.5 -47.5t24.5 -41.5q2 -6 6 -25.5t6.5 -41t4.5 -42t2 -28.5q0 -14 -2 -40.5t-5.5 -56.5t-8.5 -53.5t-11 -31.5q0 -8 -1 -28.5t-2 -44t-2 -44t-1 -28.5v-5v-4l31 17q8 2 12 -19l4 -24q0 -4 1 -15.5t-9 -13.5q-4 10 -19.5 12t-19.5 4h-4 q-18 0 -27.5 -19t-9.5 -34v-4q2 -2 7 -8t9 -6q-4 -51 6.5 -97.5t10.5 -97.5q0 -18 -9.5 -31.5t-9.5 -25.5q0 -2 2 -4q2 -4 11.5 -9.5t13.5 -7.5h4q12 0 21.5 10.5t13.5 20.5v-4q0 -23 -22.5 -37t-41.5 -14v-8v-9q2 -12 7.5 -39.5t10.5 -57.5t9 -54.5t4 -32.5q2 -4 5 -16.5 t7 -27.5t7.5 -29.5t5.5 -20.5t7 -24.5t9 -24.5q2 -2 5 -8.5t3 -8.5q12 -14 16.5 -20t5.5 -11.5t3 -13.5t8 -26h-4q-4 0 -14.5 14t-14.5 18q-2 -6 -5 -17t-11 -15q0 12 -4 18t-9.5 11t-12.5 10.5t-13 15.5q-2 4 -5 20.5t-3 20.5q-2 2 -4.5 5t-4.5 3l-9 -7q-9 -7 -19 -16.5 t-20.5 -17.5t-14.5 -14q-16 -25 -37.5 -57.5t-36.5 -63.5q-4 -8 -11 -34.5t-11 -37.5q-6 -10 -27.5 -30.5t-44.5 -42t-40 -38t-17 -18.5q0 8 -9 8l-4 3q-10 0 -12 -11.5t-2 -17.5h-27q-2 -4 -2 -8t-1 -7.5t1 -5.5q0 -2 3.5 -8t5.5 -8h-5q-18 0 -26 16.5t-25 16.5 q-12 0 -19 -5t-13.5 -11.5t-13.5 -11.5t-19 -5h-303q-10 0 -15.5 10t-6.5 22.5t-1 24v15.5h-43q-4 0 -7 -10.5t-7 -23.5t-6 -24.5t-2 -13.5h-242q0 31 8 61.5t8 59.5q0 6 -8 6q-10 -31 -11 -59.5t-11 -59.5q-2 -4 -4.5 -8t-4.5 -4h-67q2 4 2 10q0 14 2 19q0 4 4 21t9 38.5 t10.5 43.5t7.5 32q6 27 15 51.5t9 52.5v17q-16 -14 -34.5 -40t-20.5 -48v-17.5v-28v-28v-15.5q-2 -8 -10.5 -39.5t-14.5 -48.5q-2 -4 -2 -5t-2 -5t-4 -6h-156v25h-2zM961 8q6 0 6 -8t-6 -8t-6 8t6 8zM1008 8q6 0 6 -8t-6 -8t-6 8t6 8zM113 16q-2 4 -7.5 -1t-1.5 -7t7.5 1 t1.5 7zM895 16q-4 0 -4 -8t4 -8q6 0 6 8t-6 8zM700 33q0 -8 7.5 -12.5t13.5 -4.5v17h-21zM1065 33q4 0 4 -8.5t-4 -8.5q-6 0 -6 8.5t6 8.5zM592 47q-4 -8 -8 0q-2 4 4 4t4 -4zM680 72q-6 0 -6 -8.5t6 -8.5t6 8.5t-6 8.5zM567 88q8 0 8 8l3 4l-3 4zM264 143q-10 -4 -13 -18 t-3 -25q12 0 14 13.5t2 21.5v8zM311 152q-4 2 -4 -3.5t4 -5.5q4 2 4 5.5t-4 3.5zM504 588q0 -35 13 -62.5t32.5 -52t42 -48.5t41.5 -48q27 -35 50.5 -69t51.5 -68q10 -12 8 -17.5t17 -13.5q23 -10 49.5 -18.5t52.5 -8.5q70 0 118 17.5t84 51.5t59.5 81t43.5 108v4q0 2 1 2 t1 3q0 2 -1 4t-1 4q-23 -35 -50 -40t-68 -1l-33 -64q0 -2 -6 -4t-11 -4h-4h-4q-33 33 -80 39q8 14 -5 14h-17v11q6 2 27.5 7t27.5 9q2 0 4 3t4 5v4v4q-4 4 -12 13.5t-18.5 19.5t-19.5 18.5t-13 12.5q-4 2 -9.5 5t-7.5 3q16 4 28.5 13.5t12.5 27.5q0 16 -24 16q-4 0 -22.5 -2 t-41 -5t-40 -8t-17.5 -13q0 -16 12.5 -22.5t28.5 -6.5v-12h-74q0 -2 -3 -6.5t-5 -6.5h-2q-23 0 -46.5 12.5t-45.5 12.5q-2 0 -8.5 -4t-8.5 -4h-14q-16 0 -28.5 11t-20.5 28.5t-13 36t-5 30.5q0 14 11 33t27.5 36t33 32.5t26.5 23.5v-4v-4q-4 -4 -9.5 -22.5t-7.5 -24.5 q4 -4 11.5 -10t11.5 -6t12 3t13 5q2 2 5 4t3 4v65q20 0 37.5 3.5t33.5 3.5q25 0 51.5 -8.5t49.5 -8.5q16 0 48 20.5t66 20.5q0 -25 -19 -38t-19 -33q0 -10 14 -13.5t22 -3.5h13q2 0 12 3t22.5 5t22.5 5.5t14 3.5h4h5q23 -8 34 -13.5t33 -5.5q0 10 -10 13t-19 6l-88 96h9 q14 -12 40.5 -24.5t51 -28t43 -33t18.5 -39.5q0 -6 -2 -13.5t-12 -7.5q0 -39 -30 -59.5t-64 -20.5q-16 0 -30.5 4.5t-31.5 4.5q-8 0 -20.5 -5.5t-12.5 -15.5l3 -4q2 0 7 -3t9 -3l-8 -8l-2 -4q0 -10 7 -12.5t17 -2.5t19.5 -1t13.5 -13q10 4 8 11t-2 14q16 0 29.5 4t32.5 4 q37 0 55 -19.5t29 -54.5q12 37 19 67.5t11 60.5t6 62.5t5 73.5q2 10 16 10t14 -12q0 -29 -5 -68.5t-12 -80.5t-15.5 -79t-14.5 -65q-16 -10 -24.5 -36.5t-8.5 -43.5q0 -4 1 -19t12 -15q0 20 17 27t28 24q8 12 9 23.5t5 23.5q12 33 26.5 62.5t27 60.5t20.5 63.5t8 67.5 q0 16 -1 27.5t-15 21.5l8 8v31q0 47 -12.5 91t-12.5 91v13.5t1 18.5t4 16.5t12 7.5q0 53 -5.5 103t-19.5 101q-6 20 -18.5 36t-26.5 31t-24.5 32.5t-10.5 40.5q0 8 7 22t10 23v4q0 10 -5.5 18t-5.5 19q0 6 5.5 9t5.5 9q0 23 -23 49.5t-54.5 50t-64.5 42t-51 22.5v-4 q0 -16 12.5 -31.5t27.5 -31t27.5 -32t12.5 -32.5v-4q0 -8 -8 -8q-59 41 -114.5 80.5t-117.5 78.5h-49q-27 0 -42 -1t-28.5 -4t-28 -9t-36.5 -19q-20 -10 -55 -12t-58 -10q-20 -8 -43.5 -26.5t-45 -42t-40 -48t-30.5 -45.5q-8 -16 -12.5 -35.5t-7.5 -39t-9 -36t-19 -24.5 l9 -8q-2 -8 -5.5 -36t-3.5 -36v-8v-8q10 6 15.5 17t10.5 22.5t13.5 18.5t22.5 7q45 0 86 -18.5t81 -42t81 -42t86 -18.5h4q68 66 145.5 131.5t165.5 100.5q35 -16 62.5 -48t50.5 -65q6 -6 18 -25.5t26.5 -41t27 -41t16.5 -27.5q2 -6 5 -24.5t3 -22.5v-12q0 -39 -12.5 -83 t-34.5 -75q-10 -10 -25.5 -26.5t-31 -32t-26.5 -25.5t-13 -10h-17l-22 8q-21 8 -50.5 19.5t-60.5 23.5t-51 20q-23 8 -43.5 32t-41 46.5t-39.5 41t-40 18.5q-18 0 -29.5 -20.5t-20.5 -48.5t-18.5 -54.5t-23.5 -38.5q-10 -8 -33.5 -28.5t-50.5 -43t-51.5 -43t-32.5 -28.5 q-2 -2 -4 -3h-4q-18 0 -32.5 13.5t-33.5 13.5q0 -29 10.5 -41t22.5 -20.5t24.5 -17.5t16.5 -34q0 -2 -4 -8t-4 -8v-12zM1008 209q-6 0 -6.5 -8t6.5 -8q6 0 6 8t-6 8zM127 209l8 6h-8v-6zM1024 256q6 0 6 -8t-6 -8t-6 8t6 8zM152 264h8v8h-8v-8zM1657 297q10 0 36.5 -6 t35.5 -19h-9q-37 0 -71 25h8zM1587 319h4q4 -2 20.5 -7t20.5 -9q-6 -6 -16 -6q-8 0 -18.5 9t-14.5 13h4zM1544 336v-8h-8v8h8zM1528 344q0 -4 -3 -4t-5 4q0 4 4 4t4 -4zM1176 360q6 0 6 -8t-6 -8t-6 8t6 8zM1495 369q6 0 6 -8.5t-6 -8.5q-4 0 -4 8.5t4 8.5zM711 444l2 5 q10 -6 32.5 -23.5t22.5 -30.5v-4l-8 -8q-6 6 -27.5 26.5t-21.5 34.5zM782 403q0 2 1 6.5t1 6.5q4 -10 9.5 -13.5t13.5 -3.5q14 0 24 9l3 -5q0 -10 -12.5 -15t-20.5 -5q-19 0 -19 20zM864 408q-2 -4 -5 -11.5t-11 -7.5v19h16zM528 408v8h-8zM768 432q6 0 6 -8t-6 -8t-6 8t6 8 zM504 440h8l-8 9v-9zM1368 457q-6 0 -6 -8.5t6 -8.5t6 8.5t-6 8.5zM705 465q6 0 6 -8t-6 -8t-6 8t6 8zM471 504q0 -12 7 -22.5t18 -16.5v4v2q-2 4 -8.5 19.5t-16.5 21.5v-8zM696 471q4 0 4 -3t-4 -3q-4 -2 -4 3t4 3zM1145 496q-4 2 -4 -4.5t4 -4.5q8 5 0 9zM465 537 q-4 0 -4 -5.5t4 -3.5q8 5 0 9zM743 537h9v8h-9v-8zM809 647q-8 -10 -21.5 -29.5t-13.5 -35.5h23.5h33t35 2t29.5 8q-18 16 -38.5 35.5t-47.5 19.5zM952 608q-6 0 -6 -8t6 -8t6 8t-6 8zM608 647q-4 -4 -16 -15t-17 -16v-4v-4q12 4 22.5 13.5t10.5 21.5v4zM977 616q-6 0 -6 -8 t6 -8q4 0 4 8t-4 8zM1128 672h9l-9 8v-8zM1288 688q6 0 6 -8t-6 -8t-6 8t6 8zM1313 696q4 -2 4 -8t-4 -8t-4 8t4 8zM895 705q-4 0 -4 -8.5t4 -8.5q6 0 6 8.5t-6 8.5zM991 815q6 0 6 -7t-6 -7t-6 7t6 7zM983 823q6 0 6 -7t-6 -7q-4 0 -4 7t4 7zM977 831q4 0 4 -8t-4 -8 q-6 0 -6 8t6 8zM969 840q6 0 6 -8.5t-6 -8.5t-6 8.5t6 8.5zM303 864v56l-6 8l-8 -8zM520 872q0 -8 8 -8l4 -2l5 2l-9 8h-4h-4zM727 911q4 -4 4 -15t-4 -15q-2 -2 -3 3t-1 12t1 12t3 3zM1321 903q-6 0 -6 -7t6 -7q4 0 4 7t-4 7zM926 928q0 -10 11 -13.5t19 -3.5 q14 0 20.5 4.5t14.5 20.5q-4 2 -15 5t-15 3h-9v-16h-26zM1071 928q16 -6 26.5 -7t26.5 -1q27 0 35 15t25 42l2 4q0 4 -8.5 13.5t-10.5 13.5q-10 -8 -39.5 -32t-40.5 -32q-2 -2 -7 -8t-9 -8zM1303 965q0 -8 1 -27.5t13 -19.5l4 2q0 8 -3 29.5t-5 27.5q-2 0 -4 2l-4 4 q0 -2 -1 -9t-1 -9zM977 928q-2 -4 -5 -4t-3 4q-2 4 3 4t5 -4zM1423 936q6 0 6.5 -8t-6.5 -8q-6 0 -6 8t6 8zM1432 952q6 0 6 -8t-6 -8t-6 8t6 8zM944 961q-6 0 -6 -8.5t6 -8.5t6 8.5t-6 8.5zM1065 961q-6 0 -6 -8.5t6 -8.5q4 0 4 8.5t-4 8.5zM512 969q0 -8 8 -8 q4 0 16.5 -1.5t16.5 -1.5q16 -2 29 0q10 2 20 4.5t10 8.5q-29 0 -47 11t-43 11l-2 -2q-2 -2 -5 -11t-3 -11zM1079 969q-6 0 -6 -8.5t6 -8.5t6 8.5t-6 8.5zM496 977q-6 0 -6.5 -8t6.5 -8q6 0 6 8t-6 8zM1341 1036q0 -6 2.5 -17t12.5 -11h4q0 6 -4.5 17t-14.5 11zM946 1057 q0 -29 24.5 -35t47.5 -6q18 0 29.5 4t31.5 20l2 4l-2 5q-2 2 -6 4l-8 4h-4q-14 0 -24.5 -5t-28.5 -5t-32 5t-30 5zM1206 1073q-23 0 -25.5 -15.5t-4.5 -33.5q30 14 30 49zM760 1049q-8 0 -8 -9h32q-4 2 -12 5.5t-12 3.5zM999 1065q-6 0 -6 -8t6 -8t6 8t-6 8zM776 1079 q-4 4 -4 -7t4 -7q4 2 4 7t-4 7zM1032 1104q2 4 -8 4t-8 -4t8 -4t8 4zM1065 1233q-12 -4 -27.5 -7t-29 -7.5t-22.5 -14.5t-9 -30q25 0 48.5 19.5t39.5 39.5zM999 1208q6 0 6.5 -8t-6.5 -8q-6 0 -6 8t6 8zM152 1239q4 0 4 -3t-4 -3q-4 -2 -4 3t4 3zM143 1255q4 0 4 -3t-4 -5 q-4 0 -4 5t4 3zM135 1280q4 -2 4 -8t-4 -8t-4 8t4 8zM152 1591q-14 -6 -19.5 -24.5t-5.5 -34.5v-12q10 16 15.5 35.5t9.5 35.5zM160 1616l8 8h-8v-8zM1393 1712q4 0 4 -4t-4 -4t-4 4t4 4zM1335 1825q6 0 6 -8.5t-6 -8.5t-6 8.5t6 8.5zM319 1847q0 4 -10 -5t-6 -9q4 -2 11 4 t5 10zM336 1864q4 2 12 7t12 9v4v4zM403 1913q-18 0 -26 -17h4q16 0 27 17h-5zM895 1960q4 -2 16.5 -5t16.5 -3q8 0 8 8h-41zM608 2023q6 0 6 -8t-6 -8t-6 8t6 8zM592 2032q6 0 6 -8.5t-6 -8.5t-6 8.5t6 8.5z" />
<glyph unicode="&#x201a;" />
<glyph unicode="&#x201c;" horiz-adv-x="1380" d="M4 668q6 2 23.5 8t37 13t37 13.5t23.5 8.5q10 4 19.5 12t19.5 12q4 2 14 6t12 4q4 2 17.5 5.5t17.5 3.5q10 4 14.5 12t8.5 18q4 8 13 27.5t20.5 41t20.5 41t13 28.5q0 2 2 4q4 4 5 6q4 6 12 24.5t12 22.5h4q2 -8 12.5 -17.5t21.5 -18.5t18.5 -17t5.5 -17q10 -10 21 -24.5 t17 -30.5q2 -4 4.5 -12t5.5 -16.5t7 -14.5t10 -2q12 -16 16.5 -33.5t4.5 -38.5q0 -6 -3.5 -12t-1.5 -14q-8 12 -26 20v-2v-2q14 -29 39.5 -50.5t46.5 -47.5q16 -20 22.5 -47t18.5 -50q4 -4 18.5 -26.5t20.5 -32.5q4 -2 13 -14.5t11 -16.5v-34q4 -63 21.5 -121t60.5 -105 q6 -6 17.5 -18t13.5 -12h4l8 12q4 4 6 9t4 9q10 14 11.5 22.5t-2.5 28.5q12 2 16 5.5t10 13.5q33 66 64 123t69 114q10 16 31 32t27 28q10 16 10 31.5t2 33.5q2 16 11.5 33t15.5 29q35 76 34 160q0 47 -17 82.5t-36 76.5v27q0 37 10.5 61.5t28.5 55.5q4 8 7 17t12 13 q70 -29 112.5 -78t89.5 -108q2 -4 14.5 -21.5t16.5 -25.5q4 -4 13.5 -22.5t13.5 -22.5q4 -6 12 -23.5t12 -23.5q0 -2 2 -6t2 -7v-831h-540v4l-9 -4h-831v664zM854 12q-2 0 -2 -4t2 -4q4 0 4 4t-4 4zM983 18q-4 0 -4 -3t4 -3t4 3t-4 3zM117 27q-4 0 -4 -4.5t4 -4.5t4 4.5 t-4 4.5zM152 39q-4 -4 -5 -12h5q6 0 12 8q-2 0 -4 2q-2 0 -4 2h-2h-2zM182 39q4 -2 5 -7t1 -9q6 0 11.5 6t3.5 14h-2h-2q-2 0 -8.5 -2t-8.5 -2zM217 35q-8 0 -8 -8h8v8zM279 35q0 -6 6 -8l2 4q-2 4 -8 4zM330 27h8q0 4 -4 4h-2h-2v-4zM459 31q-2 2 -4 0t0 -4q4 0 4 4z M446 35q-4 0 -4 -4t4 -4t4 4t-4 4zM623 39h4l-4 4v-4zM788 39h9l-4 4h-2h-3v-4zM805 39h4v8zM1116 47q-4 0 -4 -4t4 -4q2 0 2 4t-2 4zM281 51q-4 0 -4.5 -2t4.5 -2q4 0 0 4zM186 55q0 -2 2 -2l2 -2q4 0 5.5 7.5t1.5 9.5q-10 0 -11 -11v-2zM248 70q2 -2 8 -10.5t8 -8.5 q2 -2 6 0t6 4l-8 6q2 6 8 7v2h-28zM489 55q-4 0 -4 -4t4 -4t4 4t-4 4zM143 53q4 0 9 4l-9 9v-13zM315 57q-4 0 -4 -3t4 -3t4 3t-4 3zM403 57q-2 2 -2 -1t2 -1q2 0 2 1t-2 1zM424 61q-2 2 -2 -3t2 -3q2 0 2 3t-2 3zM473 57q-2 0 -2 -3t2 -3q4 0 4 3t-4 3zM633 57q-4 0 -4 -3 t4 -3t4 3t-4 3zM766 57q-4 0 -4 -3t4 -3t4 3t-4 3zM827 57q-4 0 -4 -3t4 -3t4 3t-4 3zM1112 57q-4 0 -4 -3t4 -3t4 3t-4 3zM471 57q0 4 -3 4t-1 -4q0 -4 4 0zM627 61q-4 0 -4 -3t4 -3q2 0 2 3t-2 3zM866 61q-4 0 -4 -3t4 -3t4 3t-4 3zM319 70q-6 -4 -6 -9h6v9zM778 66 q-4 0 -4 -2.5t4 -2.5q4 5 0 5zM797 61l4 5l-4 4v-9zM408 66h4v4h-4v-4zM129 74q-4 0 -4 -4t4 -4t4 4t-4 4zM295 70q2 2 -1 2t-3 -2q4 -4 4 0zM836 74q-2 0 -2 -2t2 -2t2 2t-2 2zM516 78q-4 0 -4 -4t4 -4t4 4t-4 4zM416 82v-2v-2q0 2 2 2l2 2v2v2zM653 82q-4 0 -4 -4t4 -4 t4 4t-4 4zM1143 82q-2 0 -2 -2t2 -2t2 2t-2 2zM831 86q-4 0 -4 -4t4 -4t4 4t-4 4zM1116 82h2v4h-2v-4zM1135 86q0 2 -3.5 -1t-1.5 -3q2 -2 4.5 0t0.5 4zM1174 82q0 2 -2.5 2t-2.5 -2t2.5 -2t2.5 2zM133 86q0 2 -3 2t-1 -2q0 -4 4 0zM174 86l4 4h-8zM227 96q0 -6 6.5 -8 t10.5 -2q16 0 32 8v2q-4 4 -8 4h-4v17h-8q-2 0 -4 2q-2 0 -4 2h-4v-25h-17zM281 90q-4 0 -4.5 -4t4.5 -4q4 0 4 4t-4 4zM858 90q-4 0 -4 -4t4 -4t4 4t-4 4zM182 117q-4 -10 2 -14.5t6 -14.5q2 0 5 2q2 2 8 7t6 7q2 0 2 2q-16 0 -16 13q0 10 16 10h2l4 -4q8 0 8 4h4h4 l-12 -12q6 -8 19 -8q0 18 -3.5 24t-23.5 6q-4 0 -12 -3t-11 -7q-4 14 -12 10t-18 4v-10q10 0 22 -4v-2v-2q0 -4 -8 -4q-2 0 -7 1t-7 3v-14q2 0 9 1t9 1q4 0 4 4zM252 94q4 -4 0 -4q-2 -2 -2 1t2 3zM139 100q4 0 9.5 -4t9.5 -4l2 2l4 2q0 8 -4 8h-8h-6.5t-6.5 -4zM381 94l4 2 v2v2zM1147 96q-4 0 -4 -3t4 -3t4 3t-4 3zM809 100q-4 0 -4 -3t4 -3t4 3t-4 3zM848 100q-4 0 -4 -3t4 -3t4 3t-4 3zM883 100q-4 0 -4 -3t4 -3t4 3t-4 3zM866 109q-4 0 -4 -4.5t4 -4.5t4 4.5t-4 4.5zM141 121q-10 0 -10 -10q12 0 12 10h-2zM778 121q-4 0 -4 -4t4 -4q2 0 2 4 t-2 4zM879 121q-4 0 -4.5 -4t4.5 -4q4 0 4 4t-4 4zM854 125q-2 0 -2 -4t2 -4q4 0 4 4t-4 4zM930 129q-4 0 -4 -4t4 -4q2 0 2 4t-2 4zM1225 125v8l-4 -4zM143 133q-2 0 -2 -3t2 -1q4 0 0 4zM373 133q-4 0 -4 -4t4 -4t4 4t-4 4zM692 129q0 2 -2 2t-2 -2q0 -4 2 -4t2 4z M731 141q-4 0 -12 -1t-8 -7q8 2 28 6h-4q-2 0 -4 2zM870 135q-4 0 -4 -3t4 -3t4 3t-4 3zM840 139q-4 0 -4 -3t4 -3t4 3t-4 3zM1194 139q0 2 -3 2t-1 -2q0 -4 4 0zM178 152q6 -8 19 -9q18 0 24 25q-4 -6 -12 -5t-14 1v6h-9q0 -2 -2 -9t-6 -9zM883 143h4v4h-4v-4zM676 152 q-4 0 -4 -4.5t4 -4.5t4 4.5t-4 4.5zM797 170q-4 -4 -6.5 -8t-2.5 -10v-5q8 6 9 19v4zM668 152h4q2 0 4 2t4 2h-12v-4zM918 156q-4 0 -4.5 -4.5t4.5 -4.5q4 0 4 4.5t-4 4.5zM602 160q-4 0 -4 -4t4 -4t4 4t-4 4zM295 164q-4 0 -4 -4t4 -4t4 4t-4 4zM649 164q-2 0 -2 -3t2 -1 q4 0 0 4zM805 168q-2 0 -2 -5t2 -3q2 0 2 3t-2 5zM164 168q-4 0 -4 -4t4 -4t4 4t-4 4zM281 162q6 0 6 8h-6v-8zM207 170q-4 2 -4 -1t4 -1q2 0 2 1t-2 1zM315 178q-4 0 -4 -4t4 -4t4 4t-4 4zM805 182q0 -2 3 -4t5 -4l6 8l-10 8q-4 0 -4 -8zM195 178q0 2 -2.5 2t-2.5 -2 q1 -4 5 0zM287 184q-6 0 -6 -6h6v6zM311 182q-2 2 -2 -1t2 -3q4 4 0 4zM815 207q-14 0 -14 -19v-2q4 4 9 9.5t5 11.5zM827 186h4v4h-4v-4zM295 195q-2 0 -2 -2.5t2 -2.5q4 1 0 5zM633 195q-4 0 -4 -4.5t4 -4.5t4 4.5t-4 4.5zM858 195q-4 0 -4 -4.5t4 -4.5t4 4.5t-4 4.5z M897 199q-2 0 -2 -5.5t2 -3.5q4 5 0 9zM854 199q-2 0 -2 -4.5t2 -4.5q4 0 4 4.5t-4 4.5zM887 199q-4 0 -4 -3t4 -1q4 0 0 4zM823 203h4v4zM815 217l6 -3t6 -1q10 0 10.5 5t0.5 11h10l4 19q0 4 -8 4l-2 -2q-2 0 -2 -2v-2q0 -4 4 -4q-8 -2 -16.5 -11.5t-12.5 -13.5zM602 217v8 l-4 -4zM242 225q-4 0 -4 -4t4 -4t4 4t-4 4zM610 225q-4 0 -4 -4t4 -4t4 4t-4 4zM532 229q-4 0 -4 -4t4 -4t4 4t-4 4zM858 229q-4 0 -4 -4t4 -4t4 4t-4 4zM225 233h4v5h-4v-5zM918 238q-4 0 -4.5 -4.5t4.5 -4.5q4 0 4 4.5t-4 4.5zM948 238q-4 0 -4 -4.5t4 -4.5t4 4.5t-4 4.5z M983 238q-2 0 -2 -3.5t2 -1.5q4 1 0 5zM1329 242q2 2 -3 2t-5 -2q4 -4 8 0zM831 248q-4 0 -4 -3t4 -3t4 3t-4 3zM870 252q-4 0 -4 -3t4 -3t4 3t-4 3zM225 281q-2 -10 -11 -12.5t-9 -14.5l2 -2q6 2 12 9t6 15v5zM858 256h8v4h-8v-4zM516 264l4 12l-8 -8zM541 276q0 -8 4 -8h2 h2v4q0 2 1 2t1 2h-10zM559 272q-2 0 -2 -2t2 -2q4 0 0 4zM854 268h4v4h-4v-4zM199 276q-4 0 -4 -4t4 -4t4 4t-4 4zM199 285q-4 0 -4 -4.5t4 -4.5t4 4.5t-4 4.5zM870 285q0 2 -2 2t-2 -2q0 -4 2 -4t2 4zM1360 287q-4 0 -4 -3t4 -3t4 3t-4 3zM1208 301q0 -6 9 -14l4 4l-13 12 v-2zM326 291h8v8zM199 346q-10 -6 -16.5 -23.5t-12.5 -27.5h2q6 0 17.5 19.5t13.5 23.5q0 8 -4 8zM223 311q-10 0 -10 -10q6 0 12 10h-2zM307 303l4 4h-4v-4zM350 311q-4 -2 -4 -8h4v8zM498 307q-4 0 -4 -4t4 -4t4 4t-4 4zM512 307v8h-2zM360 315q-2 0 -2 -4t2 -4q4 0 4 4 t-4 4zM891 319q-4 0 -4 -5t4 -3q2 0 2 3t-2 5zM1217 322q-4 0 -4.5 -3.5t4.5 -3.5q4 0 4 3.5t-4 3.5zM516 326q2 -4 8 -4h8v8h-4q-8 0 -12 -4zM1212 326q-4 0 -4 -3.5t4 -3.5t4 3.5t-4 3.5zM160 330q-2 2 -2 -1t2 -3q4 4 0 4zM1182 330q-4 0 -4 -4t4 -4t4 4t-4 4zM1208 330 q-4 0 -4 -4t4 -4t4 4t-4 4zM342 334q-4 0 -4 -4t4 -4t4 4t-4 4zM549 334q-4 0 -4 -4t4 -4q2 0 2 4t-2 4zM1200 338q-4 0 -4 -4t4 -4t4 4t-4 4zM385 342q-4 0 -4 -4t4 -4t4 4t-4 4zM1190 346q-2 0 -2 -2t2 -2t2 2t-2 2zM135 350q-2 0 -2 -4t2 -4q4 0 4 4t-4 4zM506 350 q-4 0 -4 -4t4 -4t4 4t-4 4zM381 350q0 2 -2 2t-2 -2t2 -2t2 2zM1155 350h6l-4 4h-2v-4zM139 354l4 4h-4v-4zM389 358q-4 0 -4 -4t4 -4t4 4t-4 4zM1182 358q-4 0 -4 -4t4 -4t4 4t-4 4zM1151 360q-4 0 -4 -3t4 -3t4 3t-4 3zM121 360l4 5l-4 4l-4 -4zM1147 365q-4 0 -4 -3.5 t4 -3.5t4 3.5t-4 3.5zM166 375q0 -4 4 -7t8 -3q8 0 12 12q-2 0 -7 2t-9 2h-2h-2l-2 -4zM1155 369q-4 0 -4 -4.5t4 -4.5q2 0 2 4.5t-2 4.5zM815 532l2 3l2 2v-13q-2 0 -2 2l-2 2v2v2zM809 545q0 4 6 4v-8zM815 559q4 -4 -2 -4q-4 2 -1 4t3 0zM680 588q10 6 21.5 3t21.5 -1 q4 2 23.5 8t23.5 8h4q0 -8 -8 -12t-19.5 -7t-21.5 -4t-16 -1q-8 0 -14.5 1t-14.5 5zM186 598q4 4 9 12h-9v-12zM797 618q-6 -8 -17 -12v4zM813 627q4 -2 4 -9q0 -2 -2 -4l-6 9zM969 717q0 -10 -6.5 -27.5t-16.5 -17.5h-6q4 4 10 19.5t11 19.5q2 6 8 6zM373 692q-4 0 -4 -4 t4 -4t4 4t-4 4zM541 711q-6 33 -16.5 69.5t-22.5 67.5q-6 14 -19.5 42t-15.5 32l-8 8l-35 69q-2 4 -6 16.5t-10.5 25t-13.5 22.5t-13 10h-4q-2 0 -8.5 -4t-8.5 -4q-6 0 -12 10t-13 25.5t-14.5 30t-13.5 20.5q0 14 -4 27.5t-4 27.5t6 25.5t6 23.5v5q-4 -2 -19.5 -3.5 t-19.5 -1.5h-8q0 -12 4 -25t4 -26h-47q-18 2 -35.5 3t-33.5 5q-2 0 -14.5 1t-8.5 12q10 6 19.5 11t21.5 7h-6q-18 0 -34.5 -6t-33.5 -6q0 6 13.5 10t30 7t31.5 5t20 2q8 0 34.5 3.5t34.5 5.5h-94q25 14 49.5 22t48.5 23v-2q16 0 35 9t35 13q8 2 16 2t15 2q14 4 15 7t17 3 q0 6 1 10.5t1 8.5v2q-16 -8 -30.5 -9t-30.5 -7q-8 -2 -23.5 -9.5t-33 -14.5t-30.5 -12t-17 -5q-10 0 -14.5 8t-5.5 19.5t-1 23.5v18q0 27 -5 55.5t-5 57.5q0 4 5 14t5 13l51 51q-4 25 6.5 45t12.5 43l-2 2q-6 0 -12.5 -16.5t-14.5 -35t-18.5 -35t-22.5 -16.5q-16 0 -14 21 q0 8 -2 30.5t-4 49t-4.5 49t-2.5 33.5v14q0 55 38 95t87 59q92 25 179.5 47t181.5 22q55 0 99 -5t76 -23.5t54.5 -53t34.5 -92.5q0 -4 5 -23.5t12.5 -43t14.5 -43.5l7 -19q4 -6 12 -10t13 -10q10 -35 23 -68t17 -72h7q18 0 36.5 2.5t38.5 2.5h25.5t26.5 -5q4 0 4 -4 q0 -2 -9.5 -12t-21.5 -22.5t-22.5 -23.5t-12.5 -15q-2 0 -1 -5.5t1 -7.5q-4 -8 -19.5 -19t-23.5 -11q-6 0 -8 4t-8 4h-4q-2 0 -3 -1t-6 -1q-4 -2 -6 -2q-2 2 -10 8t-10 8q-4 4 -21.5 9t-21.5 5v-8q-6 0 -10 4l-9 9h-2h-2q-4 0 -8 -5q4 8 -4 9q-4 -12 -16 -13 q-12 0 -21.5 6.5t-15.5 6.5q-16 0 -24.5 -10.5t-22.5 -20.5v2q0 6 7 12t11 8q0 4 -4 5q-2 -2 -4 -3q-2 0 -2 -2q-2 0 -5 1t-5 1q0 -20 -10.5 -24t-26.5 -8l-2 -2q-2 0 -2 -2h-4v4q-16 2 -21.5 5t-15.5 3h-6q16 -16 41.5 -31.5t25.5 -42.5q0 -2 -1 -2t-1 -2v-4q-2 -2 -2 -4 v-4q0 -8 8 -21.5t10 -23.5t-7 -16.5t-11 -16.5q8 -6 9 -9t1 -12q0 -14 -4 -37.5t-26 -23.5q-6 0 -13.5 3t-13.5 3q-16 0 -25 -12v-29q0 -12 3.5 -23.5t3.5 -23.5t-3.5 -24.5t-3.5 -24.5q0 -10 6.5 -16.5t6.5 -14.5v-30q8 -43 23.5 -86.5t15.5 -86.5q0 -2 -1 -6t-4 -4 q-4 2 -11 5t-11 1l-4 -4q-2 -2 -4 -2q-10 16 -34 21.5t-40 19.5q-10 10 -27.5 26.5t-27.5 28.5v7v6l4 6q0 8 -6 16.5t-9 16.5q2 2 5 2q2 0 4 2l-2 4h-15q0 2 2 9t2 9q0 4 -4 19.5t-8 19.5l-12 74q-2 10 7 20.5t9 22.5q0 10 -18.5 24.5t-28.5 24.5q0 4 -4 4l-31 -14q0 2 -3 4 t-5 4h-2l-4 -9t-7 -20.5t-6 -21.5t-3 -14v-7l34 -34q6 -25 18.5 -51.5t20.5 -53.5q2 -4 5 -7t3 -7q-2 -2 -4 -5t-4 -3q4 0 8.5 -10.5t7.5 -22.5t5 -23.5t2 -13.5v-4q0 -2 -1 -6t-1 -6q-2 -4 -2 -19.5t2 -19.5q-2 0 -2 -2t-2 -2v-2q0 -10 2 -18.5t2 -18.5v-14.5t-4 -16.5 q-2 -2 -12.5 -11.5t-12.5 -11.5q-4 -4 -4 -7t-4 -3q0 4 -2 11.5t-8 9.5zM551 700q4 0 4 -4t-4 -4q-2 0 -2 4t2 4zM168 702q0 -4 8 -4q16 0 17 15q-6 0 -13.5 -1.5t-11.5 -9.5zM983 766q0 -10 -2 -24.5t-14 -18.5v6q0 10 5 20.5t11 20.5v-4zM590 754q4 0 4 -4.5t-4 -4.5 q-2 0 -2 4.5t2 4.5zM991 786v-2l-2 -2q-2 0 -2 -2l4 8v-2zM819 868q0 10 4 14.5t8.5 7.5t8.5 6t4 11q0 10 -4 15.5t-4 15.5q0 16 12 31.5t12 31.5q0 4 -5 4.5t-5 6.5t2 6l53 55q4 4 12.5 4h12.5q16 0 21 -16.5t5 -32.5v-2q0 -2 -2 -4t-2 -4q-4 -4 -17 -17.5t-17 -17.5v-2 q0 -4 9 -10t13 -6v-29q0 -23 -7 -38t-3 -36q-41 -20 -64 -49l-4 -2q-16 0 -29.5 21.5t-13.5 35.5zM354 1053q4 -4 11 -9q4 -4 7 -8t5 -6q0 -2 4 -11t8 -13q0 -4 2 -7q0 -2 2 -4q0 -16 -12 -16h-4q-16 12 -27.5 32.5t-11.5 41.5h16zM803 1085q0 23 6 46.5t35 23.5 q18 0 24 -11t6 -28q0 -16 -10 -29.5t-28 -13.5q-10 0 -16.5 6t-16.5 6zM393 1112q10 -12 21 -12q10 0 18 2t8 14q0 2 -5 11.5t-11 18.5t-13.5 16t-11.5 7q-2 0 -9 -2t-9 -6v-12q0 -8 7 -20.5t5 -16.5zM745 1126q4 0 4.5 -4t-4.5 -4q-4 0 -4 4t4 4zM649 1169q0 -14 15 -14 q20 0 39.5 9.5t19.5 31.5q0 14 -5 27.5t-22 13.5q-2 0 -4 -2q-4 0 -12 -4l-12 -6q-6 -4 -5 -11.5t-1 -13.5q-4 -8 -8.5 -14.5t-4.5 -16.5zM715 1190q4 0 4 -4t-4 -4t-4 4t4 4zM186 1251q-4 0 -4 -4t4 -4t4 4t-4 4zM272 1270q-4 0 -4 -3t4 -3t4 3t-4 3zM291 1268q2 2 -3 2 t-3 -2q0 -4 3 -4t3 4zM299 1270q-4 0 -4 -3t4 -3t4 3t-4 3zM319 1274q-4 0 -4 -3t4 -3q2 0 2 3t-2 3zM342 1278q-4 0 -4 -4t4 -4t4 4t-4 4zM365 1278q2 2 -1.5 2t-3.5 -2q5 -4 5 0zM377 1282q-4 0 -4 -4t4 -4t4 4t-4 4zM389 1286q-4 0 -4 -4t4 -4t4 4t-4 4zM428 1286 q-4 0 -4 -4t4 -4t4 4t-4 4zM399 1286q2 2 -1 2t-1 -2q0 -2 1 -2t1 2zM420 1294q-4 0 -4 -4t4 -4t4 4t-4 4zM494 1298q6 -2 12 -5t10 -3q8 0 13.5 8.5t5.5 16.5q-8 0 -22.5 -5.5t-18.5 -11.5zM307 1307q-4 0 -4 -4.5t4 -4.5t4 4.5t-4 4.5zM489 1309q0 4 -2 4t-2 -4q4 -4 4 0z M498 1317q-4 0 -4 -4t4 -4t4 4t-4 4zM512 1317q2 2 -1 2t-1 -2q0 -2 1 -2t1 2zM397 1329q-4 0 -4 -2t4 -2q2 0 2 2t-2 2zM549 1333q-4 0 -4 -4t4 -4q2 0 2 4t-2 4zM403 1337q0 -2 3 -2l2 -2q2 12 8 17.5t14 6.5t15.5 3t13.5 8h-17v6q-16 0 -12 -4t-6 -10q-8 -4 -14.5 -5.5 t-6.5 -17.5zM428 1337q-4 0 -4 -4t4 -4t4 4t-4 4zM559 1337q0 2 -3 -1t-1 -3q2 -2 4 0t0 4zM502 1341q-4 0 -4 -4t4 -4t4 4t-4 4zM567 1337l4 4h-4v-4zM555 1348q-4 0 -4 -3.5t4 -3.5t4 3.5t-4 3.5zM584 1346q0 2 -2 2t-2 -2q0 -8 4 0zM451 1352h4v4h-4v-4zM555 1356 q-4 0 -4 -4t4 -4t4 4t-4 4zM369 1360q4 0 4 -4t-4 -4t-4 4t4 4zM463 1364q0 -4 4 -8q0 10 9 13t18 3q0 -10 8 -10v18l8 -4l6 15l-4 2q-8 0 -12 -7.5t-13 -7.5l-2 2l-2 2q-2 0 -2 2h-2q-6 0 -11 -8t-5 -12zM610 1360q-4 0 -4 -4t4 -4t4 4t-4 4zM545 1364q-4 0 -4 -4t4 -4t4 4 t-4 4zM555 1364q-4 0 -4 -4t4 -4t4 4t-4 4zM629 1368q-2 0 -2 -4t2 -4q4 0 4 4t-4 4zM416 1372q-4 0 -4 -4t4 -4t4 4t-4 4zM563 1376q-4 0 -4 -4t4 -4t4 4t-4 4zM649 1376q-4 0 -4 -4t4 -4t4 4t-4 4zM559 1397q0 -2 -2 -11.5t-6 -9.5h2q10 0 16 11.5t6 19.5h-4q-4 -2 -19 -4 t-20 -4q4 -2 9 -13l18 13v-2zM463 1384q-4 0 -4 -4t4 -4t4 4t-4 4zM537 1384q-4 0 -4.5 -4t4.5 -4q4 0 4 4t-4 4zM494 1386q0 4 -2.5 4.5t-2.5 -4.5q0 -2 2.5 -2t2.5 2zM594 1384q12 0 17 9.5t16 9.5h2l4 -2q2 -2 4 -2l4 4q2 2 4 2t4 2l4 4q12 4 33 10t42.5 11.5t43 9.5 t33.5 4h8q-2 0 -10 -2t-17.5 -4t-16.5 -5t-7 -5q4 2 22.5 -0.5t20.5 -8.5q6 18 28.5 22.5t36.5 10.5q8 0 13 4h-17q-10 0 -19 -4t-20 -4h-8l8 4h-14h-23.5t-23.5 -4q-10 -2 -34.5 -7t-51.5 -11.5t-51.5 -10.5t-34.5 -6q6 -6 6 -14q4 0 6 3t6 3h2q-2 -14 -20 -14v-9z M563 1395q4 0 4 -4.5t-4 -4.5t-4 4.5t4 4.5zM545 1399q4 0 4 -4t-4 -4t-4 4t4 4zM715 1395q0 2 -2 2t-2 -2t2 -2t2 2zM727 1403q-4 0 -4 -4t4 -4t4 4t-4 4zM590 1403q2 2 -1 2t-1 -2q0 -2 1 -2t1 2zM735 1411q-4 0 -4 -4t4 -4t4 4t-4 4zM805 1407q2 2 -8.5 2t-8.5 -2t8.5 -2 t8.5 2zM815 1411q-2 0 -2 -4t2 -4q4 0 4 4t-4 4zM588 1411q0 2 -3 2t-1 -2q0 -4 4 0zM623 1415q4 0 4 -4t-4 -4t-4 4t4 4zM618 1419q-4 0 -4 -4t4 -4t4 4t-4 4zM754 1419q-4 0 -4 -4t4 -4t4 4t-4 4zM809 1419q-4 0 -4 -4t4 -4t4 4t-4 4zM887 1419q-4 -8 -4 0q0 2 2 2t2 -2z M778 1421q0 4 -3 4t-1 -4q0 -4 4 0zM797 1425q-4 0 -4 -3t4 -3t4 3t-4 3zM887 1430q4 0 4 -4.5t-4 -4.5t-4 4.5t4 4.5zM995 1425q0 4 -2 4.5t-2 -4.5q0 -2 2 -2t2 2zM932 1434q2 2 -3 2t-3 -2q0 -2 3 -2t3 2zM1139 1458q4 0 4 -4t-4 -4t-4 4t4 4zM893 1460q2 4 -1 4t-1 -4 q0 -2 1 -2t1 2zM909 1468q-4 0 -4 -4t4 -4t4 4t-4 4zM922 1468h2h2q2 0 2 2l2 3zM991 1493q-4 0 -4 -4t4 -4t4 4t-4 4zM1014 1497q0 2 -2 2t-2 -2q4 -8 4 0zM1030 1503q-4 0 -4 -4l8 4l-2 2zM403 1827q-4 0 -4 -4t4 -4t4 4t-4 4z" />
</font>
</defs>
</svg>
